<svg aria-hidden="true" style="width:0;height:0;position:absolute;overflow:hidden" xmlns="http://www.w3.org/2000/svg"><defs><symbol id="autors" viewBox="0 0 27 32"><path d="M.059 31.693h27.355c.136-3.12-.088-8.295-2.006-10.759l-.069-.088-4.191-2.104c.091-.307.136-.588.154-.795a1.449 1.449 0 0 0-.102-.692c-.691-1.655-2.155-2.525-2.959-2.896a5.158 5.158 0 0 0 .48-1.567c.456-.128.822-.489.942-.971l.489-1.987a1.343 1.343 0 0 0-.154-1.023 1.346 1.346 0 0 0-.3-.341c1.379-3.133-.931-6.087-1.057-6.243C16.139-.478 12.979.028 12.812.058c-4.561.955-6.321 4.451-5.328 8.55-.294.326-.418.78-.309 1.226l.492 1.99c.119.478.483.838.935.968.139.993.56 1.89 1.177 2.614v1.576c-6.545 3.352-2.398 1.213-7.643 3.867-.01.049-2.461 2.654-2.097 10.375l.022.472zm26.404-.99h-4.502v-1.891l2.978-6.816c1.492 2.476 1.547 7.203 1.524 8.708zm-6.144-12.841c-.174 1.996-1.268 1.393-1.944 2.93-.531-.584-.691-1.285-.548-2.035.258-1.377-.583-1.786-.375-3.233l.031-.033v-.005c.018-.02.184-.217.232-.28 1.781.777 2.639 2.221 2.604 2.656zm-9.556-1.568a5.068 5.068 0 0 0 2.899.912 5.06 5.06 0 0 0 2.795-.836c.114 1.138.559 1.365.401 2.203a3.52 3.52 0 0 0-.055.459l-3.066 3.456-3.919-4.419.946-.494v-1.281zm-1.232-4.229V6.783c.477-.883 1.128-1.522 1.936-1.906 2.165 1.225 4.657 3.053 6.329 4.893-.002 2.343.007 2.35-.009 2.542l-.001.012c-.13 2.128-1.88 3.892-4.124 3.892-2.181 0-3.992-1.713-4.123-3.913a2.69 2.69 0 0 1-.008-.238zm-.611 6.482 4.816 5.43 3.234-3.644c.074.213.178.414.296.608l-3.53 4.414-5.264-6.583.447-.224zm9.862-7.279v-1.53l.368-.421c.02.775.104-.14-.368 1.951zM12.993 1.029c.196.012 2.824-.4 4.901 1.843.082.103 1.773 2.281 1.093 4.665-.233-1.061-.638-2.42-1.278-3.068l-.7.697c.632.641 1.048 2.591 1.206 3.602-2.901-3.035-6.643-4.957-6.694-4.989-.188.117-1.771.418-2.921 2.653l-.055.107v1.642l-.145.002c-.731-3.528.669-6.33 4.593-7.153zM8.296 9.201l.249 1.008v1.06l-.414-1.674c-.061-.25.124-.344.165-.394zm-.725 10.023 6.166 7.712 4.172-5.218c.454.406.672.464 1.634.959l-.325-1.101c-.082-.279.244-.728.441-.934.44-.238.806-.578 1.08-.998l3.404 1.709-3.167 7.251v2.099H6.499v-2.099l-3.169-7.25 4.242-2.129zm-5.037 2.773 2.978 6.815v1.891H1.01c-.023-1.504.033-6.229 1.524-8.706z"/></symbol><symbol id="book" viewBox="0 0 43 32"><path d="M19.102 4.52H5.443v1.028h13.659V4.52zm-.001 3.837H7.488v1.028h11.613V8.357zm.001 3.838H5.443v1.028h13.659v-1.028zm-.001 3.837H7.488v1.028h11.613v-1.028zm.001 3.837H5.443v1.028h13.659v-1.028zm-.001 3.838H7.488v1.028h11.613v-1.028zM37.851 4.52H24.192v1.028h13.659V4.52zm-2.046 3.837H24.192v1.028h11.613V8.357zm2.046 3.838H24.192v1.028h13.659v-1.028zm-2.046 3.837H24.192v1.028h11.613v-1.028zm2.046 3.837H24.192v1.028h13.659v-1.028zm-2.046 3.838H24.192v1.028h11.613v-1.028z"/><path d="M42.783 3.348h-1.875V.514a.513.513 0 0 0-.511-.515H25.111a3.95 3.95 0 0 0-3.463 2.026 3.951 3.951 0 0 0-3.464-2.026H2.898a.513.513 0 0 0-.511.515v2.834H.512a.513.513 0 0 0-.511.515v27.622c0 .284.229.515.511.515h42.271c.282 0 .511-.23.511-.515V3.863a.513.513 0 0 0-.511-.515zM25.111 1.029h14.774V28.59H24.02c-.703 0-1.406.299-1.861.685V3.993a2.945 2.945 0 0 1 2.952-2.964zm-21.702 0h14.774a2.936 2.936 0 0 1 2.946 2.851c.001.022.003.091.006.113v25.28a2.979 2.979 0 0 0-1.855-.683H3.408V1.029zM1.023 4.378h1.364v24.727c0 .284.229.515.511.515h16.383c.78 0 1.533.515 1.774 1.351H1.023V4.378zm41.248 26.593H22.239a1.85 1.85 0 0 1 1.78-1.351h16.377c.282 0 .511-.23.511-.515V4.378h1.364v26.593z"/></symbol><symbol id="check" viewBox="0 0 40 32"><path d="M35.296 1.514a30.274 30.274 0 0 0-4.369 2.379c-2.797 1.797-5.355 3.936-7.754 6.218-2.398 2.287-4.63 4.735-6.741 7.28-.528.636-2.892 3.47-2.892 3.47L3.71 6.481-.001 16.523 13.292 32c1.291-2.551 2.533-5.07 3.752-7.258.303-.556.62-1.08.923-1.612 0 0 1.56-2.677 1.97-3.352 1.64-2.697 3.414-5.325 5.366-7.821 1.955-2.491 4.08-4.87 6.489-6.961a29.016 29.016 0 0 1 3.842-2.872c1.364-.848 2.814-1.591 4.365-2.125-1.613.31-3.187.848-4.704 1.514z"/></symbol><symbol id="doc" viewBox="0 0 30 32"><path d="m29.977 4.975-.001-.002a.32.32 0 0 0-.06-.09L25.068.084a.329.329 0 0 0-.041-.033l-.009-.006c-.012-.007-.024-.014-.036-.019l-.011-.005a.287.287 0 0 0-.1-.02H3.509a.285.285 0 0 0-.286.284v29.271c0 .019.002.037.006.056l.007.023.009.03.014.026.013.023c.01.014.021.028.033.04l.003.003 2.183 2.161a.288.288 0 0 0 .405 0l1.982-1.961 1.981 1.961c.056.056.129.083.203.083s.146-.027.202-.083l1.981-1.96 1.982 1.96a.288.288 0 0 0 .405 0l1.981-1.96 1.981 1.96a.288.288 0 0 0 .405 0l1.982-1.961 1.981 1.961c.056.056.129.083.202.083s.147-.027.203-.083l1.981-1.96 1.982 1.96a.288.288 0 0 0 .405 0l2.183-2.161.011-.014.024-.029c.007-.009.011-.02.017-.03.003-.007.007-.012.009-.019.006-.013.009-.026.012-.039l.005-.013a.278.278 0 0 0 .006-.058V5.085a.287.287 0 0 0-.023-.108zM25.151.969l3.869 3.83h-3.869V.969zm4.275 28.468-1.896 1.878-1.982-1.961a.29.29 0 0 0-.405 0l-1.981 1.961-1.981-1.961a.29.29 0 0 0-.405 0l-1.982 1.961-1.98-1.96v-.001a.289.289 0 0 0-.405 0l-1.98 1.961-1.982-1.961a.29.29 0 0 0-.405 0l-1.981 1.961-1.981-1.961a.29.29 0 0 0-.405 0l-1.982 1.961-1.897-1.878V.567h20.783v4.516c0 .157.128.284.287.284h4.561v24.071z"/><path d="M5.931 3.251h9.384c.158 0 .287-.127.287-.284s-.128-.284-.287-.284H5.931c-.159 0-.287.127-.287.284s.128.284.287.284zm0 1.754H20.98c.158 0 .287-.127.287-.284s-.128-.284-.287-.284H5.931c-.159 0-.287.127-.287.284s.128.284.287.284zM5.645 6.58v9.186c0 .157.128.284.287.284h21.357a.285.285 0 0 0 .286-.284V6.58a.285.285 0 0 0-.286-.284H5.932a.285.285 0 0 0-.287.284zm6.333.284h15.024v2.442H11.978V6.864zm0 3.009h15.024v2.441H11.978V9.873zm0 3.008h15.024v2.602H11.978v-2.602zm-5.76-6.017h5.187v2.442H6.218V6.864zm0 3.009h5.187v2.441H6.218V9.873zm0 3.008h5.187v2.602H6.218v-2.602zm21.071 4.446H5.932a.285.285 0 0 0-.287.284v9.186c0 .157.128.283.287.283s.286-.127.286-.283v-2.885h5.187v2.885c0 .157.128.283.286.283s.287-.127.287-.283v-2.885h15.024v2.885c0 .157.128.283.287.283s.286-.127.286-.283v-9.186a.284.284 0 0 0-.286-.284zm-15.884 6.017H6.218v-2.44h5.187v2.44zm0-3.008H6.218v-2.441h5.187v2.441zm15.597 3.008H11.978v-2.44h15.024v2.44zm0-3.008H11.978v-2.441h15.024v2.441zM1.863 0a.286.286 0 0 0-.287.284v29.271c0 .156.128.283.287.283s.287-.127.287-.283V.284A.285.285 0 0 0 1.863 0zM.287 0A.286.286 0 0 0 0 .284v29.271c0 .156.128.283.287.283s.286-.127.286-.283V.284A.285.285 0 0 0 .287 0z"/></symbol><symbol id="mobile-learning" viewBox="0 0 31 32"><path d="M29.467 0H13.758a1.851 1.851 0 0 0-1.855 1.844V8.31L.232 13.181a.377.377 0 0 0-.048.672l1.488.886v9.439a1.708 1.708 0 0 0-1.332 1.66v.91c0 .209.17.378.38.378h2.665c.21 0 .38-.169.38-.378v-.91c0-.809-.571-1.486-1.333-1.659v-8.988l1.177.7c-.036.27-.005-.47-.017 4.395 0 1.599 4.119 2.456 8.311 2.505v7.366c0 .381.117.734.317 1.028.333.49.898.813 1.536.813h15.709a1.85 1.85 0 0 0 1.853-1.842c0 .05-.002-1.56 0-28.313a1.861 1.861 0 0 0-1.852-1.844zM3.006 25.839v.532H1.101v-.532a.953.953 0 0 1 1.905 0zm26.461 5.403H13.758c-.377 0-.71-.19-.907-.478a1.074 1.074 0 0 1-.187-.607v-2.554h17.893v2.555c0 .592-.496 1.084-1.09 1.084zm1.09-4.394H12.664v-4.054c2.046-.023 8.316-.471 8.316-2.507-.002-3.056.005-4.295-.01-4.4l3.413-2.033a.378.378 0 0 0-.048-.672l-11.67-4.871V5.154h17.893v21.695zm-18.273-9.07c-2.108 0-6.167.271-7.931 1.416.011-3.502-.122-3.274.312-3.571 1.095-.802 4.228-1.362 7.619-1.362 1.479 0 7.936.404 7.936 1.764v3.17c-1.78-1.156-5.818-1.416-7.936-1.416zm.38-15.934c0-.599.49-1.087 1.093-1.087h15.709c.603 0 1.091.494 1.091 1.086v2.554H12.664V1.844zm-.38 7.127 11.064 4.618-2.741 1.631c-1.458-1.437-6.279-1.716-8.323-1.716-2.046 0-6.868.28-8.322 1.716L1.22 13.588 12.285 8.97zM4.353 20.287c0-.612 2.724-1.753 7.931-1.753 5.21 0 7.936 1.142 7.936 1.753s-2.726 1.754-7.936 1.754c-5.207 0-7.931-1.142-7.931-1.754z"/><path d="M21.611 28.174c-.693 0-1.257.56-1.257 1.25s.564 1.25 1.257 1.25 1.257-.561 1.257-1.25-.564-1.25-1.257-1.25zm0 1.744c-.274 0-.497-.222-.497-.495s.223-.494.497-.494.497.221.497.494-.223.495-.497.495zM23.062 2.2h-2.899v.756h2.899V2.2z"/></symbol><symbol id="english" viewBox="0 0 37 32"><path d="M2.318 29.826h12.404A3.786 3.786 0 0 0 18.15 32h.783c1.486 0 2.8-.853 3.429-2.174h12.41c1.278 0 2.318-1.054 2.318-2.349V4.965c0-1.295-1.04-2.349-2.318-2.349H33.52V1.567c0-.864-.693-1.566-1.545-1.566H5.108c-.852 0-1.545.702-1.545 1.566v1.049H2.319C1.041 2.616.001 3.67.001 4.965v22.512c0 1.295 1.04 2.349 2.318 2.349zm29.656-4.832H19.318V6.798c2.925.388 5.193 2.924 5.193 5.992v.706l-.183-.041a.772.772 0 0 0-.921.597l-1.23 5.672a.783.783 0 0 0 .589.932l2.658.594a1.979 1.979 0 0 0 2.352-1.533l.712-3.28a2.007 2.007 0 0 0-1.505-2.388l-.925-.207v-1.051c0-3.934-2.959-7.179-6.739-7.575v-3.65h12.657l-.001 23.428zm-7.223-9.84 1.898.424a.434.434 0 0 1 .33.522l-.712 3.28a.457.457 0 0 1-.515.34l-1.9-.424.899-4.142zM5.108 1.566h12.665v3.649c-3.784.391-6.746 3.64-6.746 7.576v1.051l-.927.207a1.968 1.968 0 0 0-1.24.877 2.007 2.007 0 0 0-.263 1.509l.71 3.277a1.993 1.993 0 0 0 1.936 1.583c.14 0 .279-.015.422-.046l2.647-.593a.783.783 0 0 0 .588-.932l-1.23-5.672a.773.773 0 0 0-.922-.597l-.177.04v-.705c0-3.071 2.272-5.609 5.201-5.993v18.197H5.107V1.566zm7.219 13.588.899 4.141-1.89.423a.439.439 0 0 1-.519-.337l-.712-3.284a.433.433 0 0 1 .328-.52l1.893-.423zM1.545 4.964c0-.432.346-.783.773-.783h1.244v20.813c0 .864.694 1.566 1.545 1.566h26.867c.852 0 1.545-.702 1.545-1.566V4.181h1.252c.426 0 .773.351.773.783v22.512a.778.778 0 0 1-.773.783H21.835a.774.774 0 0 0-.739.553 2.257 2.257 0 0 1-2.165 1.621h-.783c-.998 0-1.867-.649-2.168-1.63a.775.775 0 0 0-.736-.544H2.316a.779.779 0 0 1-.773-.783V4.964z"/></symbol><symbol id="finance" viewBox="0 0 28 32"><path d="M.542 13.742c0 .357-.542.357-.542 0C0 6.154 6.154 0 13.742 0c7.591 0 13.742 6.154 13.742 13.742 0 .357-.539.357-.539 0 0-5.129-8.428-5.132-8.428 0 0 .357-.555.357-.555 0 0-5.116-8.441-5.116-8.441 0 0 .357-.555.357-.555 0 0-5.106-8.425-5.142-8.425 0zm8.473-1.992c.146-2.952.61-5.599 1.285-7.62.539-1.606 1.22-2.826 1.992-3.51C6.498 1.253 1.807 5.645.759 11.342c1.995-2.878 6.602-2.647 8.256.409zm8.906-.133c-.149-2.839-.6-5.379-1.249-7.316-1.674-5.012-4.185-5.012-5.859 0-.649 1.937-1.097 4.477-1.249 7.316 1.8-3.059 6.556-3.059 8.357 0zm8.804-.276A13.205 13.205 0 0 0 15.192.619c.775.684 1.453 1.904 1.992 3.51.675 2.021 1.139 4.668 1.285 7.62 1.664-3.072 6.284-3.254 8.256-.409zM11.938 20.03v-2.791c-.503.334-.899.85-.899 1.48 0 .613.402 1.019.899 1.311zm.542.866c-.963-.441-1.979-.957-1.979-2.177 0-1.259.957-1.888 1.979-2.359v4.536zm3.066 3.344v2.822c.509-.337.908-.856.908-1.486 0-.62-.409-1.038-.908-1.337zm-.539-.869c.967.448 1.989.98 1.989 2.206 0 1.262-.963 1.891-1.989 2.358v-4.564z"/><path d="M15.546 14.063c2.219.513 4.5 2.174 4.5 4.655 0 2.125-3.591 2.047-3.591 0 0-.633-.399-1.152-.908-1.486v3.971c2.054.672 4.506 1.875 4.506 4.373 0 2.485-2.281 4.143-4.506 4.652-.01 2.365-3.601 2.362-3.607-.003-1.265-.292-2.365-.882-3.16-1.664-.834-.824-1.327-1.859-1.327-2.985 0-2.093 3.588-2.093 3.588 0 0 .626.396 1.142.899 1.476v-3.968c-2.037-.659-4.503-1.898-4.503-4.373 0-2.485 2.281-4.143 4.503-4.652.01-2.365 3.601-2.362 3.607.003zm-3.066.007v.431c-2.112.419-4.506 1.771-4.506 4.211 0 2.346 2.628 3.397 4.506 3.977v5.243c-1.015-.464-1.979-1.09-1.979-2.355 0-1.382-2.511-1.382-2.511 0 0 .976.435 1.878 1.168 2.599.931.921 2.06 1.359 3.322 1.609v.435c0 1.664 2.527 1.664 2.527 0v-.431c2.118-.422 4.503-1.775 4.503-4.211 0-2.368-2.621-3.387-4.503-3.981v-5.239c1.019.464 1.989 1.09 1.989 2.362 0 1.346 2.508 1.402 2.508 0 0-2.436-2.381-3.792-4.496-4.214v-.435c0-1.664-2.527-1.664-2.527 0z"/></symbol><symbol id="logo" viewBox="0 0 91 32"><path fill="#111518" style="fill:var(--color1,#111518)" d="M13.608 4.836v12.942H9.947v-5.047H4.955v5.047H1.294V4.836h3.661v4.863h4.992V4.836h3.661zm13.398 7.95c0 .025-.018.314-.055.869h-7.285c.148.518.431.918.851 1.202.431.271.968.407 1.609.407.481 0 .894-.068 1.239-.203a3.63 3.63 0 0 0 1.072-.666l1.849 1.923c-.974 1.085-2.397 1.627-4.271 1.627-1.171 0-2.2-.222-3.088-.666s-1.578-1.06-2.071-1.849c-.481-.789-.721-1.683-.721-2.681 0-.986.234-1.867.703-2.644.481-.789 1.14-1.405 1.978-1.849s1.781-.666 2.829-.666c.998 0 1.904.21 2.718.629a4.58 4.58 0 0 1 1.923 1.793c.481.777.721 1.701.721 2.773zm-5.343-2.7c-.542 0-.998.154-1.368.462-.357.308-.586.727-.684 1.257h4.105c-.099-.53-.333-.949-.703-1.257-.357-.308-.807-.462-1.35-.462zm7.702-6.027h3.513v13.719h-3.513V4.059zm6.536 0h3.513v13.719h-3.513V4.059z"/><path fill="#ff6b09" style="fill:var(--color2,#ff6b09)" d="M4.625 26.596h.922v3.982h-.922v-3.982zm-1.809 3.982h-.922v-3.982h.922v3.982zm1.877-1.633H2.747v-.779h1.946v.779zM8.36 28.2h1.917v.717H8.36V28.2zm.069 1.638h2.167v.74H7.513v-3.982h3.009v.74H8.428v2.503zm3.925.74v-3.982h.922v3.231h1.997v.751h-2.918zm4.457 0v-3.982h.922v3.231h1.997v.751h-2.918zm4.457 0v-3.982h.922v3.982h-.922zm4.199.068c-.319 0-.624-.042-.916-.125a2.163 2.163 0 0 1-.705-.336l.313-.694a2.298 2.298 0 0 0 1.314.416c.182 0 .328-.017.438-.051.114-.038.197-.089.25-.154s.08-.138.08-.222a.292.292 0 0 0-.125-.25.965.965 0 0 0-.33-.154 4.866 4.866 0 0 0-.455-.114 6.128 6.128 0 0 1-.495-.137c-.163-.053-.313-.121-.449-.205s-.248-.193-.336-.33a.986.986 0 0 1-.125-.523c0-.228.061-.434.182-.62.125-.19.311-.339.558-.449.25-.114.563-.171.939-.171.25 0 .497.03.74.091.243.057.457.144.643.262l-.284.7a2.325 2.325 0 0 0-.558-.233c-.186-.053-.368-.08-.546-.08s-.324.021-.438.063-.195.097-.245.165a.365.365 0 0 0-.074.228c0 .102.042.186.125.25.083.061.193.11.33.148s.286.076.449.114a7.5 7.5 0 0 1 .495.131c.167.049.319.116.455.199s.246.193.33.33a.948.948 0 0 1 .131.518c0 .224-.063.429-.188.614s-.313.336-.563.449c-.247.114-.559.171-.939.171zm6.074-4.05h.922v3.982h-.922v-3.982zm-1.809 3.982h-.922v-3.982h.922v3.982zm1.878-1.633h-1.946v-.779h1.946v.779z"/><path fill="#111518" style="fill:var(--color1,#111518)" d="M37.912 28.2h1.917v.717h-1.917V28.2zm.068 1.638h2.167v.74h-3.083v-3.982h3.009v.74H37.98v2.503zm3.925.74v-3.982h.762l2.349 2.867h-.37v-2.867h.91v3.982h-.757l-2.355-2.867h.37v2.867h-.91zm7.541.068c-.315 0-.605-.049-.87-.148a2.117 2.117 0 0 1-.688-.432 2.04 2.04 0 0 1-.455-.654c-.106-.25-.159-.525-.159-.825s.053-.575.159-.825a1.997 1.997 0 0 1 1.155-1.081c.266-.102.557-.154.876-.154.353 0 .669.059.95.176.284.118.523.288.717.512l-.592.546a1.398 1.398 0 0 0-1.029-.45c-.193 0-.37.03-.529.091s-.298.148-.415.262a1.217 1.217 0 0 0-.267.404 1.409 1.409 0 0 0-.091.518c0 .186.03.356.091.512.065.156.154.292.267.41.118.114.254.201.41.262.159.061.334.091.523.091.182 0 .358-.028.529-.085.175-.061.343-.161.506-.302l.523.666a2.384 2.384 0 0 1-.757.375 2.903 2.903 0 0 1-.853.131zm.768-.626v-1.496h.842v1.616l-.842-.119zm2.722.558v-3.982h.922v3.231h1.997v.751h-2.918zm4.458 0v-3.982h.922v3.982h-.922zm4.199.068c-.319 0-.624-.042-.916-.125a2.163 2.163 0 0 1-.705-.336l.313-.694a2.298 2.298 0 0 0 1.314.416c.182 0 .328-.017.438-.051.114-.038.197-.089.25-.154s.08-.138.08-.222a.292.292 0 0 0-.125-.25.956.956 0 0 0-.33-.154 4.866 4.866 0 0 0-.455-.114 6.128 6.128 0 0 1-.495-.137c-.163-.053-.313-.121-.449-.205s-.248-.193-.336-.33a.995.995 0 0 1-.125-.523c0-.228.061-.434.182-.62.125-.19.311-.339.557-.449.25-.114.563-.171.939-.171.25 0 .497.03.74.091.243.057.457.144.643.262l-.284.7a2.336 2.336 0 0 0-1.103-.313c-.178 0-.324.021-.438.063s-.195.097-.245.165a.365.365 0 0 0-.074.228c0 .102.042.186.125.25.084.061.193.11.33.148s.286.076.449.114a7.5 7.5 0 0 1 .495.131c.167.049.319.116.455.199s.247.193.33.33a.948.948 0 0 1 .131.518c0 .224-.063.429-.188.614s-.313.336-.563.449c-.246.114-.559.171-.939.171zm6.074-4.05h.922v3.982h-.922v-3.982zm-1.809 3.982h-.922v-3.982h.922v3.982zm1.877-1.633h-1.946v-.779h1.946v.779zM67.237 9.846h6.009v2.736h-6.009V9.846zm.259 5.103h6.767v2.829H63.872V4.836h10.15v2.829h-6.527v7.285zm9.538 2.829V4.836h3.014l7.137 8.616h-1.424V4.836h3.587v12.942h-3.014l-7.137-8.616h1.424v8.616h-3.587z"/><path fill="#ff6b09" style="fill:var(--color2,#ff6b09)" d="M58.695 11.062c-.189-.423-.45-.84-.831-1.322-.962-1.209-1.255-3.905-1.258-3.931a.326.326 0 0 0-.225-.275.33.33 0 0 0-.345.094c-1.147 1.283-.665 3.265-.404 4.057.072.217.15.472.205.731.424 2.091-.394 3.038-.587 3.229-.186.052-.313.026-.43-.1-.404-.443-.538-1.894-.349-3.785a3.89 3.89 0 0 0-.026-1.054c-.399-2.324-1.86-3.815-2.233-4.338C51.189 2.855 51.084.337 51.081.315a.324.324 0 0 0-.508-.255c-1.708 1.16-1.561 3.956-1.323 5.518.055.362.163.731.349 1.196.662 1.665-.13 3.814-.137 3.834s-.013.036-.016.055c-.101.53-.271.847-.46.847a.205.205 0 0 1-.062-.01c-.231-.049-.352-.294-.355-.507-.013-2.757-2.78-3.685-2.809-3.695a.323.323 0 0 0-.345.097.32.32 0 0 0-.046.356c.033.068.137.365.065 1.416a12.072 12.072 0 0 1-.512 2.773 13.547 13.547 0 0 0-.548 4.276c.506 5.505 8.423 6.469 13.122 3.368a4.742 4.742 0 0 0 1.245-1.154c1.734-2.392.714-5.64-.046-7.366zm-12.043 5.259a.322.322 0 0 1-.306.339h-.02a.325.325 0 0 1-.326-.304c-.029-.472-.023-.966.013-1.503a.326.326 0 0 1 .652.045c-.036.511-.042.976-.013 1.422zm.16-2.864a.323.323 0 0 1-.323.284c-.013 0-.026 0-.042-.003a.327.327 0 0 1-.284-.359l.156-1.248a.328.328 0 0 1 .365-.281.326.326 0 0 1 .284.362l-.156 1.245zM56.49 4.422a.322.322 0 0 1-.272-.368c.02-.131.138-.804.458-1.142.123-.13.329-.137.461-.015s.138.327.015.457c-.135.143-.25.553-.289.798a.326.326 0 0 1-.372.27zM44.608 6.032c-.062-.24-.217-.637-.366-.766-.135-.118-.149-.322-.03-.456s.324-.148.46-.03c.351.305.535.963.568 1.092a.322.322 0 0 1-.235.393.327.327 0 0 1-.397-.232z"/></symbol><symbol id="logo-wht" viewBox="0 0 85 32"><path fill="#fff" style="fill:var(--color1,#fff)" d="M11.933 4.825v12.913H8.385v-5.036H3.547v5.036H-.001V4.825h3.548v4.851h4.838V4.825h3.548zM24.918 12.757c0 .025-.018.314-.054.867h-7.06c.143.516.418.916.824 1.199.418.271.938.406 1.559.406.466 0 .866-.068 1.2-.203a3.513 3.513 0 0 0 1.039-.664l1.792 1.919c-.944 1.082-2.323 1.623-4.139 1.623-1.135 0-2.132-.221-2.992-.664s-1.529-1.058-2.007-1.845c-.466-.787-.699-1.679-.699-2.675 0-.984.227-1.863.681-2.638.466-.787 1.105-1.402 1.917-1.845s1.726-.664 2.741-.664c.968 0 1.846.209 2.634.627a4.482 4.482 0 0 1 1.863 1.789c.466.775.699 1.697.699 2.767zm-5.179-2.693c-.526 0-.968.154-1.326.461-.346.307-.567.726-.663 1.254h3.978c-.096-.529-.323-.947-.681-1.254-.346-.307-.782-.461-1.308-.461zM27.204 4.05h3.404v13.688h-3.404V4.05zM33.538 4.05h3.404v13.688h-3.404V4.05z"/><path fill="#ff6b09" style="fill:var(--color2,#ff6b09)" d="M3.003 27.011h.864v3.733h-.864v-3.733zm-1.696 3.733H.443v-3.733h.864v3.733zm1.76-1.53H1.243v-.731h1.824v.731zm3.438-.699h1.797v.672H6.505v-.672zm.064 1.536h2.032v.693H5.71v-3.733h2.821v.693H6.568v2.347zm3.679.693v-3.733h.864v3.029h1.872v.704h-2.736zm4.179 0v-3.733h.864v3.029h1.872v.704h-2.736zm4.179 0v-3.733h.864v3.733h-.864zm3.936.064a3.12 3.12 0 0 1-.859-.117 2.045 2.045 0 0 1-.661-.315l.293-.651a2.164 2.164 0 0 0 1.232.39c.171 0 .308-.016.411-.048.107-.036.185-.084.235-.144s.075-.13.075-.208c0-.1-.039-.178-.117-.235a.906.906 0 0 0-.309-.144 4.66 4.66 0 0 0-.427-.107 6.083 6.083 0 0 1-.464-.128c-.153-.05-.293-.114-.421-.192s-.233-.181-.315-.309a.932.932 0 0 1-.117-.491c0-.213.057-.407.171-.581.117-.178.292-.318.523-.421.235-.107.528-.16.88-.16.235 0 .466.028.693.085.228.053.428.135.603.245l-.267.656a2.183 2.183 0 0 0-1.035-.294c-.167 0-.304.02-.411.059a.47.47 0 0 0-.229.155.342.342 0 0 0-.069.213c0 .096.039.174.117.235.078.057.181.103.309.139s.268.071.421.107c.156.036.311.076.464.123.156.046.299.108.427.187s.231.181.309.309c.082.128.123.29.123.485 0 .21-.059.402-.176.576s-.293.315-.528.421c-.231.107-.524.16-.88.16zm5.695-3.797h.864v3.733h-.864v-3.733zm-1.696 3.733h-.864v-3.733h.864v3.733zm1.76-1.53h-1.824v-.731h1.824v.731z"/><path fill="#fff" style="fill:var(--color1,#fff)" d="M34.209 28.515h1.797v.672h-1.797v-.672zm.064 1.536h2.032v.693h-2.891v-3.733h2.821v.693h-1.963v2.347zm3.679.693v-3.733h.715l2.203 2.688h-.347v-2.688h.853v3.733h-.709l-2.208-2.688h.347v2.688h-.853zm7.07.064c-.295 0-.567-.046-.816-.139a1.992 1.992 0 0 1-.645-.405 1.91 1.91 0 0 1-.427-.613c-.1-.235-.149-.492-.149-.773s.05-.539.149-.773c.103-.235.247-.439.432-.613s.402-.308.651-.4c.249-.096.523-.144.821-.144.331 0 .628.055.891.165.267.11.491.27.672.48l-.555.512a1.33 1.33 0 0 0-.443-.315 1.274 1.274 0 0 0-.523-.107c-.181 0-.347.028-.496.085s-.279.139-.389.245c-.107.107-.19.233-.251.379a1.324 1.324 0 0 0-.085.485c0 .174.028.334.085.48a1.2 1.2 0 0 0 .251.384c.11.107.238.188.384.245.149.057.313.085.491.085.171 0 .336-.027.496-.08.164-.057.322-.151.475-.283l.491.624c-.203.153-.439.27-.709.352a2.71 2.71 0 0 1-.8.123zm.72-.586v-1.403h.789v1.515l-.789-.112zm2.552.522v-3.733h.864v3.029h1.872v.704h-2.736zm4.179 0v-3.733h.864v3.733h-.864zm3.937.064a3.12 3.12 0 0 1-.859-.117 2.045 2.045 0 0 1-.661-.315l.293-.651a2.164 2.164 0 0 0 1.232.39c.171 0 .308-.016.411-.048.107-.036.185-.084.235-.144s.075-.13.075-.208c0-.1-.039-.178-.117-.235a.906.906 0 0 0-.309-.144 4.66 4.66 0 0 0-.427-.107 6.083 6.083 0 0 1-.464-.128c-.153-.05-.293-.114-.421-.192s-.233-.181-.315-.309a.932.932 0 0 1-.117-.491c0-.213.057-.407.171-.581.117-.178.292-.318.523-.421.235-.107.528-.16.88-.16.235 0 .466.028.693.085.228.053.428.135.603.245l-.267.656a2.183 2.183 0 0 0-1.035-.294c-.167 0-.304.02-.411.059a.47.47 0 0 0-.229.155.342.342 0 0 0-.069.213c0 .096.039.174.117.235.078.057.181.103.309.139s.268.071.421.107c.156.036.311.076.464.123.156.046.299.108.427.187s.231.181.309.309c.082.128.123.29.123.485 0 .21-.059.402-.176.576s-.293.315-.528.421c-.231.107-.524.16-.88.16zm5.694-3.797h.864v3.733h-.864v-3.733zm-1.696 3.733h-.864v-3.733h.864v3.733zm1.76-1.53h-1.824v-.731h1.824v.731zM70.715 14.915v2.822h-10.07V4.824h9.837v2.822h-6.325v2.177h5.572v2.73h-5.572v2.361h6.558zM85.333 4.824v12.913h-2.921l-5.537-6.881v6.881h-3.476V4.824h2.921l5.537 6.881V4.824h3.476z"/><path fill="#ff6b09" style="fill:var(--color2,#ff6b09)" d="M55.628 11.037c-.183-.423-.436-.839-.805-1.319-.932-1.206-1.216-3.896-1.219-3.922a.323.323 0 0 0-.218-.274.314.314 0 0 0-.335.094c-1.112 1.28-.644 3.257-.392 4.047.069.216.145.471.199.729.411 2.087-.382 3.031-.569 3.222-.18.052-.303.026-.417-.1-.392-.442-.521-1.89-.338-3.776a3.995 3.995 0 0 0-.025-1.051c-.386-2.319-1.803-3.806-2.164-4.328C48.353 2.85 48.252.337 48.249.315a.316.316 0 0 0-.174-.277.306.306 0 0 0-.319.023c-1.655 1.158-1.513 3.947-1.282 5.505.054.361.158.729.338 1.193.641 1.661-.126 3.805-.133 3.825s-.013.035-.016.055c-.098.529-.262.845-.445.845a.193.193 0 0 1-.06-.01c-.224-.048-.341-.293-.344-.506-.013-2.751-2.694-3.676-2.723-3.686a.308.308 0 0 0-.335.097.325.325 0 0 0-.044.355c.032.068.133.364.063 1.413-.06.942-.227 1.874-.496 2.767a13.88 13.88 0 0 0-.531 4.267c.491 5.492 8.163 6.455 12.716 3.36a4.672 4.672 0 0 0 1.206-1.151c1.68-2.386.692-5.628-.044-7.35zm-11.671 5.247a.32.32 0 0 1-.297.339h-.019a.319.319 0 0 1-.316-.303c-.028-.471-.022-.964.013-1.5a.322.322 0 0 1 .338-.3.323.323 0 0 1 .294.345c-.035.51-.041.974-.013 1.419zm.155-2.858a.317.317 0 0 1-.313.284c-.013 0-.025 0-.041-.003a.324.324 0 0 1-.275-.358l.152-1.245a.321.321 0 0 1 .354-.281.322.322 0 0 1 .275.361l-.152 1.242zM53.492 4.412a.322.322 0 0 1-.264-.368c.02-.131.134-.802.444-1.139.119-.13.319-.137.447-.015s.134.326.014.456c-.131.143-.243.552-.28.796a.317.317 0 0 1-.361.269zM41.976 6.018c-.06-.24-.211-.635-.355-.764-.131-.117-.144-.321-.029-.455s.314-.148.446-.03c.34.305.518.961.55 1.089a.323.323 0 0 1-.227.392.316.316 0 0 1-.385-.232z"/></symbol><symbol id="fire" viewBox="0 0 24 32"><path d="M22.474 16.593c-.271-.635-.645-1.261-1.192-1.983-1.379-1.813-1.8-5.857-1.805-5.896a.484.484 0 0 0-.323-.412.461.461 0 0 0-.496.141c-1.646 1.925-.954 4.897-.58 6.085.103.325.215.708.294 1.096.608 3.137-.566 4.558-.841 4.844-.267.078-.449.039-.617-.15-.58-.664-.772-2.841-.5-5.678a6.095 6.095 0 0 0-.037-1.581c-.572-3.486-2.669-5.722-3.202-6.507-1.468-2.269-1.618-6.046-1.622-6.08a.478.478 0 0 0-.257-.417.448.448 0 0 0-.472.034C8.374 1.83 8.585 6.024 8.926 8.365c.079.543.234 1.096.5 1.794.949 2.497-.187 5.721-.196 5.75s-.019.053-.023.082c-.145.795-.388 1.27-.659 1.27a.302.302 0 0 1-.089-.015c-.332-.073-.505-.441-.51-.761-.019-4.136-3.988-5.527-4.03-5.542a.454.454 0 0 0-.496.145.492.492 0 0 0-.065.533c.047.102.196.548.094 2.124a18.882 18.882 0 0 1-.734 4.16c-.944 3.219-.795 6.269-.785 6.415.726 8.257 12.082 9.704 18.822 5.052.739-.509 1.342-1.091 1.786-1.731 2.487-3.588 1.024-8.46-.065-11.05zM5.199 24.481a.476.476 0 0 1-.439.509h-.028a.475.475 0 0 1-.468-.456 18.19 18.19 0 0 1 .019-2.255.48.48 0 0 1 .5-.451.482.482 0 0 1 .435.519 16.46 16.46 0 0 0-.019 2.133zm.229-4.296a.472.472 0 0 1-.463.427c-.019 0-.037 0-.061-.005a.486.486 0 0 1-.407-.538l.224-1.872a.477.477 0 0 1 .524-.422.483.483 0 0 1 .407.543l-.224 1.867zM19.312 6.633a.483.483 0 0 1-.391-.553c.029-.197.198-1.205.656-1.713.176-.196.472-.206.661-.022s.198.49.021.685c-.194.215-.359.829-.415 1.197a.471.471 0 0 1-.534.405zM2.267 9.048c-.09-.361-.312-.955-.525-1.149-.194-.177-.214-.483-.043-.684s.465-.222.66-.045c.504.458.767 1.445.815 1.638a.487.487 0 0 1-.336.59.466.466 0 0 1-.569-.349z"/></symbol><symbol id="phone" viewBox="0 0 32 32"><path d="M4.657.003a1.969 1.969 0 0 0-1.392.678L.67 3.65c.004-.009-.01-.008-.084.101a.656.656 0 0 0-.09.184C-.56 7.437.148 11.289 1.872 14.953S6.347 22.123 9.505 25c3.158 2.877 6.721 5.128 10.119 6.244s6.692 1.102 9.133-.742a.536.536 0 0 0 .075-.068c.064-.067.066-.075.056-.065l.01-.013L31.48 27.4c.742-.849.682-2.184-.134-2.956l-6.126-5.799a1.965 1.965 0 0 0-2.84.138l-2.772 3.173c-2.25-.678-4.173-1.828-6.023-3.58s-3.132-3.637-3.993-5.905l2.771-3.173c.742-.849.683-2.184-.133-2.956L6.104.542A1.962 1.962 0 0 0 4.656.003h-.001zm.058 1.301c.19-.009.383.06.541.209l6.126 5.8a.788.788 0 0 1 .05 1.104l-3.063 3.504a.667.667 0 0 0-.124.665c.93 2.641 2.429 4.807 4.493 6.761s4.275 3.304 6.889 4.018a.612.612 0 0 0 .626-.193l3.064-3.505a.716.716 0 0 1 1.06-.051l6.127 5.8a.786.786 0 0 1 .049 1.103l-2.561 2.93c-2.003 1.497-4.826 1.581-7.986.542-3.173-1.043-6.617-3.202-9.666-5.98s-5.702-6.169-7.332-9.633C1.394 10.949.809 7.483 1.696 4.428l2.502-2.862a.736.736 0 0 1 .52-.261z"/></symbol><symbol id="support" viewBox="0 0 32 32"><path d="M1.979 12.558v2.831c0 .152.069.295.188.39a10.97 10.97 0 0 0 6.788 2.362c.735 0 1.471-.077 2.19-.224A11.85 11.85 0 0 0 16 18.949c1.695 0 3.327-.349 4.855-1.032 3.069.624 6.338-.046 8.977-2.138a.497.497 0 0 0 .188-.39v-2.831c0-.416-.205-.794-.571-1.027L25.61 9.355c.84-1.073 1.466-2.602 1.574-3.913.319-2.256-1.507-4.646-4.136-4.646a4.162 4.162 0 0 0-2.927 1.227c-.027.027-.057.049-.083.076-.024.025-.043.054-.066.08l-.044.053C19.177.852 17.733 0 16.032 0c-.165 0-.328.011-.488.028-.01-.001-.018-.006-.028-.006-.091 0-.285.024-.388.054-.015.004-.026.015-.041.021a4.453 4.453 0 0 0-2.991 2.156A4.134 4.134 0 0 0 8.94.796c-3.88 0-5.601 4.612-2.539 8.581l-3.875 2.167a1.193 1.193 0 0 0-.549 1.014zm18.867 4.27c-.083.041-.166.085-.25.123l-.002.001A10.862 10.862 0 0 1 16 17.958c-1.602 0-3.148-.338-4.596-1.007a10.876 10.876 0 0 1-2.03-1.221v-2.87c0-.098.047-.184.101-.221l4.509-2.524c.561.48 1.278.832 2.02.832.715 0 1.488-.357 2.038-.843l4.455 2.52a.277.277 0 0 1 .129.237v2.87c-.567.429-1.164.795-1.781 1.098zm8.099-4.446a.203.203 0 0 1 .091.176v2.587a9.864 9.864 0 0 1-6.688 1.98c.367-.23.766-.516 1.075-.76a.497.497 0 0 0 .188-.39v-3.114c0-.435-.217-.835-.606-1.087l-2.366-1.339.575-.321c.698.573 1.297.744 1.835.744.658 0 1.35-.325 1.864-.759l4.031 2.284zM23.05 1.788c1.371 0 2.574.902 3 2.142a3.665 3.665 0 0 1-2.221-1.142.489.489 0 0 0-.783.084 3.657 3.657 0 0 1-2.529 1.76v-.003a4.95 4.95 0 0 0-.032-.653l-.007-.067a5.536 5.536 0 0 0-.121-.609c.559-.902 1.598-1.513 2.694-1.513zm-2.641 3.856a4.603 4.603 0 0 0 3.142-1.762 4.634 4.634 0 0 0 2.682 1.056c-.007 1.792-1.461 4.927-3.183 4.927-1.328 0-2.461-1.912-2.885-3.238.108-.341.186-.669.244-.983zm.1 3.729-.88.491-.888-.502c.329-.413.631-.893.89-1.413.249.526.546 1.01.878 1.425zm-1.327-2.908c-.475 1.427-1.693 3.49-3.176 3.49-1.73 0-3.203-2.864-3.483-4.696.075-.019 2.412.126 4.02-2.001.816.688 1.918 1.143 2.989 1.188.013.647-.143 1.406-.35 2.018zM16.034.992c2.76 0 3.285 2.392 3.328 2.442a4.085 4.085 0 0 1-2.545-1.276.491.491 0 0 0-.784.087 4.048 4.048 0 0 1-3.555 2.022c.135-1.822 1.585-3.274 3.555-3.274zm-3.662 6.946a7.91 7.91 0 0 0 .906 1.438l-.869.487-.9-.51c.341-.438.631-.929.863-1.415zm-3.43-6.15c1.117 0 2.14.571 2.71 1.514-.029.1-.106.498-.116.548a3.646 3.646 0 0 1-1.808-1.062.49.49 0 0 0-.783.086 3.68 3.68 0 0 1-3.154 1.815c.157-1.627 1.507-2.9 3.151-2.9zm-3.108 3.89A4.663 4.663 0 0 0 9.45 3.882a4.578 4.578 0 0 0 2.041.961c.029.575.178 1.273.348 1.789-.272.84-.793 1.841-1.44 2.505l-.014.01c-.405.43-.981.719-1.434.719-1.583 0-2.82-2.508-3.117-4.188zm-2.87 6.88c0-.075.033-.139.067-.162l4.086-2.284c.245.206.302.229.351.265.481.322.922.482 1.523.482.64 0 1.223-.273 1.737-.694.029-.023.06-.045.087-.068l.583.33-2.429 1.361c-.363.236-.58.636-.58 1.071v3.114c0 .152.069.296.188.39.314.249.722.539 1.075.761a9.903 9.903 0 0 1-6.689-1.98v-2.587z"/><path d="M31.034 20.781a2.036 2.036 0 0 0-1.993-.11l-6.076 2.956a2.102 2.102 0 0 0-2.092-2.071l-3.484.001c-1.718-1.504-3.913-2.425-5.909-2.473-1.968-.047-3.735-.06-4.56-.064v-1.002H-.002v11.517H6.92v-1.379c1.898 1.097 6.889 3.845 9.258 3.845.054 0 .106-.001.157-.004 4.165-.235 13.989-7.198 14.637-7.661a2.08 2.08 0 0 0 1.026-1.796c0-.719-.361-1.376-.966-1.758zM5.937 28.542H.985v-9.533h4.952v9.533zm24.53-5.058a.296.296 0 0 0-.044.028c-.101.073-10.207 7.271-14.142 7.494a2.315 2.315 0 0 1-.12.003c-2.077 0-7.143-2.753-9.24-4.001v-6.997c.821.004 2.578.017 4.536.064 1.824.044 3.848.921 5.416 2.346l.14.128 3.86-.001c.612 0 1.111.502 1.111 1.119s-.498 1.119-1.111 1.119h-7.091v.992h7.091c.68 0 1.278-.333 1.662-.839l6.934-3.373c.34-.167.72-.146 1.041.057s.504.537.504.918c0 .391-.21.753-.549.945zM16.492 12.159h-.985v.92h.985v-.92zm0 1.833h-.985v.92h.985v-.92zm0 1.834h-.985v.92h.985v-.92z"/></symbol><symbol id="teach" viewBox="0 0 27 32"><path d="M.059 31.693h27.355c.136-3.12-.088-8.295-2.006-10.759l-.069-.088-4.191-2.104c.091-.307.136-.588.154-.795a1.449 1.449 0 0 0-.102-.692c-.691-1.655-2.155-2.525-2.959-2.896a5.158 5.158 0 0 0 .48-1.567c.456-.128.822-.489.942-.971l.489-1.987a1.343 1.343 0 0 0-.154-1.023 1.346 1.346 0 0 0-.3-.341c1.379-3.133-.931-6.087-1.057-6.243C16.139-.478 12.979.028 12.812.058c-4.561.955-6.321 4.451-5.328 8.55-.294.326-.418.78-.309 1.226l.492 1.99c.119.478.483.838.935.968.139.993.56 1.89 1.177 2.614v1.576c-6.545 3.352-2.398 1.213-7.643 3.867-.01.049-2.461 2.654-2.097 10.375l.022.472zm26.404-.99h-4.502v-1.891l2.978-6.816c1.492 2.476 1.547 7.203 1.524 8.708zm-6.144-12.841c-.174 1.996-1.268 1.393-1.944 2.93-.531-.584-.691-1.285-.548-2.035.258-1.377-.583-1.786-.375-3.233l.031-.033v-.005c.018-.02.184-.217.232-.28 1.781.777 2.639 2.221 2.604 2.656zm-9.556-1.568a5.068 5.068 0 0 0 2.899.912 5.06 5.06 0 0 0 2.795-.836c.114 1.138.559 1.365.401 2.203a3.52 3.52 0 0 0-.055.459l-3.066 3.456-3.919-4.419.946-.494v-1.281zm-1.232-4.229V6.783c.477-.883 1.128-1.522 1.936-1.906 2.165 1.225 4.657 3.053 6.329 4.893-.002 2.343.007 2.35-.009 2.542l-.001.012c-.13 2.128-1.88 3.892-4.124 3.892-2.181 0-3.992-1.713-4.123-3.913a2.69 2.69 0 0 1-.008-.238zm-.611 6.482 4.816 5.43 3.234-3.644c.074.213.178.414.296.608l-3.53 4.414-5.264-6.583.447-.224zm9.862-7.279v-1.53l.368-.421c.02.775.104-.14-.368 1.951zM12.993 1.029c.196.012 2.824-.4 4.901 1.843.082.103 1.773 2.281 1.093 4.665-.233-1.061-.638-2.42-1.278-3.068l-.7.697c.632.641 1.048 2.591 1.206 3.602-2.901-3.035-6.643-4.957-6.694-4.989-.188.117-1.771.418-2.921 2.653l-.055.107v1.642l-.145.002c-.731-3.528.669-6.33 4.593-7.153zM8.296 9.201l.249 1.008v1.06l-.414-1.674c-.061-.25.124-.344.165-.394zm-.725 10.023 6.166 7.712 4.172-5.218c.454.406.672.464 1.634.959l-.325-1.101c-.082-.279.244-.728.441-.934.44-.238.806-.579 1.08-.998l3.404 1.709-3.167 7.251v2.099H6.499v-2.099l-3.169-7.25 4.242-2.129zm-5.037 2.773 2.978 6.815v1.891H1.01c-.023-1.504.033-6.229 1.524-8.706z"/></symbol><symbol id="menu" viewBox="0 0 32 32"><path d="M6.4 11.733V9.6h19.2v2.133H6.4zm0 5.334h19.2v-2.133H6.4v2.133zm0 5.333h19.2v-2.133H6.4V22.4z"/></symbol><symbol id="menuclose" viewBox="0 0 32 32"><path d="M23.733 10.304 22.229 8.8l-5.963 5.963L10.303 8.8l-1.504 1.504 5.963 5.963-5.963 5.963 1.504 1.504 5.963-5.963 5.963 5.963 1.504-1.504-5.963-5.963 5.963-5.963z"/></symbol><symbol id="facebook" viewBox="0 0 31 32"><path fill="#436eab" style="fill:var(--color1,#436eab)" d="M27.65.549H3.318c-.88 0-1.724.347-2.346.963S0 2.965 0 3.838v24.12c0 .872.35 1.709.972 2.326s1.466.963 2.346.963h9.487V20.81H8.45v-4.912h4.355v-3.744c0-4.259 2.558-6.611 6.475-6.611 1.876 0 3.838.332 3.838.332v4.18h-2.161c-2.13 0-2.794 1.31-2.794 2.654v3.19h4.754l-.76 4.912h-3.994v10.437h9.487c.88 0 1.724-.347 2.346-.963s.972-1.453.972-2.326V3.839c0-.872-.35-1.709-.972-2.326S28.53.55 27.65.55z"/></symbol><symbol id="icon-close" viewBox="0 0 32 32"><path d="m26.667 7.303-1.97-1.97-7.808 7.808-7.808-7.808-1.97 1.97 7.808 7.808-7.808 7.808 1.97 1.97 7.808-7.808 7.808 7.808 1.97-1.97-7.808-7.808 7.808-7.808z"/></symbol><symbol id="icon-arrow-up" viewBox="0 0 32 32"><path d="m27.414 12.586-10-10a2 2 0 0 0-2.828 0l-10 10a2 2 0 1 0 2.828 2.828L14 8.828V28a2 2 0 1 0 4 0V8.828l6.586 6.586c.39.39.902.586 1.414.586s1.024-.195 1.414-.586a2 2 0 0 0 0-2.828z"/></symbol></defs></svg>