<svg version="1.0" xmlns="http://www.w3.org/2000/svg" width="880" height="880" viewBox="0 0 660 660"><path d="M290.5 3.2c-21.4 17.5-33.9 45.9-38.2 87.2-1.5 13.9-.7 56.2 1.2 69.1.3 1.6.7 5 1 7.5 1 8.7 1.5 11.6 3.5 19.5 1.2 4.4 2.5 9.8 3.1 12 .6 2.1 1.5 4.5 2.1 5.2.6.7.8 1.3.5 1.3-.4 0 .5 2.8 1.7 6.3 1.3 3.4 2.6 7.6 2.9 9.2.3 1.7 1 5.1 1.6 7.7 2.7 11.8 3.1 43.4.7 56.3-.3 1.8-1.1 6.5-2.2 14-1.1 7-10.7 44.4-12.5 48.5-3.8 8.6-7.4 10.6-13 7.3-5-3-6.3-6.9-7.4-22.8-2.9-42.6-26.5-78.1-66-99.6-11.5-6.3-14.9-7.4-18.6-5.9-4.9 2.1-7.4 9.3-4.9 14.1 3.4 6.2 3.1 38.2-.5 67.8-2.8 22.8-5.8 37.9-12.1 61.1-4.3 15.9-9 39-11 53.6-.3 2.7-.8 5.6-.9 6.5-.2.9-.6 5.2-1 9.5-.3 4.3-.8 9.2-1 10.9-2.2 16.7-2.1 55.4.1 65.9.3 1.2.6 3.2.9 4.6 2.8 18.5 12.7 43.4 23.5 59.6 18.5 27.6 45.9 49.6 78 62.4 3 1.2 6.6 2.6 8 3.2 7.7 3.1 26.4 8.3 33 9.3 2.4.4 4.7.8 5 1 .4.2 2.9.7 5.6 1 2.7.3 5.9.8 7 1 9 1.9 49.4 2.7 62.9 1.2 3.9-.4 9-1 11.5-1.2 2.4-.3 5.6-.8 7-1 1.4-.3 4.1-.8 6-1.1 51.5-8.4 109.3-36.2 138.5-66.6 9.4-9.7 14.6-16.5 20.5-26.7 4.2-7.3 12.6-26.3 13.4-30.4.3-1.2.9-3.7 1.5-5.6 1.9-6.3 5-22.6 5.8-30.6 1.4-14.4.6-55.6-1.2-58.5-.2-.3-.6-3-1-6-.5-4.4-3.7-21.6-4.9-26.5-.2-.6-.6-2.4-1-4-5.1-21.5-16.2-53.6-23.7-68.9-5.5-11-7.8-14.8-16.2-26.8-7.3-10.4-15.5-27.1-20.1-40.9-4.2-12.9-11.2-40.5-12.1-47.9-.1-.8-.5-2.9-.9-4.5-.7-3.3-.8-3.7-3-20.4-.9-6.3-1.6-12.1-1.6-12.9 0-2.8-5.7-7.2-9.2-7.2-3.9 0-6.2 1.9-10.8 8.4-10.4 15.3-16.1 35.7-16.3 59.1-.2 21.2 1.8 34.5 9.4 62.8 7.1 26.6 8.6 37.3 8.3 59.1-.1 7.7-.5 15.2-.9 16.6-.3 1.4-.8 4.2-1.1 6.3-1.2 9.4-7.1 23.9-13.8 33.9-3.4 5.3-7 6.7-11.8 4.9-4-1.5-9.5-11-11.3-19.5-.2-1.2-.6-3.2-.9-4.6-.6-2.4-1-4.9-2.1-11.5-2.3-14.1-2.2-66.2.1-79 .9-5.3 1.1-27 .3-33.3-1.3-9-3.6-20.9-6.3-31.7-1.3-5.1-2-7.1-2.7-8-.4-.6-.7-1.2-.7-1.5.3-4.6-13.4-35.8-23.3-53-3.9-6.7-15.1-23.5-23.5-35.1-7.4-10.3-12.1-18.4-15.3-25.9-1.3-3-2.9-6.9-3.6-8.5-.8-1.7-2.8-7.5-4.5-13-1.7-5.5-3.5-11.2-4-12.8-.5-1.5-.7-2.7-.5-2.7.3 0 0-1.1-.5-2.6-.6-1.4-1.2-3.9-1.5-5.7-.3-1.8-1-4.8-1.5-6.7-.5-1.9-1.1-4.9-1.3-6.5-.3-1.7-1-5.9-1.5-9.5-.6-3.6-1.4-8.9-1.7-11.9-.4-3-.8-6.3-1-7.3-.2-1.1-.7-6.3-1.1-11.6-.4-5.3-.8-10.4-1-11.2-.1-.8-.3-2-.4-2.5-.2-2.6-4.3-5.8-7.8-6.1-3-.3-4.4.2-7.7 2.8zM188.6 370.3c2.5 2.9 2.6 3.5 2 10.7-.4 4.1-.9 8.4-1.1 9.5-.3 1.1-.7 4.7-1 8-1.8 19.6-2 20.8-5.2 23.9-6.4 6.4-15.5.7-14.8-9.4.3-4 2.4-22.3 4-35 .8-6.1 2.4-9.1 5.8-10.5 4-1.7 7.3-.8 10.3 2.8zM176.4 451c4.9 1.8 6 5.1 5.6 16.8-.2 5.9-.3 17.2-.2 25.2.2 16.1-.5 19.1-4.9 21.3-3.8 1.8-7.2 1.1-10.3-1.9-3.2-3.2-3.4-5.2-3.1-30.9.1-18.5.4-22.6 1.9-25.6 2.4-5.1 6.1-6.8 11-4.9zM466.5 88.2c-2.9 1.6-4.1 3.4-7.9 11.3-4.2 8.6-8.1 25-7.2 29.9.5 2.3 1.7 4.3 3.8 5.7 5.7 4.1 13 0 14.3-8.1 1.5-9.2 4.2-17.1 7.9-23.3 2.3-3.8 2.7-5.4 2.1-8.3-1.2-6.8-7.6-10.3-13-7.2zM117.5 146c-3.1 1.2-5.5 4.4-6.1 8.1-.5 2.8.1 4.4 3.1 8.9 3.9 5.8 7.3 13.4 9.4 21.2 2.6 9.2 9.8 12.6 15.5 7.3 1.4-1.3 2.6-3 2.7-3.7 0-.7.2-2.2.4-3.2.2-1.1-.8-5.6-2.2-10-6.4-20.5-15.3-31.6-22.8-28.6z"/></svg>