<?xml version="1.0" standalone="no"?>
<!DOCTYPE svg PUBLIC "-//W3C//DTD SVG 20010904//EN"
 "http://www.w3.org/TR/2001/REC-SVG-20010904/DTD/svg10.dtd">
<svg version="1.0" xmlns="http://www.w3.org/2000/svg"
 width="660.000000pt" height="660.000000pt" viewBox="0 0 660.000000 660.000000"
 preserveAspectRatio="xMidYMid meet">
<metadata>
Created by potrace 1.14, written by Peter Selinger 2001-2017
</metadata>
<g transform="translate(0.000000,660.000000) scale(0.100000,-0.100000)"
fill="#000000" stroke="none">
<path d="M2905 6568 c-214 -175 -339 -459 -382 -872 -15 -139 -7 -562 12 -691
3 -16 7 -50 10 -75 10 -87 15 -116 35 -195 12 -44 25 -98 31 -120 6 -21 15
-45 21 -52 6 -7 8 -13 5 -13 -4 0 5 -28 17 -63 13 -34 26 -76 29 -92 3 -17 10
-51 16 -77 27 -118 31 -434 7 -563 -3 -18 -11 -65 -22 -140 -11 -70 -107 -444
-125 -485 -38 -86 -74 -106 -130 -73 -50 30 -63 69 -74 228 -29 426 -265 781
-660 996 -115 63 -149 74 -186 59 -49 -21 -74 -93 -49 -141 34 -62 31 -382 -5
-678 -28 -228 -58 -379 -121 -611 -43 -159 -90 -390 -110 -536 -3 -27 -8 -56
-9 -65 -2 -9 -6 -52 -10 -95 -3 -43 -8 -92 -10 -109 -22 -167 -21 -554 1 -659
3 -12 6 -32 9 -46 28 -185 127 -434 235 -596 185 -276 459 -496 780 -624 30
-12 66 -26 80 -32 77 -31 264 -83 330 -93 24 -4 47 -8 50 -10 4 -2 29 -7 56
-10 27 -3 59 -8 70 -10 90 -19 494 -27 629 -12 39 4 90 10 115 12 24 3 56 8
70 10 14 3 41 8 60 11 515 84 1093 362 1385 666 94 97 146 165 205 267 42 73
126 263 134 304 3 12 9 37 15 56 19 63 50 226 58 306 14 144 6 556 -12 585 -2
3 -6 30 -10 60 -5 44 -37 216 -49 265 -2 6 -6 24 -10 40 -51 215 -162 536
-237 689 -55 110 -78 148 -162 268 -73 104 -155 271 -201 409 -42 129 -112
405 -121 479 -1 8 -5 29 -9 45 -7 33 -8 37 -30 204 -9 63 -16 121 -16 129 0
28 -57 72 -92 72 -39 0 -62 -19 -108 -84 -104 -153 -161 -357 -163 -591 -2
-212 18 -345 94 -628 71 -266 86 -373 83 -591 -1 -77 -5 -152 -9 -166 -3 -14
-8 -42 -11 -63 -12 -94 -71 -239 -138 -339 -34 -53 -70 -67 -118 -49 -40 15
-95 110 -113 195 -2 12 -6 32 -9 46 -6 24 -10 49 -21 115 -23 141 -22 662 1
790 9 53 11 270 3 333 -13 90 -36 209 -63 317 -13 51 -20 71 -27 80 -4 6 -7
12 -7 15 3 46 -134 358 -233 530 -39 67 -151 235 -235 351 -74 103 -121 184
-153 259 -13 30 -29 69 -36 85 -8 17 -28 75 -45 130 -17 55 -35 112 -40 128
-5 15 -7 27 -5 27 3 0 0 11 -5 26 -6 14 -12 39 -15 57 -3 18 -10 48 -15 67 -5
19 -11 49 -13 65 -3 17 -10 59 -15 95 -6 36 -14 89 -17 119 -4 30 -8 63 -10
73 -2 11 -7 63 -11 116 -4 53 -8 104 -10 112 -1 8 -3 20 -4 25 -2 26 -43 58
-78 61 -30 3 -44 -2 -77 -28z m-1019 -3671 c25 -29 26 -35 20 -107 -4 -41 -9
-84 -11 -95 -3 -11 -7 -47 -10 -80 -18 -196 -20 -208 -52 -239 -64 -64 -155
-7 -148 94 3 40 24 223 40 350 8 61 24 91 58 105 40 17 73 8 103 -28z m-122
-807 c49 -18 60 -51 56 -168 -2 -59 -3 -172 -2 -252 2 -161 -5 -191 -49 -213
-38 -18 -72 -11 -103 19 -32 32 -34 52 -31 309 1 185 4 226 19 256 24 51 61
68 110 49z"/>
<path d="M4665 5718 c-29 -16 -41 -34 -79 -113 -42 -86 -81 -250 -72 -299 5
-23 17 -43 38 -57 57 -41 130 0 143 81 15 92 42 171 79 233 23 38 27 54 21 83
-12 68 -76 103 -130 72z"/>
<path d="M1175 5140 c-31 -12 -55 -44 -61 -81 -5 -28 1 -44 31 -89 39 -58 73
-134 94 -212 26 -92 98 -126 155 -73 14 13 26 30 27 37 0 7 2 22 4 32 2 11 -8
56 -22 100 -64 205 -153 316 -228 286z"/>
</g>
</svg>
