<svg aria-hidden="true" style="position: absolute; width: 0; height: 0; overflow: hidden;" version="1.1" xmlns="http://www.w3.org/2000/svg" xmlns:xlink="http://www.w3.org/1999/xlink">
<defs>
  <svg id="autors" width="27" height="32" viewBox="0 0 27 32" x="0" y="0">
    <path
      d="M.059 31.693h27.355c.136-3.12-.088-8.295-2.006-10.759l-.069-.088-4.191-2.104c.091-.307.136-.588.154-.795a1.449 1.449 0 0 0-.102-.692c-.691-1.655-2.155-2.525-2.959-2.896a5.158 5.158 0 0 0 .48-1.567c.456-.128.822-.489.942-.971l.489-1.987a1.343 1.343 0 0 0-.154-1.023 1.346 1.346 0 0 0-.3-.341c1.379-3.133-.931-6.087-1.057-6.243C16.139-.478 12.979.028 12.812.058c-4.561.955-6.321 4.451-5.328 8.55-.294.326-.418.78-.309 1.226l.492 1.99c.119.478.483.838.935.968.139.993.56 1.89 1.177 2.614v1.576c-6.545 3.352-2.398 1.213-7.643 3.867-.01.049-2.461 2.654-2.097 10.375l.022.472zm26.404-.99h-4.502v-1.891l2.978-6.816c1.492 2.476 1.547 7.203 1.524 8.708zm-6.144-12.841c-.174 1.996-1.268 1.393-1.944 2.93-.531-.584-.691-1.285-.548-2.035.258-1.377-.583-1.786-.375-3.233l.031-.033v-.005c.018-.02.184-.217.232-.28 1.781.777 2.639 2.221 2.604 2.656zm-9.556-1.568a5.068 5.068 0 0 0 2.899.912 5.06 5.06 0 0 0 2.795-.836c.114 1.138.559 1.365.401 2.203a3.52 3.52 0 0 0-.055.459l-3.066 3.456-3.919-4.419.946-.494v-1.281zm-1.232-4.229V6.783c.477-.883 1.128-1.522 1.936-1.906 2.165 1.225 4.657 3.053 6.329 4.893-.002 2.343.007 2.35-.009 2.542l-.001.012c-.13 2.128-1.88 3.892-4.124 3.892-2.181 0-3.992-1.713-4.123-3.913a2.69 2.69 0 0 1-.008-.238zm-.611 6.482 4.816 5.43 3.234-3.644c.074.213.178.414.296.608l-3.53 4.414-5.264-6.583.447-.224zm9.862-7.279v-1.53l.368-.421c.02.775.104-.14-.368 1.951zM12.993 1.029c.196.012 2.824-.4 4.901 1.843.082.103 1.773 2.281 1.093 4.665-.233-1.061-.638-2.42-1.278-3.068l-.7.697c.632.641 1.048 2.591 1.206 3.602-2.901-3.035-6.643-4.957-6.694-4.989-.188.117-1.771.418-2.921 2.653l-.055.107v1.642l-.145.002c-.731-3.528.669-6.33 4.593-7.153zM8.296 9.201l.249 1.008v1.06l-.414-1.674c-.061-.25.124-.344.165-.394zm-.725 10.023 6.166 7.712 4.172-5.218c.454.406.672.464 1.634.959l-.325-1.101c-.082-.279.244-.728.441-.934.44-.238.806-.578 1.08-.998l3.404 1.709-3.167 7.251v2.099H6.499v-2.099l-3.169-7.25 4.242-2.129zm-5.037 2.773 2.978 6.815v1.891H1.01c-.023-1.504.033-6.229 1.524-8.706z" />
  </svg>
  <svg id="book" width="43" height="32" viewBox="0 0 43 32" x="48" y="0">
    <path
      d="M19.102 4.52H5.443v1.028h13.659V4.52zM19.101 8.357H7.488v1.028h11.613V8.357zM19.102 12.195H5.443v1.028h13.659v-1.028zM19.101 16.032H7.488v1.028h11.613v-1.028zM19.102 19.869H5.443v1.028h13.659v-1.028zM19.101 23.707H7.488v1.028h11.613v-1.028zM37.851 4.52H24.192v1.028h13.659V4.52zM35.805 8.357H24.192v1.028h11.613V8.357zM37.851 12.195H24.192v1.028h13.659v-1.028zM35.805 16.032H24.192v1.028h11.613v-1.028zM37.851 19.869H24.192v1.028h13.659v-1.028zM35.805 23.707H24.192v1.028h11.613v-1.028z" />
    <path
      d="M42.783 3.348h-1.875V.514a.513.513 0 0 0-.511-.515H25.111a3.95 3.95 0 0 0-3.463 2.026 3.951 3.951 0 0 0-3.464-2.026H2.898a.513.513 0 0 0-.511.515v2.834H.512a.513.513 0 0 0-.511.515v27.622c0 .284.229.515.511.515h42.271c.282 0 .511-.23.511-.515V3.863a.513.513 0 0 0-.511-.515zM25.111 1.029h14.774V28.59H24.02c-.703 0-1.406.299-1.861.685V3.993a2.945 2.945 0 0 1 2.952-2.964zm-21.702 0h14.774a2.936 2.936 0 0 1 2.946 2.851c.001.022.003.091.006.113v25.28a2.979 2.979 0 0 0-1.855-.683H3.408V1.029zM1.023 4.378h1.364v24.727c0 .284.229.515.511.515h16.383c.78 0 1.533.515 1.774 1.351H1.023V4.378zm41.248 26.593H22.239a1.85 1.85 0 0 1 1.78-1.351h16.377c.282 0 .511-.23.511-.515V4.378h1.364v26.593z" />
  </svg>
 <symbol id="icon-check" viewBox="0 0 41 32">
<path d="M36.305 1.514c-1.564 0.664-3.063 1.475-4.494 2.379-2.878 1.797-5.508 3.936-7.976 6.218-2.466 2.287-4.763 4.735-6.934 7.28-0.543 0.636-2.974 3.47-2.974 3.47l-10.111-14.38-3.817 10.042 13.673 15.477c1.328-2.551 2.605-5.070 3.859-7.258 0.311-0.556 0.638-1.080 0.949-1.612 0 0 1.605-2.677 2.027-3.352 1.687-2.697 3.511-5.325 5.52-7.821 2.011-2.491 4.197-4.87 6.675-6.961 1.233-1.052 2.545-2.025 3.952-2.872 1.403-0.848 2.894-1.591 4.489-2.125-1.659 0.31-3.278 0.848-4.838 1.514z"></path>
</symbol>
  <svg id="mobile-learning" viewBox="0 0 32 32">
  <path d="M28.090 2.327h-13.424c-0.874 0-1.585 0.707-1.585 1.576v5.526l-9.973 4.162c-0.113 0.047-0.19 0.153-0.198 0.275s0.052 0.238 0.157 0.3l1.272 0.757v8.066c-0.65 0.148-1.138 0.726-1.138 1.419v0.778c0 0.178 0.145 0.323 0.325 0.323h2.277c0.179 0 0.325-0.145 0.325-0.323v-0.778c0-0.692-0.488-1.27-1.139-1.418v-7.681l1.006 0.599c-0.031 0.231-0.004-0.402-0.014 3.755 0 1.367 3.52 2.099 7.102 2.141v6.295c0 0.325 0.1 0.628 0.271 0.879 0.285 0.419 0.767 0.695 1.313 0.695h13.424c0.873 0 1.583-0.706 1.583-1.574 0 0.043-0.002-1.333 0-24.195 0-0.857-0.713-1.576-1.582-1.576zM5.478 24.408v0.455h-1.628v-0.455c0-0.447 0.364-0.812 0.812-0.812 0.45 0 0.816 0.364 0.816 0.812zM28.090 29.025h-13.424c-0.322 0-0.607-0.162-0.775-0.408-0.101-0.148-0.16-0.327-0.16-0.519v-2.182h15.29v2.183c0 0.506-0.424 0.926-0.931 0.926zM29.021 25.27h-15.291v-3.464c1.749-0.020 7.106-0.403 7.106-2.143-0.002-2.612 0.005-3.671-0.008-3.76l2.916-1.737c0.105-0.063 0.166-0.179 0.157-0.3s-0.085-0.228-0.198-0.275l-9.973-4.162v-2.697h15.291v18.539zM13.406 17.519c-1.801 0-5.27 0.231-6.777 1.21 0.010-2.993-0.104-2.798 0.266-3.052 0.936-0.685 3.613-1.164 6.511-1.164 1.264 0 6.781 0.345 6.781 1.507v2.709c-1.521-0.988-4.972-1.21-6.781-1.21zM13.731 3.903c0-0.512 0.419-0.929 0.934-0.929h13.424c0.515 0 0.932 0.422 0.932 0.928v2.182h-15.29v-2.182zM13.406 9.994l9.455 3.946-2.343 1.394c-1.246-1.228-5.366-1.466-7.112-1.466-1.749 0-5.869 0.239-7.112 1.467l-2.343-1.394 9.455-3.946zM6.629 19.664c0-0.523 2.328-1.498 6.777-1.498 4.452 0 6.781 0.976 6.781 1.498s-2.329 1.499-6.781 1.499c-4.449 0-6.777-0.976-6.777-1.499z"></path>
  <path d="M21.377 26.403c-0.592 0-1.074 0.479-1.074 1.068s0.482 1.069 1.074 1.069c0.592 0 1.074-0.479 1.074-1.069s-0.482-1.068-1.074-1.068zM21.377 27.894c-0.234 0-0.425-0.19-0.425-0.423s0.191-0.422 0.425-0.422c0.234 0 0.425 0.189 0.425 0.422s-0.191 0.423-0.425 0.423z"></path>
  <path d="M22.616 4.207h-2.478v0.646h2.478v-0.646z"></path>
  </svg>
  <svg id="doc" width="30" height="32" viewBox="0 0 30 32" x="192" y="0">
    <path
      d="m29.977 4.975-.001-.002a.32.32 0 0 0-.06-.09L25.068.084a.329.329 0 0 0-.041-.033l-.009-.006c-.012-.007-.024-.014-.036-.019l-.011-.005a.287.287 0 0 0-.1-.02H3.509a.285.285 0 0 0-.286.284v29.271c0 .019.002.037.006.056l.007.023.009.03.014.026.013.023c.01.014.021.028.033.04l.003.003 2.183 2.161a.288.288 0 0 0 .405 0l1.982-1.961 1.981 1.961c.056.056.129.083.203.083s.146-.027.202-.083l1.981-1.96 1.982 1.96a.288.288 0 0 0 .405 0l1.981-1.96 1.981 1.96a.288.288 0 0 0 .405 0l1.982-1.961 1.981 1.961c.056.056.129.083.202.083s.147-.027.203-.083l1.981-1.96 1.982 1.96a.288.288 0 0 0 .405 0l2.183-2.161.011-.014.024-.029c.007-.009.011-.02.017-.03.003-.007.007-.012.009-.019.006-.013.009-.026.012-.039l.005-.013a.278.278 0 0 0 .006-.058V5.085a.287.287 0 0 0-.023-.108zM25.151.969l3.869 3.83h-3.869V.969zm4.275 28.468-1.896 1.878-1.982-1.961a.29.29 0 0 0-.405 0l-1.981 1.961-1.981-1.961a.29.29 0 0 0-.405 0l-1.982 1.961-1.98-1.96v-.001a.289.289 0 0 0-.405 0l-1.98 1.961-1.982-1.961a.29.29 0 0 0-.405 0l-1.981 1.961-1.981-1.961a.29.29 0 0 0-.405 0l-1.982 1.961-1.897-1.878V.567h20.783v4.516c0 .157.128.284.287.284h4.561v24.071z" />
    <path
      d="M5.931 3.251h9.384c.158 0 .287-.127.287-.284s-.128-.284-.287-.284H5.931c-.159 0-.287.127-.287.284s.128.284.287.284zM5.931 5.005H20.98c.158 0 .287-.127.287-.284s-.128-.284-.287-.284H5.931c-.159 0-.287.127-.287.284s.128.284.287.284zM5.645 6.58v9.186c0 .157.128.284.287.284h21.357a.285.285 0 0 0 .286-.284V6.58a.285.285 0 0 0-.286-.284H5.932a.285.285 0 0 0-.287.284zm6.333.284h15.024v2.442H11.978V6.864zm0 3.009h15.024v2.441H11.978V9.873zm0 3.008h15.024v2.602H11.978v-2.602zm-5.76-6.017h5.187v2.442H6.218V6.864zm0 3.009h5.187v2.441H6.218V9.873zm0 3.008h5.187v2.602H6.218v-2.602zM27.289 17.327H5.932a.285.285 0 0 0-.287.284v9.186c0 .157.128.283.287.283s.286-.127.286-.283v-2.885h5.187v2.885c0 .157.128.283.286.283s.287-.127.287-.283v-2.885h15.024v2.885c0 .157.128.283.287.283s.286-.127.286-.283v-9.186a.284.284 0 0 0-.286-.284zm-15.884 6.017H6.218v-2.44h5.187v2.44zm0-3.008H6.218v-2.441h5.187v2.441zm15.597 3.008H11.978v-2.44h15.024v2.44zm0-3.008H11.978v-2.441h15.024v2.441zM1.863 0a.286.286 0 0 0-.287.284v29.271c0 .156.128.283.287.283s.287-.127.287-.283V.284A.285.285 0 0 0 1.863 0zM.287 0A.286.286 0 0 0 0 .284v29.271c0 .156.128.283.287.283s.286-.127.286-.283V.284A.285.285 0 0 0 .287 0z" />
  </svg>
  <svg id="english" width="37" height="32" viewBox="0 0 37 32" x="240" y="0">
    <path
      d="M2.318 29.826h12.404A3.786 3.786 0 0 0 18.15 32h.783c1.486 0 2.8-.853 3.429-2.174h12.41c1.278 0 2.318-1.054 2.318-2.349V4.965c0-1.295-1.04-2.349-2.318-2.349H33.52V1.567c0-.864-.693-1.566-1.545-1.566H5.108c-.852 0-1.545.702-1.545 1.566v1.049H2.319C1.041 2.616.001 3.67.001 4.965v22.512c0 1.295 1.04 2.349 2.318 2.349zm29.656-4.832H19.318V6.798c2.925.388 5.193 2.924 5.193 5.992v.706l-.183-.041a.772.772 0 0 0-.921.597l-1.23 5.672a.783.783 0 0 0 .589.932l2.658.594a1.979 1.979 0 0 0 2.352-1.533l.712-3.28a2.007 2.007 0 0 0-1.505-2.388l-.925-.207v-1.051c0-3.934-2.959-7.179-6.739-7.575v-3.65h12.657l-.001 23.428zm-7.223-9.84 1.898.424a.434.434 0 0 1 .33.522l-.712 3.28a.457.457 0 0 1-.515.34l-1.9-.424.899-4.142zM5.108 1.566h12.665v3.649c-3.784.391-6.746 3.64-6.746 7.576v1.051l-.927.207a1.968 1.968 0 0 0-1.24.877 2.007 2.007 0 0 0-.263 1.509l.71 3.277a1.993 1.993 0 0 0 1.936 1.583c.14 0 .279-.015.422-.046l2.647-.593a.783.783 0 0 0 .588-.932l-1.23-5.672a.773.773 0 0 0-.922-.597l-.177.04v-.705c0-3.071 2.272-5.609 5.201-5.993v18.197H5.107V1.566zm7.219 13.588.899 4.141-1.89.423a.439.439 0 0 1-.519-.337l-.712-3.284a.433.433 0 0 1 .328-.52l1.893-.423zM1.545 4.964c0-.432.346-.783.773-.783h1.244v20.813c0 .864.694 1.566 1.545 1.566h26.867c.852 0 1.545-.702 1.545-1.566V4.181h1.252c.426 0 .773.351.773.783v22.512a.778.778 0 0 1-.773.783H21.835a.774.774 0 0 0-.739.553 2.257 2.257 0 0 1-2.165 1.621h-.783c-.998 0-1.867-.649-2.168-1.63a.775.775 0 0 0-.736-.544H2.316a.779.779 0 0 1-.773-.783V4.964z" />
  </svg>
  <svg id="finance" width="28" height="32" viewBox="0 0 28 32" x="288" y="0">
    <path
      d="M.542 13.742c0 .357-.542.357-.542 0C0 6.154 6.154 0 13.742 0c7.591 0 13.742 6.154 13.742 13.742 0 .357-.539.357-.539 0 0-5.129-8.428-5.132-8.428 0 0 .357-.555.357-.555 0 0-5.116-8.441-5.116-8.441 0 0 .357-.555.357-.555 0 0-5.106-8.425-5.142-8.425 0zm8.473-1.992c.146-2.952.61-5.599 1.285-7.62.539-1.606 1.22-2.826 1.992-3.51C6.498 1.253 1.807 5.645.759 11.342c1.995-2.878 6.602-2.647 8.256.409zm8.906-.133c-.149-2.839-.6-5.379-1.249-7.316-1.674-5.012-4.185-5.012-5.859 0-.649 1.937-1.097 4.477-1.249 7.316 1.8-3.059 6.556-3.059 8.357 0zm8.804-.276A13.205 13.205 0 0 0 15.192.619c.775.684 1.453 1.904 1.992 3.51.675 2.021 1.139 4.668 1.285 7.62 1.664-3.072 6.284-3.254 8.256-.409zM11.938 20.03v-2.791c-.503.334-.899.85-.899 1.48 0 .613.402 1.019.899 1.311zm.542.866c-.963-.441-1.979-.957-1.979-2.177 0-1.259.957-1.888 1.979-2.359v4.536zM15.546 24.24v2.822c.509-.337.908-.856.908-1.486 0-.62-.409-1.038-.908-1.337zm-.539-.869c.967.448 1.989.98 1.989 2.206 0 1.262-.963 1.891-1.989 2.358v-4.564z" />
    <path
      d="M15.546 14.063c2.219.513 4.5 2.174 4.5 4.655 0 2.125-3.591 2.047-3.591 0 0-.633-.399-1.152-.908-1.486v3.971c2.054.672 4.506 1.875 4.506 4.373 0 2.485-2.281 4.143-4.506 4.652-.01 2.365-3.601 2.362-3.607-.003-1.265-.292-2.365-.882-3.16-1.664-.834-.824-1.327-1.859-1.327-2.985 0-2.093 3.588-2.093 3.588 0 0 .626.396 1.142.899 1.476v-3.968c-2.037-.659-4.503-1.898-4.503-4.373 0-2.485 2.281-4.143 4.503-4.652.01-2.365 3.601-2.362 3.607.003zm-3.066.007v.431c-2.112.419-4.506 1.771-4.506 4.211 0 2.346 2.628 3.397 4.506 3.977v5.243c-1.015-.464-1.979-1.09-1.979-2.355 0-1.382-2.511-1.382-2.511 0 0 .976.435 1.878 1.168 2.599.931.921 2.06 1.359 3.322 1.609v.435c0 1.664 2.527 1.664 2.527 0v-.431c2.118-.422 4.503-1.775 4.503-4.211 0-2.368-2.621-3.387-4.503-3.981v-5.239c1.019.464 1.989 1.09 1.989 2.362 0 1.346 2.508 1.402 2.508 0 0-2.436-2.381-3.792-4.496-4.214v-.435c0-1.664-2.527-1.664-2.527 0z" />
  </svg>
  <svg id="fire" width="23" height="32" viewBox="0 0 23 32" x="336" y="0">
    <path
      d="M21.909 16.593c-.284-.635-.675-1.261-1.247-1.983-1.442-1.813-1.882-5.857-1.887-5.896a.488.488 0 0 0-.337-.412.495.495 0 0 0-.518.141c-1.721 1.925-.997 4.897-.606 6.085.108.325.225.708.308 1.096.636 3.137-.592 4.558-.88 4.844-.279.078-.469.039-.645-.15-.606-.664-.807-2.841-.523-5.678a5.797 5.797 0 0 0-.039-1.581c-.598-3.486-2.791-5.722-3.349-6.507C10.651 4.283 10.494.506 10.49.472a.487.487 0 0 0-.763-.383C7.165 1.83 7.385 6.024 7.742 8.365c.083.543.244 1.096.523 1.794.992 2.497-.196 5.721-.205 5.75s-.02.053-.024.082c-.152.795-.406 1.27-.689 1.27a.327.327 0 0 1-.093-.015c-.347-.073-.528-.441-.533-.761-.02-4.136-4.17-5.527-4.214-5.542a.485.485 0 0 0-.518.146.476.476 0 0 0-.068.533c.049.102.205.548.098 2.124a18.09 18.09 0 0 1-.768 4.16C.263 21.125.42 24.175.43 24.321c.759 8.257 12.635 9.704 19.683 5.052.772-.509 1.403-1.091 1.868-1.731 2.601-3.588 1.071-8.461-.068-11.05zM3.845 24.481a.484.484 0 0 1-.46.509h-.029a.487.487 0 0 1-.489-.456c-.044-.708-.034-1.45.02-2.255a.49.49 0 0 1 .978.068 15.622 15.622 0 0 0-.02 2.133zm.239-4.296a.485.485 0 0 1-.484.427c-.02 0-.039 0-.064-.005a.488.488 0 0 1-.425-.538l.235-1.872a.494.494 0 0 1 .548-.422c.269.034.46.276.425.543l-.235 1.867z" />
  </svg>
  <svg id="phone" width="32" height="32" viewBox="0 0 32 32" x="384" y="0">
    <path
      d="M4.657.003a1.969 1.969 0 0 0-1.392.678L.67 3.65c.004-.009-.01-.008-.084.101a.656.656 0 0 0-.09.184C-.56 7.437.148 11.289 1.872 14.953S6.347 22.123 9.505 25c3.158 2.877 6.721 5.128 10.119 6.244s6.692 1.102 9.133-.742a.536.536 0 0 0 .075-.068c.064-.067.066-.075.056-.065l.01-.013L31.48 27.4c.742-.849.682-2.184-.134-2.956l-6.126-5.799a1.965 1.965 0 0 0-2.84.138l-2.772 3.173c-2.25-.678-4.173-1.828-6.023-3.58s-3.132-3.637-3.993-5.905l2.771-3.173c.742-.849.683-2.184-.133-2.956L6.104.542A1.962 1.962 0 0 0 4.656.003h-.001zm.058 1.301c.19-.009.383.06.541.209l6.126 5.8a.788.788 0 0 1 .05 1.104l-3.063 3.504a.667.667 0 0 0-.124.665c.93 2.641 2.429 4.807 4.493 6.761s4.275 3.304 6.889 4.018a.612.612 0 0 0 .626-.193l3.064-3.505a.716.716 0 0 1 1.06-.051l6.127 5.8a.786.786 0 0 1 .049 1.103l-2.561 2.93c-2.003 1.497-4.826 1.581-7.986.542-3.173-1.043-6.617-3.202-9.666-5.98s-5.702-6.169-7.332-9.633C1.394 10.949.809 7.483 1.696 4.428l2.502-2.862a.736.736 0 0 1 .52-.261z" />
  </svg>
  <svg id="support" width="32" height="32" viewBox="0 0 32 32" x="432" y="0">
    <path
      d="M1.979 12.558v2.831c0 .152.069.295.188.39a10.97 10.97 0 0 0 6.788 2.362c.735 0 1.471-.077 2.19-.224A11.85 11.85 0 0 0 16 18.949c1.695 0 3.327-.349 4.855-1.032 3.069.624 6.338-.046 8.977-2.138a.497.497 0 0 0 .188-.39v-2.831c0-.416-.205-.794-.571-1.027L25.61 9.355c.84-1.073 1.466-2.602 1.574-3.913.319-2.256-1.507-4.646-4.136-4.646a4.162 4.162 0 0 0-2.927 1.227c-.027.027-.057.049-.083.076-.024.025-.043.054-.066.08l-.044.053C19.177.852 17.733 0 16.032 0c-.165 0-.328.011-.488.028-.01-.001-.018-.006-.028-.006-.091 0-.285.024-.388.054-.015.004-.026.015-.041.021a4.453 4.453 0 0 0-2.991 2.156A4.134 4.134 0 0 0 8.94.796c-3.88 0-5.601 4.612-2.539 8.581l-3.875 2.167a1.193 1.193 0 0 0-.549 1.014zm18.867 4.27c-.083.041-.166.085-.25.123l-.002.001A10.862 10.862 0 0 1 16 17.958c-1.602 0-3.148-.338-4.596-1.007a10.876 10.876 0 0 1-2.03-1.221v-2.87c0-.098.047-.184.101-.221l4.509-2.524c.561.48 1.278.832 2.02.832.715 0 1.488-.357 2.038-.843l4.455 2.52a.277.277 0 0 1 .129.237v2.87c-.567.429-1.164.795-1.781 1.098zm8.099-4.446a.203.203 0 0 1 .091.176v2.587a9.864 9.864 0 0 1-6.688 1.98c.367-.23.766-.516 1.075-.76a.497.497 0 0 0 .188-.39v-3.114c0-.435-.217-.835-.606-1.087l-2.366-1.339.575-.321c.698.573 1.297.744 1.835.744.658 0 1.35-.325 1.864-.759l4.031 2.284zM23.05 1.788c1.371 0 2.574.902 3 2.142a3.665 3.665 0 0 1-2.221-1.142.489.489 0 0 0-.783.084 3.657 3.657 0 0 1-2.529 1.76v-.003a4.95 4.95 0 0 0-.032-.653l-.007-.067a5.536 5.536 0 0 0-.121-.609c.559-.902 1.598-1.513 2.694-1.513zm-2.641 3.856a4.603 4.603 0 0 0 3.142-1.762 4.634 4.634 0 0 0 2.682 1.056c-.007 1.792-1.461 4.927-3.183 4.927-1.328 0-2.461-1.912-2.885-3.238.108-.341.186-.669.244-.983zm.1 3.729-.88.491-.888-.502c.329-.413.631-.893.89-1.413.249.526.546 1.01.878 1.425zm-1.327-2.908c-.475 1.427-1.693 3.49-3.176 3.49-1.73 0-3.203-2.864-3.483-4.696.075-.019 2.412.126 4.02-2.001.816.688 1.918 1.143 2.989 1.188.013.647-.143 1.406-.35 2.018zM16.034.992c2.76 0 3.285 2.392 3.328 2.442a4.085 4.085 0 0 1-2.545-1.276.491.491 0 0 0-.784.087 4.048 4.048 0 0 1-3.555 2.022c.135-1.822 1.585-3.274 3.555-3.274zm-3.662 6.946a7.91 7.91 0 0 0 .906 1.438l-.869.487-.9-.51c.341-.438.631-.929.863-1.415zm-3.43-6.15c1.117 0 2.14.571 2.71 1.514-.029.1-.106.498-.116.548a3.646 3.646 0 0 1-1.808-1.062.49.49 0 0 0-.783.086 3.68 3.68 0 0 1-3.154 1.815c.157-1.627 1.507-2.9 3.151-2.9zm-3.108 3.89A4.663 4.663 0 0 0 9.45 3.882a4.578 4.578 0 0 0 2.041.961c.029.575.178 1.273.348 1.789-.272.84-.793 1.841-1.44 2.505l-.014.01c-.405.43-.981.719-1.434.719-1.583 0-2.82-2.508-3.117-4.188zm-2.87 6.88c0-.075.033-.139.067-.162l4.086-2.284c.245.206.302.229.351.265.481.322.922.482 1.523.482.64 0 1.223-.273 1.737-.694.029-.023.06-.045.087-.068l.583.33-2.429 1.361c-.363.236-.58.636-.58 1.071v3.114c0 .152.069.296.188.39.314.249.722.539 1.075.761a9.903 9.903 0 0 1-6.689-1.98v-2.587z" />
    <path
      d="M31.034 20.781a2.036 2.036 0 0 0-1.993-.11l-6.076 2.956a2.102 2.102 0 0 0-2.092-2.071l-3.484.001c-1.718-1.504-3.913-2.425-5.909-2.473-1.968-.047-3.735-.06-4.56-.064v-1.002H-.002v11.517H6.92v-1.379c1.898 1.097 6.889 3.845 9.258 3.845.054 0 .106-.001.157-.004 4.165-.235 13.989-7.198 14.637-7.661a2.08 2.08 0 0 0 1.026-1.796c0-.719-.361-1.376-.966-1.758zM5.937 28.542H.985v-9.533h4.952v9.533zm24.53-5.058a.296.296 0 0 0-.044.028c-.101.073-10.207 7.271-14.142 7.494a2.315 2.315 0 0 1-.12.003c-2.077 0-7.143-2.753-9.24-4.001v-6.997c.821.004 2.578.017 4.536.064 1.824.044 3.848.921 5.416 2.346l.14.128 3.86-.001c.612 0 1.111.502 1.111 1.119s-.498 1.119-1.111 1.119h-7.091v.992h7.091c.68 0 1.278-.333 1.662-.839l6.934-3.373c.34-.167.72-.146 1.041.057s.504.537.504.918c0 .391-.21.753-.549.945zM16.492 12.159h-.985v.92h.985v-.92zM16.492 13.992h-.985v.92h.985v-.92zM16.492 15.826h-.985v.92h.985v-.92z" />
  </svg>
  <svg id="teach" width="27" height="32" viewBox="0 0 27 32" x="480" y="0">
    <path
      d="M.059 31.693h27.355c.136-3.12-.088-8.295-2.006-10.759l-.069-.088-4.191-2.104c.091-.307.136-.588.154-.795a1.449 1.449 0 0 0-.102-.692c-.691-1.655-2.155-2.525-2.959-2.896a5.158 5.158 0 0 0 .48-1.567c.456-.128.822-.489.942-.971l.489-1.987a1.343 1.343 0 0 0-.154-1.023 1.346 1.346 0 0 0-.3-.341c1.379-3.133-.931-6.087-1.057-6.243C16.139-.478 12.979.028 12.812.058c-4.561.955-6.321 4.451-5.328 8.55-.294.326-.418.78-.309 1.226l.492 1.99c.119.478.483.838.935.968.139.993.56 1.89 1.177 2.614v1.576c-6.545 3.352-2.398 1.213-7.643 3.867-.01.049-2.461 2.654-2.097 10.375l.022.472zm26.404-.99h-4.502v-1.891l2.978-6.816c1.492 2.476 1.547 7.203 1.524 8.708zm-6.144-12.841c-.174 1.996-1.268 1.393-1.944 2.93-.531-.584-.691-1.285-.548-2.035.258-1.377-.583-1.786-.375-3.233l.031-.033v-.005c.018-.02.184-.217.232-.28 1.781.777 2.639 2.221 2.604 2.656zm-9.556-1.568a5.068 5.068 0 0 0 2.899.912 5.06 5.06 0 0 0 2.795-.836c.114 1.138.559 1.365.401 2.203a3.52 3.52 0 0 0-.055.459l-3.066 3.456-3.919-4.419.946-.494v-1.281zm-1.232-4.229V6.783c.477-.883 1.128-1.522 1.936-1.906 2.165 1.225 4.657 3.053 6.329 4.893-.002 2.343.007 2.35-.009 2.542l-.001.012c-.13 2.128-1.88 3.892-4.124 3.892-2.181 0-3.992-1.713-4.123-3.913a2.69 2.69 0 0 1-.008-.238zm-.611 6.482 4.816 5.43 3.234-3.644c.074.213.178.414.296.608l-3.53 4.414-5.264-6.583.447-.224zm9.862-7.279v-1.53l.368-.421c.02.775.104-.14-.368 1.951zM12.993 1.029c.196.012 2.824-.4 4.901 1.843.082.103 1.773 2.281 1.093 4.665-.233-1.061-.638-2.42-1.278-3.068l-.7.697c.632.641 1.048 2.591 1.206 3.602-2.901-3.035-6.643-4.957-6.694-4.989-.188.117-1.771.418-2.921 2.653l-.055.107v1.642l-.145.002c-.731-3.528.669-6.33 4.593-7.153zM8.296 9.201l.249 1.008v1.06l-.414-1.674c-.061-.25.124-.344.165-.394zm-.725 10.023 6.166 7.712 4.172-5.218c.454.406.672.464 1.634.959l-.325-1.101c-.082-.279.244-.728.441-.934.44-.238.806-.579 1.08-.998l3.404 1.709-3.167 7.251v2.099H6.499v-2.099l-3.169-7.25 4.242-2.129zm-5.037 2.773 2.978 6.815v1.891H1.01c-.023-1.504.033-6.229 1.524-8.706z" />
  </svg>
  <svg id="menu" width="32" height="32" viewBox="0 0 32 32" x="528" y="0">
    <path d="M6.4 11.733V9.6h19.2v2.133H6.4zm0 5.334h19.2v-2.133H6.4v2.133zm0 5.333h19.2v-2.133H6.4V22.4z" />
  </svg>
  <svg id="menuclose" width="32" height="32" viewBox="0 0 32 32" x="576" y="0">
    <path
      d="M23.733 10.304 22.229 8.8l-5.963 5.963L10.303 8.8l-1.504 1.504 5.963 5.963-5.963 5.963 1.504 1.504 5.963-5.963 5.963 5.963 1.504-1.504-5.963-5.963 5.963-5.963z" />
  </svg>
  <symbol id="facebook" viewBox="0 0 31 32">
    <path fill="#436eab" style="fill: var(--color1, #436eab)"
      d="M27.65 0.549h-24.332c-0.88 0-1.724 0.347-2.346 0.963s-0.972 1.453-0.972 2.326v24.12c0 0.872 0.35 1.709 0.972 2.326s1.466 0.963 2.346 0.963h9.487v-10.437h-4.355v-4.912h4.355v-3.744c0-4.259 2.558-6.611 6.475-6.611 1.876 0 3.838 0.332 3.838 0.332v4.18h-2.161c-2.13 0-2.794 1.31-2.794 2.654v3.19h4.754l-0.76 4.912h-3.994v10.437h9.487c0.88 0 1.724-0.347 2.346-0.963s0.972-1.453 0.972-2.326v-24.12c0-0.872-0.35-1.709-0.972-2.326s-1.466-0.963-2.346-0.963z">
    </path>
  </symbol>
  <symbol id="icon-close" viewBox="0 0 32 32">
<path d="M26.667 7.303l-1.97-1.97-7.808 7.808-7.808-7.808-1.97 1.97 7.808 7.808-7.808 7.808 1.97 1.97 7.808-7.808 7.808 7.808 1.97-1.97-7.808-7.808 7.808-7.808z"></path>
</symbol>
  </defs>
</svg>