<svg xmlns="http://www.w3.org/2000/svg" width="752" height="32">
  <svg id="autors" width="27" height="32" viewBox="0 0 27 32" x="0" y="0">
    <path
      d="M.059 31.693h27.355c.136-3.12-.088-8.295-2.006-10.759l-.069-.088-4.191-2.104c.091-.307.136-.588.154-.795a1.449 1.449 0 0 0-.102-.692c-.691-1.655-2.155-2.525-2.959-2.896a5.158 5.158 0 0 0 .48-1.567c.456-.128.822-.489.942-.971l.489-1.987a1.343 1.343 0 0 0-.154-1.023 1.346 1.346 0 0 0-.3-.341c1.379-3.133-.931-6.087-1.057-6.243C16.139-.478 12.979.028 12.812.058c-4.561.955-6.321 4.451-5.328 8.55-.294.326-.418.78-.309 1.226l.492 1.99c.119.478.483.838.935.968.139.993.56 1.89 1.177 2.614v1.576c-6.545 3.352-2.398 1.213-7.643 3.867-.01.049-2.461 2.654-2.097 10.375l.022.472zm26.404-.99h-4.502v-1.891l2.978-6.816c1.492 2.476 1.547 7.203 1.524 8.708zm-6.144-12.841c-.174 1.996-1.268 1.393-1.944 2.93-.531-.584-.691-1.285-.548-2.035.258-1.377-.583-1.786-.375-3.233l.031-.033v-.005c.018-.02.184-.217.232-.28 1.781.777 2.639 2.221 2.604 2.656zm-9.556-1.568a5.068 5.068 0 0 0 2.899.912 5.06 5.06 0 0 0 2.795-.836c.114 1.138.559 1.365.401 2.203a3.52 3.52 0 0 0-.055.459l-3.066 3.456-3.919-4.419.946-.494v-1.281zm-1.232-4.229V6.783c.477-.883 1.128-1.522 1.936-1.906 2.165 1.225 4.657 3.053 6.329 4.893-.002 2.343.007 2.35-.009 2.542l-.001.012c-.13 2.128-1.88 3.892-4.124 3.892-2.181 0-3.992-1.713-4.123-3.913a2.69 2.69 0 0 1-.008-.238zm-.611 6.482 4.816 5.43 3.234-3.644c.074.213.178.414.296.608l-3.53 4.414-5.264-6.583.447-.224zm9.862-7.279v-1.53l.368-.421c.02.775.104-.14-.368 1.951zM12.993 1.029c.196.012 2.824-.4 4.901 1.843.082.103 1.773 2.281 1.093 4.665-.233-1.061-.638-2.42-1.278-3.068l-.7.697c.632.641 1.048 2.591 1.206 3.602-2.901-3.035-6.643-4.957-6.694-4.989-.188.117-1.771.418-2.921 2.653l-.055.107v1.642l-.145.002c-.731-3.528.669-6.33 4.593-7.153zM8.296 9.201l.249 1.008v1.06l-.414-1.674c-.061-.25.124-.344.165-.394zm-.725 10.023 6.166 7.712 4.172-5.218c.454.406.672.464 1.634.959l-.325-1.101c-.082-.279.244-.728.441-.934.44-.238.806-.578 1.08-.998l3.404 1.709-3.167 7.251v2.099H6.499v-2.099l-3.169-7.25 4.242-2.129zm-5.037 2.773 2.978 6.815v1.891H1.01c-.023-1.504.033-6.229 1.524-8.706z" />
  </svg>
  <svg id="book" width="43" height="32" viewBox="0 0 43 32" x="48" y="0">
    <path
      d="M19.102 4.52H5.443v1.028h13.659V4.52zM19.101 8.357H7.488v1.028h11.613V8.357zM19.102 12.195H5.443v1.028h13.659v-1.028zM19.101 16.032H7.488v1.028h11.613v-1.028zM19.102 19.869H5.443v1.028h13.659v-1.028zM19.101 23.707H7.488v1.028h11.613v-1.028zM37.851 4.52H24.192v1.028h13.659V4.52zM35.805 8.357H24.192v1.028h11.613V8.357zM37.851 12.195H24.192v1.028h13.659v-1.028zM35.805 16.032H24.192v1.028h11.613v-1.028zM37.851 19.869H24.192v1.028h13.659v-1.028zM35.805 23.707H24.192v1.028h11.613v-1.028z" />
    <path
      d="M42.783 3.348h-1.875V.514a.513.513 0 0 0-.511-.515H25.111a3.95 3.95 0 0 0-3.463 2.026 3.951 3.951 0 0 0-3.464-2.026H2.898a.513.513 0 0 0-.511.515v2.834H.512a.513.513 0 0 0-.511.515v27.622c0 .284.229.515.511.515h42.271c.282 0 .511-.23.511-.515V3.863a.513.513 0 0 0-.511-.515zM25.111 1.029h14.774V28.59H24.02c-.703 0-1.406.299-1.861.685V3.993a2.945 2.945 0 0 1 2.952-2.964zm-21.702 0h14.774a2.936 2.936 0 0 1 2.946 2.851c.001.022.003.091.006.113v25.28a2.979 2.979 0 0 0-1.855-.683H3.408V1.029zM1.023 4.378h1.364v24.727c0 .284.229.515.511.515h16.383c.78 0 1.533.515 1.774 1.351H1.023V4.378zm41.248 26.593H22.239a1.85 1.85 0 0 1 1.78-1.351h16.377c.282 0 .511-.23.511-.515V4.378h1.364v26.593z" />
  </svg>
  <svg id="check" width="40" height="32" viewBox="0 0 40 32" x="144" y="0">
    <path
      d="M35.296 1.514a30.274 30.274 0 0 0-4.369 2.379c-2.797 1.797-5.355 3.936-7.754 6.218-2.398 2.287-4.63 4.735-6.741 7.28-.528.636-2.892 3.47-2.892 3.47L3.71 6.481-.001 16.523 13.292 32c1.291-2.551 2.533-5.07 3.752-7.258.303-.556.62-1.08.923-1.612 0 0 1.56-2.677 1.97-3.352 1.64-2.697 3.414-5.325 5.366-7.821 1.955-2.491 4.08-4.87 6.489-6.961a29.016 29.016 0 0 1 3.842-2.872c1.364-.848 2.814-1.591 4.365-2.125-1.613.31-3.187.848-4.704 1.514z" />
  </svg>
  <svg id="mobile-learning"  width="30" height="32" viewBox="0 0 32 32">
  <path d="M28.090 2.327h-13.424c-0.874 0-1.585 0.707-1.585 1.576v5.526l-9.973 4.162c-0.113 0.047-0.19 0.153-0.198 0.275s0.052 0.238 0.157 0.3l1.272 0.757v8.066c-0.65 0.148-1.138 0.726-1.138 1.419v0.778c0 0.178 0.145 0.323 0.325 0.323h2.277c0.179 0 0.325-0.145 0.325-0.323v-0.778c0-0.692-0.488-1.27-1.139-1.418v-7.681l1.006 0.599c-0.031 0.231-0.004-0.402-0.014 3.755 0 1.367 3.52 2.099 7.102 2.141v6.295c0 0.325 0.1 0.628 0.271 0.879 0.285 0.419 0.767 0.695 1.313 0.695h13.424c0.873 0 1.583-0.706 1.583-1.574 0 0.043-0.002-1.333 0-24.195 0-0.857-0.713-1.576-1.582-1.576zM5.478 24.408v0.455h-1.628v-0.455c0-0.447 0.364-0.812 0.812-0.812 0.45 0 0.816 0.364 0.816 0.812zM28.090 29.025h-13.424c-0.322 0-0.607-0.162-0.775-0.408-0.101-0.148-0.16-0.327-0.16-0.519v-2.182h15.29v2.183c0 0.506-0.424 0.926-0.931 0.926zM29.021 25.27h-15.291v-3.464c1.749-0.020 7.106-0.403 7.106-2.143-0.002-2.612 0.005-3.671-0.008-3.76l2.916-1.737c0.105-0.063 0.166-0.179 0.157-0.3s-0.085-0.228-0.198-0.275l-9.973-4.162v-2.697h15.291v18.539zM13.406 17.519c-1.801 0-5.27 0.231-6.777 1.21 0.010-2.993-0.104-2.798 0.266-3.052 0.936-0.685 3.613-1.164 6.511-1.164 1.264 0 6.781 0.345 6.781 1.507v2.709c-1.521-0.988-4.972-1.21-6.781-1.21zM13.731 3.903c0-0.512 0.419-0.929 0.934-0.929h13.424c0.515 0 0.932 0.422 0.932 0.928v2.182h-15.29v-2.182zM13.406 9.994l9.455 3.946-2.343 1.394c-1.246-1.228-5.366-1.466-7.112-1.466-1.749 0-5.869 0.239-7.112 1.467l-2.343-1.394 9.455-3.946zM6.629 19.664c0-0.523 2.328-1.498 6.777-1.498 4.452 0 6.781 0.976 6.781 1.498s-2.329 1.499-6.781 1.499c-4.449 0-6.777-0.976-6.777-1.499z"></path>
  <path d="M21.377 26.403c-0.592 0-1.074 0.479-1.074 1.068s0.482 1.069 1.074 1.069c0.592 0 1.074-0.479 1.074-1.069s-0.482-1.068-1.074-1.068zM21.377 27.894c-0.234 0-0.425-0.19-0.425-0.423s0.191-0.422 0.425-0.422c0.234 0 0.425 0.189 0.425 0.422s-0.191 0.423-0.425 0.423z"></path>
  <path d="M22.616 4.207h-2.478v0.646h2.478v-0.646z"></path>
  </svg>
  <svg id="doc" width="30" height="32" viewBox="0 0 30 32" x="192" y="0">
    <path
      d="m29.977 4.975-.001-.002a.32.32 0 0 0-.06-.09L25.068.084a.329.329 0 0 0-.041-.033l-.009-.006c-.012-.007-.024-.014-.036-.019l-.011-.005a.287.287 0 0 0-.1-.02H3.509a.285.285 0 0 0-.286.284v29.271c0 .019.002.037.006.056l.007.023.009.03.014.026.013.023c.01.014.021.028.033.04l.003.003 2.183 2.161a.288.288 0 0 0 .405 0l1.982-1.961 1.981 1.961c.056.056.129.083.203.083s.146-.027.202-.083l1.981-1.96 1.982 1.96a.288.288 0 0 0 .405 0l1.981-1.96 1.981 1.96a.288.288 0 0 0 .405 0l1.982-1.961 1.981 1.961c.056.056.129.083.202.083s.147-.027.203-.083l1.981-1.96 1.982 1.96a.288.288 0 0 0 .405 0l2.183-2.161.011-.014.024-.029c.007-.009.011-.02.017-.03.003-.007.007-.012.009-.019.006-.013.009-.026.012-.039l.005-.013a.278.278 0 0 0 .006-.058V5.085a.287.287 0 0 0-.023-.108zM25.151.969l3.869 3.83h-3.869V.969zm4.275 28.468-1.896 1.878-1.982-1.961a.29.29 0 0 0-.405 0l-1.981 1.961-1.981-1.961a.29.29 0 0 0-.405 0l-1.982 1.961-1.98-1.96v-.001a.289.289 0 0 0-.405 0l-1.98 1.961-1.982-1.961a.29.29 0 0 0-.405 0l-1.981 1.961-1.981-1.961a.29.29 0 0 0-.405 0l-1.982 1.961-1.897-1.878V.567h20.783v4.516c0 .157.128.284.287.284h4.561v24.071z" />
    <path
      d="M5.931 3.251h9.384c.158 0 .287-.127.287-.284s-.128-.284-.287-.284H5.931c-.159 0-.287.127-.287.284s.128.284.287.284zM5.931 5.005H20.98c.158 0 .287-.127.287-.284s-.128-.284-.287-.284H5.931c-.159 0-.287.127-.287.284s.128.284.287.284zM5.645 6.58v9.186c0 .157.128.284.287.284h21.357a.285.285 0 0 0 .286-.284V6.58a.285.285 0 0 0-.286-.284H5.932a.285.285 0 0 0-.287.284zm6.333.284h15.024v2.442H11.978V6.864zm0 3.009h15.024v2.441H11.978V9.873zm0 3.008h15.024v2.602H11.978v-2.602zm-5.76-6.017h5.187v2.442H6.218V6.864zm0 3.009h5.187v2.441H6.218V9.873zm0 3.008h5.187v2.602H6.218v-2.602zM27.289 17.327H5.932a.285.285 0 0 0-.287.284v9.186c0 .157.128.283.287.283s.286-.127.286-.283v-2.885h5.187v2.885c0 .157.128.283.286.283s.287-.127.287-.283v-2.885h15.024v2.885c0 .157.128.283.287.283s.286-.127.286-.283v-9.186a.284.284 0 0 0-.286-.284zm-15.884 6.017H6.218v-2.44h5.187v2.44zm0-3.008H6.218v-2.441h5.187v2.441zm15.597 3.008H11.978v-2.44h15.024v2.44zm0-3.008H11.978v-2.441h15.024v2.441zM1.863 0a.286.286 0 0 0-.287.284v29.271c0 .156.128.283.287.283s.287-.127.287-.283V.284A.285.285 0 0 0 1.863 0zM.287 0A.286.286 0 0 0 0 .284v29.271c0 .156.128.283.287.283s.286-.127.286-.283V.284A.285.285 0 0 0 .287 0z" />
  </svg>
  <svg id="english" width="37" height="32" viewBox="0 0 37 32" x="240" y="0">
    <path
      d="M2.318 29.826h12.404A3.786 3.786 0 0 0 18.15 32h.783c1.486 0 2.8-.853 3.429-2.174h12.41c1.278 0 2.318-1.054 2.318-2.349V4.965c0-1.295-1.04-2.349-2.318-2.349H33.52V1.567c0-.864-.693-1.566-1.545-1.566H5.108c-.852 0-1.545.702-1.545 1.566v1.049H2.319C1.041 2.616.001 3.67.001 4.965v22.512c0 1.295 1.04 2.349 2.318 2.349zm29.656-4.832H19.318V6.798c2.925.388 5.193 2.924 5.193 5.992v.706l-.183-.041a.772.772 0 0 0-.921.597l-1.23 5.672a.783.783 0 0 0 .589.932l2.658.594a1.979 1.979 0 0 0 2.352-1.533l.712-3.28a2.007 2.007 0 0 0-1.505-2.388l-.925-.207v-1.051c0-3.934-2.959-7.179-6.739-7.575v-3.65h12.657l-.001 23.428zm-7.223-9.84 1.898.424a.434.434 0 0 1 .33.522l-.712 3.28a.457.457 0 0 1-.515.34l-1.9-.424.899-4.142zM5.108 1.566h12.665v3.649c-3.784.391-6.746 3.64-6.746 7.576v1.051l-.927.207a1.968 1.968 0 0 0-1.24.877 2.007 2.007 0 0 0-.263 1.509l.71 3.277a1.993 1.993 0 0 0 1.936 1.583c.14 0 .279-.015.422-.046l2.647-.593a.783.783 0 0 0 .588-.932l-1.23-5.672a.773.773 0 0 0-.922-.597l-.177.04v-.705c0-3.071 2.272-5.609 5.201-5.993v18.197H5.107V1.566zm7.219 13.588.899 4.141-1.89.423a.439.439 0 0 1-.519-.337l-.712-3.284a.433.433 0 0 1 .328-.52l1.893-.423zM1.545 4.964c0-.432.346-.783.773-.783h1.244v20.813c0 .864.694 1.566 1.545 1.566h26.867c.852 0 1.545-.702 1.545-1.566V4.181h1.252c.426 0 .773.351.773.783v22.512a.778.778 0 0 1-.773.783H21.835a.774.774 0 0 0-.739.553 2.257 2.257 0 0 1-2.165 1.621h-.783c-.998 0-1.867-.649-2.168-1.63a.775.775 0 0 0-.736-.544H2.316a.779.779 0 0 1-.773-.783V4.964z" />
  </svg>
  <svg id="finance" width="28" height="32" viewBox="0 0 28 32" x="288" y="0">
    <path
      d="M.542 13.742c0 .357-.542.357-.542 0C0 6.154 6.154 0 13.742 0c7.591 0 13.742 6.154 13.742 13.742 0 .357-.539.357-.539 0 0-5.129-8.428-5.132-8.428 0 0 .357-.555.357-.555 0 0-5.116-8.441-5.116-8.441 0 0 .357-.555.357-.555 0 0-5.106-8.425-5.142-8.425 0zm8.473-1.992c.146-2.952.61-5.599 1.285-7.62.539-1.606 1.22-2.826 1.992-3.51C6.498 1.253 1.807 5.645.759 11.342c1.995-2.878 6.602-2.647 8.256.409zm8.906-.133c-.149-2.839-.6-5.379-1.249-7.316-1.674-5.012-4.185-5.012-5.859 0-.649 1.937-1.097 4.477-1.249 7.316 1.8-3.059 6.556-3.059 8.357 0zm8.804-.276A13.205 13.205 0 0 0 15.192.619c.775.684 1.453 1.904 1.992 3.51.675 2.021 1.139 4.668 1.285 7.62 1.664-3.072 6.284-3.254 8.256-.409zM11.938 20.03v-2.791c-.503.334-.899.85-.899 1.48 0 .613.402 1.019.899 1.311zm.542.866c-.963-.441-1.979-.957-1.979-2.177 0-1.259.957-1.888 1.979-2.359v4.536zM15.546 24.24v2.822c.509-.337.908-.856.908-1.486 0-.62-.409-1.038-.908-1.337zm-.539-.869c.967.448 1.989.98 1.989 2.206 0 1.262-.963 1.891-1.989 2.358v-4.564z" />
    <path
      d="M15.546 14.063c2.219.513 4.5 2.174 4.5 4.655 0 2.125-3.591 2.047-3.591 0 0-.633-.399-1.152-.908-1.486v3.971c2.054.672 4.506 1.875 4.506 4.373 0 2.485-2.281 4.143-4.506 4.652-.01 2.365-3.601 2.362-3.607-.003-1.265-.292-2.365-.882-3.16-1.664-.834-.824-1.327-1.859-1.327-2.985 0-2.093 3.588-2.093 3.588 0 0 .626.396 1.142.899 1.476v-3.968c-2.037-.659-4.503-1.898-4.503-4.373 0-2.485 2.281-4.143 4.503-4.652.01-2.365 3.601-2.362 3.607.003zm-3.066.007v.431c-2.112.419-4.506 1.771-4.506 4.211 0 2.346 2.628 3.397 4.506 3.977v5.243c-1.015-.464-1.979-1.09-1.979-2.355 0-1.382-2.511-1.382-2.511 0 0 .976.435 1.878 1.168 2.599.931.921 2.06 1.359 3.322 1.609v.435c0 1.664 2.527 1.664 2.527 0v-.431c2.118-.422 4.503-1.775 4.503-4.211 0-2.368-2.621-3.387-4.503-3.981v-5.239c1.019.464 1.989 1.09 1.989 2.362 0 1.346 2.508 1.402 2.508 0 0-2.436-2.381-3.792-4.496-4.214v-.435c0-1.664-2.527-1.664-2.527 0z" />
  </svg>
  <svg id="fire" width="23" height="32" viewBox="0 0 23 32" x="336" y="0">
    <path
      d="M21.909 16.593c-.284-.635-.675-1.261-1.247-1.983-1.442-1.813-1.882-5.857-1.887-5.896a.488.488 0 0 0-.337-.412.495.495 0 0 0-.518.141c-1.721 1.925-.997 4.897-.606 6.085.108.325.225.708.308 1.096.636 3.137-.592 4.558-.88 4.844-.279.078-.469.039-.645-.15-.606-.664-.807-2.841-.523-5.678a5.797 5.797 0 0 0-.039-1.581c-.598-3.486-2.791-5.722-3.349-6.507C10.651 4.283 10.494.506 10.49.472a.487.487 0 0 0-.763-.383C7.165 1.83 7.385 6.024 7.742 8.365c.083.543.244 1.096.523 1.794.992 2.497-.196 5.721-.205 5.75s-.02.053-.024.082c-.152.795-.406 1.27-.689 1.27a.327.327 0 0 1-.093-.015c-.347-.073-.528-.441-.533-.761-.02-4.136-4.17-5.527-4.214-5.542a.485.485 0 0 0-.518.146.476.476 0 0 0-.068.533c.049.102.205.548.098 2.124a18.09 18.09 0 0 1-.768 4.16C.263 21.125.42 24.175.43 24.321c.759 8.257 12.635 9.704 19.683 5.052.772-.509 1.403-1.091 1.868-1.731 2.601-3.588 1.071-8.461-.068-11.05zM3.845 24.481a.484.484 0 0 1-.46.509h-.029a.487.487 0 0 1-.489-.456c-.044-.708-.034-1.45.02-2.255a.49.49 0 0 1 .978.068 15.622 15.622 0 0 0-.02 2.133zm.239-4.296a.485.485 0 0 1-.484.427c-.02 0-.039 0-.064-.005a.488.488 0 0 1-.425-.538l.235-1.872a.494.494 0 0 1 .548-.422c.269.034.46.276.425.543l-.235 1.867z" />
  </svg>
  <svg id="phone" width="32" height="32" viewBox="0 0 32 32" x="384" y="0">
    <path
      d="M4.657.003a1.969 1.969 0 0 0-1.392.678L.67 3.65c.004-.009-.01-.008-.084.101a.656.656 0 0 0-.09.184C-.56 7.437.148 11.289 1.872 14.953S6.347 22.123 9.505 25c3.158 2.877 6.721 5.128 10.119 6.244s6.692 1.102 9.133-.742a.536.536 0 0 0 .075-.068c.064-.067.066-.075.056-.065l.01-.013L31.48 27.4c.742-.849.682-2.184-.134-2.956l-6.126-5.799a1.965 1.965 0 0 0-2.84.138l-2.772 3.173c-2.25-.678-4.173-1.828-6.023-3.58s-3.132-3.637-3.993-5.905l2.771-3.173c.742-.849.683-2.184-.133-2.956L6.104.542A1.962 1.962 0 0 0 4.656.003h-.001zm.058 1.301c.19-.009.383.06.541.209l6.126 5.8a.788.788 0 0 1 .05 1.104l-3.063 3.504a.667.667 0 0 0-.124.665c.93 2.641 2.429 4.807 4.493 6.761s4.275 3.304 6.889 4.018a.612.612 0 0 0 .626-.193l3.064-3.505a.716.716 0 0 1 1.06-.051l6.127 5.8a.786.786 0 0 1 .049 1.103l-2.561 2.93c-2.003 1.497-4.826 1.581-7.986.542-3.173-1.043-6.617-3.202-9.666-5.98s-5.702-6.169-7.332-9.633C1.394 10.949.809 7.483 1.696 4.428l2.502-2.862a.736.736 0 0 1 .52-.261z" />
  </svg>
  <svg id="support"  width="37" height="32" viewBox="0 0 32 32">
  <path d="M4.055 13.287v2.471c0 0.133 0.060 0.258 0.164 0.34 1.677 1.329 3.78 2.061 5.924 2.061 0.642 0 1.284-0.068 1.912-0.195 1.338 0.596 2.763 0.901 4.237 0.901 1.479 0 2.904-0.305 4.237-0.901 2.678 0.545 5.532-0.040 7.835-1.866 0.104-0.082 0.164-0.208 0.164-0.34v-2.471c0-0.363-0.179-0.693-0.498-0.896l-3.351-1.899c0.733-0.937 1.279-2.271 1.374-3.415 0.278-1.969-1.315-4.055-3.609-4.055-0.965 0-1.881 0.4-2.554 1.071-0.023 0.023-0.050 0.043-0.072 0.067-0.021 0.022-0.038 0.047-0.058 0.070-0.013 0.015-0.025 0.031-0.038 0.046-0.656-1.204-1.916-1.948-3.4-1.948-0.144 0-0.286 0.010-0.426 0.024-0.009-0.001-0.016-0.005-0.024-0.005-0.080 0-0.248 0.021-0.339 0.047-0.013 0.004-0.023 0.013-0.036 0.018-1.109 0.226-2.048 0.902-2.611 1.882-0.677-0.795-1.672-1.272-2.754-1.272-3.386 0-4.888 4.025-2.216 7.489l-3.382 1.891c-0.3 0.191-0.479 0.522-0.479 0.885zM20.52 17.013c-0.073 0.036-0.145 0.074-0.218 0.107l-0 0c-0.001 0-0.001 0.001-0.002 0.001-1.258 0.582-2.607 0.878-4.009 0.878-1.398 0-2.747-0.295-4.011-0.879-0.615-0.282-1.21-0.64-1.772-1.065v-2.505c0-0.085 0.041-0.161 0.089-0.193l3.935-2.203c0.49 0.419 1.115 0.726 1.763 0.726 0.624 0 1.299-0.312 1.778-0.736l3.888 2.199c0.072 0.046 0.113 0.122 0.113 0.207v2.504c-0.495 0.375-1.016 0.694-1.554 0.958zM27.588 13.133c0.051 0.032 0.080 0.088 0.080 0.154v2.258c-1.706 1.289-3.758 1.874-5.837 1.728 0.32-0.201 0.668-0.451 0.938-0.663 0.104-0.082 0.164-0.207 0.164-0.341v-2.718c0-0.38-0.189-0.729-0.529-0.948l-2.065-1.169 0.502-0.28c0.609 0.5 1.132 0.649 1.602 0.649 0.574 0 1.178-0.284 1.627-0.662l3.518 1.993zM22.444 3.888c1.196 0 2.247 0.787 2.618 1.87-0.722-0.086-1.427-0.445-1.938-0.997-0.092-0.1-0.224-0.151-0.36-0.135-0.134 0.014-0.254 0.092-0.323 0.208-0.49 0.827-1.294 1.379-2.207 1.536 0-0.001-0-0.002-0-0.003 0.004-0.188-0.007-0.379-0.028-0.57-0.002-0.020-0.004-0.039-0.006-0.058-0.028-0.217-0.093-0.488-0.105-0.531 0.488-0.787 1.394-1.32 2.351-1.32zM20.139 7.253c1.086-0.12 2.067-0.669 2.742-1.538 0.665 0.549 1.508 0.882 2.341 0.922-0.006 1.564-1.275 4.3-2.778 4.3-1.159 0-2.148-1.669-2.517-2.826 0.094-0.298 0.162-0.584 0.213-0.858zM20.226 10.507l-0.768 0.428-0.775-0.439c0.287-0.361 0.551-0.779 0.777-1.233 0.217 0.459 0.477 0.882 0.766 1.244zM19.068 7.969c-0.414 1.245-1.477 3.046-2.772 3.046-1.51 0-2.795-2.5-3.040-4.098 0.065-0.016 2.105 0.11 3.509-1.746 0.712 0.6 1.674 0.998 2.609 1.037 0.011 0.564-0.125 1.227-0.305 1.761zM16.321 3.193c2.408 0 2.867 2.088 2.905 2.131-0.873-0.089-1.67-0.52-2.221-1.113-0.092-0.1-0.227-0.15-0.36-0.135s-0.254 0.093-0.323 0.21c-0.477 0.813-1.225 1.386-2.092 1.63-0.334 0.094-0.696 0.137-1.011 0.134 0.118-1.59 1.383-2.857 3.102-2.857zM13.125 9.255c0.223 0.449 0.488 0.878 0.791 1.255l-0.759 0.425-0.786-0.445c0.298-0.383 0.551-0.811 0.753-1.235zM10.131 3.888c0.974 0 1.867 0.498 2.365 1.321-0.025 0.087-0.092 0.435-0.101 0.478-0.598-0.144-1.147-0.465-1.578-0.927-0.093-0.099-0.224-0.149-0.36-0.134-0.134 0.015-0.254 0.093-0.323 0.21-0.575 0.977-1.63 1.584-2.753 1.584 0.137-1.42 1.315-2.531 2.75-2.531zM7.419 7.282c1.235-0.012 2.4-0.598 3.156-1.567 0.516 0.428 1.129 0.71 1.781 0.839 0.025 0.502 0.155 1.111 0.303 1.561-0.237 0.733-0.692 1.606-1.257 2.187-0.004 0.004-0.008 0.005-0.012 0.009-0.353 0.375-0.856 0.627-1.251 0.627-1.381 0-2.461-2.189-2.721-3.655zM4.914 13.287c0-0.066 0.029-0.121 0.058-0.141l3.566-1.993c0.214 0.179 0.263 0.2 0.306 0.232l-0 0c0.42 0.281 0.804 0.421 1.329 0.421 0.559 0 1.068-0.239 1.516-0.606 0.025-0.020 0.052-0.039 0.076-0.059l0.509 0.288-2.12 1.188c-0.317 0.206-0.506 0.555-0.506 0.935v2.718c0 0.133 0.060 0.258 0.164 0.34 0.274 0.217 0.63 0.47 0.938 0.664-2.109 0.145-4.161-0.461-5.838-1.728v-2.258z"></path>
  <path d="M29.412 20.463c-0.529-0.335-1.179-0.369-1.739-0.096l-5.302 2.58c-0.018-1-0.828-1.808-1.825-1.808l-3.040 0.001c-1.499-1.313-3.415-2.116-5.157-2.159-1.718-0.041-3.26-0.053-3.979-0.056v-0.874h-6.041v10.051h6.041v-1.204c1.657 0.957 6.012 3.356 8.079 3.356 0.047 0 0.093-0.001 0.137-0.004 3.635-0.205 12.209-6.282 12.775-6.686 0.553-0.323 0.896-0.922 0.896-1.567 0-0.628-0.315-1.201-0.843-1.535zM7.509 27.237h-4.322v-8.32h4.322v8.32zM28.916 22.823c-0.013 0.007-0.026 0.015-0.038 0.024-0.089 0.063-8.908 6.346-12.342 6.54-0.034 0.002-0.068 0.003-0.105 0.003-1.813 0-6.233-2.402-8.064-3.492v-6.106c0.716 0.003 2.25 0.015 3.959 0.056 1.591 0.038 3.358 0.804 4.727 2.047l0.123 0.112 3.368-0.001c0.535 0 0.97 0.438 0.97 0.976s-0.435 0.977-0.969 0.977h-6.188v0.866h6.188c0.593 0 1.116-0.29 1.45-0.733l6.051-2.944c0.297-0.146 0.628-0.127 0.909 0.050s0.44 0.469 0.44 0.801c0 0.341-0.183 0.657-0.479 0.825z"></path>
  <path d="M16.721 12.938h-0.859v0.803h0.859v-0.803z"></path>
  <path d="M16.721 14.539h-0.859v0.803h0.859v-0.803z"></path>
  <path d="M16.721 16.139h-0.859v0.802h0.859v-0.802z"></path>
  </svg>
  <svg id="teach" width="27" height="32" viewBox="0 0 27 32" x="480" y="0">
    <path
      d="M.059 31.693h27.355c.136-3.12-.088-8.295-2.006-10.759l-.069-.088-4.191-2.104c.091-.307.136-.588.154-.795a1.449 1.449 0 0 0-.102-.692c-.691-1.655-2.155-2.525-2.959-2.896a5.158 5.158 0 0 0 .48-1.567c.456-.128.822-.489.942-.971l.489-1.987a1.343 1.343 0 0 0-.154-1.023 1.346 1.346 0 0 0-.3-.341c1.379-3.133-.931-6.087-1.057-6.243C16.139-.478 12.979.028 12.812.058c-4.561.955-6.321 4.451-5.328 8.55-.294.326-.418.78-.309 1.226l.492 1.99c.119.478.483.838.935.968.139.993.56 1.89 1.177 2.614v1.576c-6.545 3.352-2.398 1.213-7.643 3.867-.01.049-2.461 2.654-2.097 10.375l.022.472zm26.404-.99h-4.502v-1.891l2.978-6.816c1.492 2.476 1.547 7.203 1.524 8.708zm-6.144-12.841c-.174 1.996-1.268 1.393-1.944 2.93-.531-.584-.691-1.285-.548-2.035.258-1.377-.583-1.786-.375-3.233l.031-.033v-.005c.018-.02.184-.217.232-.28 1.781.777 2.639 2.221 2.604 2.656zm-9.556-1.568a5.068 5.068 0 0 0 2.899.912 5.06 5.06 0 0 0 2.795-.836c.114 1.138.559 1.365.401 2.203a3.52 3.52 0 0 0-.055.459l-3.066 3.456-3.919-4.419.946-.494v-1.281zm-1.232-4.229V6.783c.477-.883 1.128-1.522 1.936-1.906 2.165 1.225 4.657 3.053 6.329 4.893-.002 2.343.007 2.35-.009 2.542l-.001.012c-.13 2.128-1.88 3.892-4.124 3.892-2.181 0-3.992-1.713-4.123-3.913a2.69 2.69 0 0 1-.008-.238zm-.611 6.482 4.816 5.43 3.234-3.644c.074.213.178.414.296.608l-3.53 4.414-5.264-6.583.447-.224zm9.862-7.279v-1.53l.368-.421c.02.775.104-.14-.368 1.951zM12.993 1.029c.196.012 2.824-.4 4.901 1.843.082.103 1.773 2.281 1.093 4.665-.233-1.061-.638-2.42-1.278-3.068l-.7.697c.632.641 1.048 2.591 1.206 3.602-2.901-3.035-6.643-4.957-6.694-4.989-.188.117-1.771.418-2.921 2.653l-.055.107v1.642l-.145.002c-.731-3.528.669-6.33 4.593-7.153zM8.296 9.201l.249 1.008v1.06l-.414-1.674c-.061-.25.124-.344.165-.394zm-.725 10.023 6.166 7.712 4.172-5.218c.454.406.672.464 1.634.959l-.325-1.101c-.082-.279.244-.728.441-.934.44-.238.806-.579 1.08-.998l3.404 1.709-3.167 7.251v2.099H6.499v-2.099l-3.169-7.25 4.242-2.129zm-5.037 2.773 2.978 6.815v1.891H1.01c-.023-1.504.033-6.229 1.524-8.706z" />
  </svg>
  <svg id="menu" width="32" height="32" viewBox="0 0 32 32" x="528" y="0">
    <path d="M6.4 11.733V9.6h19.2v2.133H6.4zm0 5.334h19.2v-2.133H6.4v2.133zm0 5.333h19.2v-2.133H6.4V22.4z" />
  </svg>
  <svg id="menuclose" width="32" height="32" viewBox="0 0 32 32" x="576" y="0">
    <path
      d="M23.733 10.304 22.229 8.8l-5.963 5.963L10.303 8.8l-1.504 1.504 5.963 5.963-5.963 5.963 1.504 1.504 5.963-5.963 5.963 5.963 1.504-1.504-5.963-5.963 5.963-5.963z" />
  </svg>
  <symbol id="facebook" viewBox="0 0 31 32">
    <path fill="#436eab" style="fill: var(--color1, #436eab)"
      d="M27.65 0.549h-24.332c-0.88 0-1.724 0.347-2.346 0.963s-0.972 1.453-0.972 2.326v24.12c0 0.872 0.35 1.709 0.972 2.326s1.466 0.963 2.346 0.963h9.487v-10.437h-4.355v-4.912h4.355v-3.744c0-4.259 2.558-6.611 6.475-6.611 1.876 0 3.838 0.332 3.838 0.332v4.18h-2.161c-2.13 0-2.794 1.31-2.794 2.654v3.19h4.754l-0.76 4.912h-3.994v10.437h9.487c0.88 0 1.724-0.347 2.346-0.963s0.972-1.453 0.972-2.326v-24.12c0-0.872-0.35-1.709-0.972-2.326s-1.466-0.963-2.346-0.963z">
    </path>
  </symbol>
</svg>