<svg aria-hidden="true" style="position:absolute;width:0;height:0;overflow:hidden" xmlns="http://www.w3.org/2000/svg">
  <defs>
    <symbol id="autors" viewBox="0 0 27 32">
      <path
        d="M.059 31.693h27.355c.136-3.12-.088-8.295-2.006-10.759l-.069-.088-4.191-2.104c.091-.307.136-.588.154-.795a1.449 1.449 0 0 0-.102-.692c-.691-1.655-2.155-2.525-2.959-2.896a5.158 5.158 0 0 0 .48-1.567c.456-.128.822-.489.942-.971l.489-1.987a1.343 1.343 0 0 0-.154-1.023 1.346 1.346 0 0 0-.3-.341c1.379-3.133-.931-6.087-1.057-6.243C16.139-.478 12.979.028 12.812.058c-4.561.955-6.321 4.451-5.328 8.55-.294.326-.418.78-.309 1.226l.492 1.99c.119.478.483.838.935.968.139.993.56 1.89 1.177 2.614v1.576c-6.545 3.352-2.398 1.213-7.643 3.867-.01.049-2.461 2.654-2.097 10.375l.022.472zm26.404-.99h-4.502v-1.891l2.978-6.816c1.492 2.476 1.547 7.203 1.524 8.708zm-6.144-12.841c-.174 1.996-1.268 1.393-1.944 2.93-.531-.584-.691-1.285-.548-2.035.258-1.377-.583-1.786-.375-3.233l.031-.033v-.005c.018-.02.184-.217.232-.28 1.781.777 2.639 2.221 2.604 2.656zm-9.556-1.568a5.068 5.068 0 0 0 2.899.912 5.06 5.06 0 0 0 2.795-.836c.114 1.138.559 1.365.401 2.203a3.52 3.52 0 0 0-.055.459l-3.066 3.456-3.919-4.419.946-.494v-1.281zm-1.232-4.229V6.783c.477-.883 1.128-1.522 1.936-1.906 2.165 1.225 4.657 3.053 6.329 4.893-.002 2.343.007 2.35-.009 2.542l-.001.012c-.13 2.128-1.88 3.892-4.124 3.892-2.181 0-3.992-1.713-4.123-3.913a2.69 2.69 0 0 1-.008-.238zm-.611 6.482 4.816 5.43 3.234-3.644c.074.213.178.414.296.608l-3.53 4.414-5.264-6.583.447-.224zm9.862-7.279v-1.53l.368-.421c.02.775.104-.14-.368 1.951zM12.993 1.029c.196.012 2.824-.4 4.901 1.843.082.103 1.773 2.281 1.093 4.665-.233-1.061-.638-2.42-1.278-3.068l-.7.697c.632.641 1.048 2.591 1.206 3.602-2.901-3.035-6.643-4.957-6.694-4.989-.188.117-1.771.418-2.921 2.653l-.055.107v1.642l-.145.002c-.731-3.528.669-6.33 4.593-7.153zM8.296 9.201l.249 1.008v1.06l-.414-1.674c-.061-.25.124-.344.165-.394zm-.725 10.023 6.166 7.712 4.172-5.218c.454.406.672.464 1.634.959l-.325-1.101c-.082-.279.244-.728.441-.934.44-.238.806-.578 1.08-.998l3.404 1.709-3.167 7.251v2.099H6.499v-2.099l-3.169-7.25 4.242-2.129zm-5.037 2.773 2.978 6.815v1.891H1.01c-.023-1.504.033-6.229 1.524-8.706z" />
    </symbol>
    <symbol id="book" viewBox="0 0 43 32">
      <path
        d="M19.102 4.52H5.443v1.028h13.659V4.52zM19.101 8.357H7.488v1.028h11.613V8.357zM19.102 12.195H5.443v1.028h13.659v-1.028zM19.101 16.032H7.488v1.028h11.613v-1.028zM19.102 19.869H5.443v1.028h13.659v-1.028zM19.101 23.707H7.488v1.028h11.613v-1.028zM37.851 4.52H24.192v1.028h13.659V4.52zM35.805 8.357H24.192v1.028h11.613V8.357zM37.851 12.195H24.192v1.028h13.659v-1.028zM35.805 16.032H24.192v1.028h11.613v-1.028zM37.851 19.869H24.192v1.028h13.659v-1.028zM35.805 23.707H24.192v1.028h11.613v-1.028z" />
      <path
        d="M42.783 3.348h-1.875V.514a.513.513 0 0 0-.511-.515H25.111a3.95 3.95 0 0 0-3.463 2.026 3.951 3.951 0 0 0-3.464-2.026H2.898a.513.513 0 0 0-.511.515v2.834H.512a.513.513 0 0 0-.511.515v27.622c0 .284.229.515.511.515h42.271c.282 0 .511-.23.511-.515V3.863a.513.513 0 0 0-.511-.515zM25.111 1.029h14.774V28.59H24.02c-.703 0-1.406.299-1.861.685V3.993a2.945 2.945 0 0 1 2.952-2.964zm-21.702 0h14.774a2.936 2.936 0 0 1 2.946 2.851c.001.022.003.091.006.113v25.28a2.979 2.979 0 0 0-1.855-.683H3.408V1.029zM1.023 4.378h1.364v24.727c0 .284.229.515.511.515h16.383c.78 0 1.533.515 1.774 1.351H1.023V4.378zm41.248 26.593H22.239a1.85 1.85 0 0 1 1.78-1.351h16.377c.282 0 .511-.23.511-.515V4.378h1.364v26.593z" />
    </symbol>
    <symbol id="check" viewBox="0 0 40 32">
      <path
        d="M35.296 1.514a30.274 30.274 0 0 0-4.369 2.379c-2.797 1.797-5.355 3.936-7.754 6.218-2.398 2.287-4.63 4.735-6.741 7.28-.528.636-2.892 3.47-2.892 3.47L3.71 6.481-.001 16.523 13.292 32c1.291-2.551 2.533-5.07 3.752-7.258.303-.556.62-1.08.923-1.612 0 0 1.56-2.677 1.97-3.352 1.64-2.697 3.414-5.325 5.366-7.821 1.955-2.491 4.08-4.87 6.489-6.961a29.016 29.016 0 0 1 3.842-2.872c1.364-.848 2.814-1.591 4.365-2.125-1.613.31-3.187.848-4.704 1.514z" />
    </symbol>
    <symbol id="doc" viewBox="0 0 30 32">
      <path
        d="m29.977 4.975-.001-.002a.32.32 0 0 0-.06-.09L25.068.084a.329.329 0 0 0-.041-.033l-.009-.006c-.012-.007-.024-.014-.036-.019l-.011-.005a.287.287 0 0 0-.1-.02H3.509a.285.285 0 0 0-.286.284v29.271c0 .019.002.037.006.056l.007.023.009.03.014.026.013.023c.01.014.021.028.033.04l.003.003 2.183 2.161a.288.288 0 0 0 .405 0l1.982-1.961 1.981 1.961c.056.056.129.083.203.083s.146-.027.202-.083l1.981-1.96 1.982 1.96a.288.288 0 0 0 .405 0l1.981-1.96 1.981 1.96a.288.288 0 0 0 .405 0l1.982-1.961 1.981 1.961c.056.056.129.083.202.083s.147-.027.203-.083l1.981-1.96 1.982 1.96a.288.288 0 0 0 .405 0l2.183-2.161.011-.014.024-.029c.007-.009.011-.02.017-.03.003-.007.007-.012.009-.019.006-.013.009-.026.012-.039l.005-.013a.278.278 0 0 0 .006-.058V5.085a.287.287 0 0 0-.023-.108zM25.151.969l3.869 3.83h-3.869V.969zm4.275 28.468-1.896 1.878-1.982-1.961a.29.29 0 0 0-.405 0l-1.981 1.961-1.981-1.961a.29.29 0 0 0-.405 0l-1.982 1.961-1.98-1.96v-.001a.289.289 0 0 0-.405 0l-1.98 1.961-1.982-1.961a.29.29 0 0 0-.405 0l-1.981 1.961-1.981-1.961a.29.29 0 0 0-.405 0l-1.982 1.961-1.897-1.878V.567h20.783v4.516c0 .157.128.284.287.284h4.561v24.071z" />
      <path
        d="M5.931 3.251h9.384c.158 0 .287-.127.287-.284s-.128-.284-.287-.284H5.931c-.159 0-.287.127-.287.284s.128.284.287.284zM5.931 5.005H20.98c.158 0 .287-.127.287-.284s-.128-.284-.287-.284H5.931c-.159 0-.287.127-.287.284s.128.284.287.284zM5.645 6.58v9.186c0 .157.128.284.287.284h21.357a.285.285 0 0 0 .286-.284V6.58a.285.285 0 0 0-.286-.284H5.932a.285.285 0 0 0-.287.284zm6.333.284h15.024v2.442H11.978V6.864zm0 3.009h15.024v2.441H11.978V9.873zm0 3.008h15.024v2.602H11.978v-2.602zm-5.76-6.017h5.187v2.442H6.218V6.864zm0 3.009h5.187v2.441H6.218V9.873zm0 3.008h5.187v2.602H6.218v-2.602zM27.289 17.327H5.932a.285.285 0 0 0-.287.284v9.186c0 .157.128.283.287.283s.286-.127.286-.283v-2.885h5.187v2.885c0 .157.128.283.286.283s.287-.127.287-.283v-2.885h15.024v2.885c0 .157.128.283.287.283s.286-.127.286-.283v-9.186a.284.284 0 0 0-.286-.284zm-15.884 6.017H6.218v-2.44h5.187v2.44zm0-3.008H6.218v-2.441h5.187v2.441zm15.597 3.008H11.978v-2.44h15.024v2.44zm0-3.008H11.978v-2.441h15.024v2.441zM1.863 0a.286.286 0 0 0-.287.284v29.271c0 .156.128.283.287.283s.287-.127.287-.283V.284A.285.285 0 0 0 1.863 0zM.287 0A.286.286 0 0 0 0 .284v29.271c0 .156.128.283.287.283s.286-.127.286-.283V.284A.285.285 0 0 0 .287 0z" />
    </symbol>
    <symbol id="mobile-learning" viewBox="0 0 31 32">
      <path
        d="M29.467 0h-15.709c-1.023 0-1.855 0.827-1.855 1.844v6.466l-11.671 4.871c-0.132 0.055-0.222 0.179-0.232 0.321s0.061 0.278 0.184 0.351l1.488 0.886v9.439c-0.761 0.173-1.332 0.85-1.332 1.66v0.91c0 0.209 0.17 0.378 0.38 0.378h2.665c0.21 0 0.38-0.169 0.38-0.378v-0.91c0-0.809-0.571-1.486-1.333-1.659v-8.988l1.177 0.7c-0.036 0.27-0.005-0.47-0.017 4.395 0 1.599 4.119 2.456 8.311 2.505v7.366c0 0.381 0.117 0.734 0.317 1.028 0.333 0.49 0.898 0.813 1.536 0.813h15.709c1.022 0 1.853-0.827 1.853-1.842 0 0.050-0.002-1.56 0-28.313 0-1.003-0.834-1.844-1.852-1.844zM3.006 25.839v0.532h-1.905v-0.532c0-0.524 0.426-0.95 0.95-0.95 0.527 0 0.955 0.426 0.955 0.95zM29.467 31.242h-15.709c-0.377 0-0.71-0.19-0.907-0.478-0.118-0.173-0.187-0.382-0.187-0.607v-2.554h17.893v2.555c0 0.592-0.496 1.084-1.090 1.084zM30.557 26.848h-17.893v-4.054c2.046-0.023 8.316-0.471 8.316-2.507-0.002-3.056 0.005-4.295-0.010-4.4l3.413-2.033c0.123-0.073 0.194-0.209 0.184-0.351s-0.1-0.266-0.232-0.321l-11.67-4.871v-3.157h17.893v21.695zM12.284 17.778c-2.108 0-6.167 0.271-7.931 1.416 0.011-3.502-0.122-3.274 0.312-3.571 1.095-0.802 4.228-1.362 7.619-1.362 1.479 0 7.936 0.404 7.936 1.764v3.17c-1.78-1.156-5.818-1.416-7.936-1.416zM12.664 1.844c0-0.599 0.49-1.087 1.093-1.087h15.709c0.603 0 1.091 0.494 1.091 1.086v2.554h-17.893v-2.553zM12.284 8.971l11.064 4.618-2.741 1.631c-1.458-1.437-6.279-1.716-8.323-1.716-2.046 0-6.868 0.28-8.322 1.716l-2.742-1.632 11.065-4.618zM4.353 20.287c0-0.612 2.724-1.753 7.931-1.753 5.21 0 7.936 1.142 7.936 1.753s-2.726 1.754-7.936 1.754c-5.207 0-7.931-1.142-7.931-1.754z">
      </path>
      <path
        d="M21.611 28.174c-0.693 0-1.257 0.56-1.257 1.25s0.564 1.25 1.257 1.25c0.693 0 1.257-0.561 1.257-1.25s-0.564-1.25-1.257-1.25zM21.611 29.918c-0.274 0-0.497-0.222-0.497-0.495s0.223-0.494 0.497-0.494c0.274 0 0.497 0.221 0.497 0.494s-0.223 0.495-0.497 0.495z">
      </path>
      <path d="M23.062 2.2h-2.899v0.756h2.899v-0.756z"></path>
    </symbol>
    <symbol id="english" viewBox="0 0 37 32">
      <path
        d="M2.318 29.826h12.404A3.786 3.786 0 0 0 18.15 32h.783c1.486 0 2.8-.853 3.429-2.174h12.41c1.278 0 2.318-1.054 2.318-2.349V4.965c0-1.295-1.04-2.349-2.318-2.349H33.52V1.567c0-.864-.693-1.566-1.545-1.566H5.108c-.852 0-1.545.702-1.545 1.566v1.049H2.319C1.041 2.616.001 3.67.001 4.965v22.512c0 1.295 1.04 2.349 2.318 2.349zm29.656-4.832H19.318V6.798c2.925.388 5.193 2.924 5.193 5.992v.706l-.183-.041a.772.772 0 0 0-.921.597l-1.23 5.672a.783.783 0 0 0 .589.932l2.658.594a1.979 1.979 0 0 0 2.352-1.533l.712-3.28a2.007 2.007 0 0 0-1.505-2.388l-.925-.207v-1.051c0-3.934-2.959-7.179-6.739-7.575v-3.65h12.657l-.001 23.428zm-7.223-9.84 1.898.424a.434.434 0 0 1 .33.522l-.712 3.28a.457.457 0 0 1-.515.34l-1.9-.424.899-4.142zM5.108 1.566h12.665v3.649c-3.784.391-6.746 3.64-6.746 7.576v1.051l-.927.207a1.968 1.968 0 0 0-1.24.877 2.007 2.007 0 0 0-.263 1.509l.71 3.277a1.993 1.993 0 0 0 1.936 1.583c.14 0 .279-.015.422-.046l2.647-.593a.783.783 0 0 0 .588-.932l-1.23-5.672a.773.773 0 0 0-.922-.597l-.177.04v-.705c0-3.071 2.272-5.609 5.201-5.993v18.197H5.107V1.566zm7.219 13.588.899 4.141-1.89.423a.439.439 0 0 1-.519-.337l-.712-3.284a.433.433 0 0 1 .328-.52l1.893-.423zM1.545 4.964c0-.432.346-.783.773-.783h1.244v20.813c0 .864.694 1.566 1.545 1.566h26.867c.852 0 1.545-.702 1.545-1.566V4.181h1.252c.426 0 .773.351.773.783v22.512a.778.778 0 0 1-.773.783H21.835a.774.774 0 0 0-.739.553 2.257 2.257 0 0 1-2.165 1.621h-.783c-.998 0-1.867-.649-2.168-1.63a.775.775 0 0 0-.736-.544H2.316a.779.779 0 0 1-.773-.783V4.964z" />
    </symbol>
    <symbol id="finance" viewBox="0 0 28 32">
      <path
        d="M.542 13.742c0 .357-.542.357-.542 0C0 6.154 6.154 0 13.742 0c7.591 0 13.742 6.154 13.742 13.742 0 .357-.539.357-.539 0 0-5.129-8.428-5.132-8.428 0 0 .357-.555.357-.555 0 0-5.116-8.441-5.116-8.441 0 0 .357-.555.357-.555 0 0-5.106-8.425-5.142-8.425 0zm8.473-1.992c.146-2.952.61-5.599 1.285-7.62.539-1.606 1.22-2.826 1.992-3.51C6.498 1.253 1.807 5.645.759 11.342c1.995-2.878 6.602-2.647 8.256.409zm8.906-.133c-.149-2.839-.6-5.379-1.249-7.316-1.674-5.012-4.185-5.012-5.859 0-.649 1.937-1.097 4.477-1.249 7.316 1.8-3.059 6.556-3.059 8.357 0zm8.804-.276A13.205 13.205 0 0 0 15.192.619c.775.684 1.453 1.904 1.992 3.51.675 2.021 1.139 4.668 1.285 7.62 1.664-3.072 6.284-3.254 8.256-.409zM11.938 20.03v-2.791c-.503.334-.899.85-.899 1.48 0 .613.402 1.019.899 1.311zm.542.866c-.963-.441-1.979-.957-1.979-2.177 0-1.259.957-1.888 1.979-2.359v4.536zM15.546 24.24v2.822c.509-.337.908-.856.908-1.486 0-.62-.409-1.038-.908-1.337zm-.539-.869c.967.448 1.989.98 1.989 2.206 0 1.262-.963 1.891-1.989 2.358v-4.564z" />
      <path
        d="M15.546 14.063c2.219.513 4.5 2.174 4.5 4.655 0 2.125-3.591 2.047-3.591 0 0-.633-.399-1.152-.908-1.486v3.971c2.054.672 4.506 1.875 4.506 4.373 0 2.485-2.281 4.143-4.506 4.652-.01 2.365-3.601 2.362-3.607-.003-1.265-.292-2.365-.882-3.16-1.664-.834-.824-1.327-1.859-1.327-2.985 0-2.093 3.588-2.093 3.588 0 0 .626.396 1.142.899 1.476v-3.968c-2.037-.659-4.503-1.898-4.503-4.373 0-2.485 2.281-4.143 4.503-4.652.01-2.365 3.601-2.362 3.607.003zm-3.066.007v.431c-2.112.419-4.506 1.771-4.506 4.211 0 2.346 2.628 3.397 4.506 3.977v5.243c-1.015-.464-1.979-1.09-1.979-2.355 0-1.382-2.511-1.382-2.511 0 0 .976.435 1.878 1.168 2.599.931.921 2.06 1.359 3.322 1.609v.435c0 1.664 2.527 1.664 2.527 0v-.431c2.118-.422 4.503-1.775 4.503-4.211 0-2.368-2.621-3.387-4.503-3.981v-5.239c1.019.464 1.989 1.09 1.989 2.362 0 1.346 2.508 1.402 2.508 0 0-2.436-2.381-3.792-4.496-4.214v-.435c0-1.664-2.527-1.664-2.527 0z" />
    </symbol>
    <symbol id="logo" viewBox="0 0 91 32">
      <path fill="#111518" style="fill: var(--color1, #111518)"
        d="M13.608 4.836v12.942h-3.661v-5.047h-4.992v5.047h-3.661v-12.942h3.661v4.863h4.992v-4.863h3.661zM27.006 12.786c0 0.025-0.018 0.314-0.055 0.869h-7.285c0.148 0.518 0.431 0.918 0.851 1.202 0.431 0.271 0.968 0.407 1.609 0.407 0.481 0 0.894-0.068 1.239-0.203 0.357-0.136 0.715-0.357 1.072-0.666l1.849 1.923c-0.974 1.085-2.397 1.627-4.271 1.627-1.171 0-2.2-0.222-3.088-0.666s-1.578-1.060-2.071-1.849c-0.481-0.789-0.721-1.683-0.721-2.681 0-0.986 0.234-1.867 0.703-2.644 0.481-0.789 1.14-1.405 1.978-1.849s1.781-0.666 2.829-0.666c0.998 0 1.904 0.21 2.718 0.629 0.814 0.407 1.454 1.005 1.923 1.793 0.481 0.777 0.721 1.701 0.721 2.773zM21.663 10.086c-0.542 0-0.998 0.154-1.368 0.462-0.357 0.308-0.586 0.727-0.684 1.257h4.105c-0.099-0.53-0.333-0.949-0.703-1.257-0.357-0.308-0.807-0.462-1.35-0.462zM29.365 4.059h3.513v13.719h-3.513v-13.719zM35.901 4.059h3.513v13.719h-3.513v-13.719z">
      </path>
      <path fill="#ff6b09" style="fill: var(--color2, #ff6b09)"
        d="M4.625 26.596h0.922v3.982h-0.922v-3.982zM2.816 30.578h-0.922v-3.982h0.922v3.982zM4.693 28.945h-1.946v-0.779h1.946v0.779zM8.36 28.2h1.917v0.717h-1.917v-0.717zM8.429 29.838h2.167v0.74h-3.083v-3.982h3.009v0.74h-2.094v2.503zM12.354 30.578v-3.982h0.922v3.231h1.997v0.751h-2.918zM16.811 30.578v-3.982h0.922v3.231h1.997v0.751h-2.918zM21.268 30.578v-3.982h0.922v3.982h-0.922zM25.467 30.646c-0.319 0-0.624-0.042-0.916-0.125-0.292-0.087-0.527-0.199-0.705-0.336l0.313-0.694c0.171 0.121 0.372 0.222 0.603 0.302 0.235 0.076 0.472 0.114 0.711 0.114 0.182 0 0.328-0.017 0.438-0.051 0.114-0.038 0.197-0.089 0.25-0.154s0.080-0.138 0.080-0.222c0-0.106-0.042-0.19-0.125-0.25-0.084-0.064-0.193-0.116-0.33-0.154-0.137-0.042-0.288-0.080-0.455-0.114-0.163-0.038-0.328-0.083-0.495-0.137-0.163-0.053-0.313-0.121-0.449-0.205s-0.248-0.193-0.336-0.33c-0.084-0.137-0.125-0.311-0.125-0.523 0-0.228 0.061-0.434 0.182-0.62 0.125-0.19 0.311-0.339 0.558-0.449 0.25-0.114 0.563-0.171 0.939-0.171 0.25 0 0.497 0.030 0.74 0.091 0.243 0.057 0.457 0.144 0.643 0.262l-0.284 0.7c-0.186-0.106-0.372-0.184-0.558-0.233-0.186-0.053-0.368-0.080-0.546-0.080s-0.324 0.021-0.438 0.063-0.195 0.097-0.245 0.165c-0.049 0.064-0.074 0.14-0.074 0.228 0 0.102 0.042 0.186 0.125 0.25 0.083 0.061 0.193 0.11 0.33 0.148s0.286 0.076 0.449 0.114c0.167 0.038 0.332 0.082 0.495 0.131 0.167 0.049 0.319 0.116 0.455 0.199s0.246 0.193 0.33 0.33c0.087 0.137 0.131 0.309 0.131 0.518 0 0.224-0.063 0.429-0.188 0.614s-0.313 0.336-0.563 0.449c-0.247 0.114-0.559 0.171-0.939 0.171zM31.541 26.596h0.922v3.982h-0.922v-3.982zM29.732 30.578h-0.922v-3.982h0.922v3.982zM31.61 28.945h-1.946v-0.779h1.946v0.779z">
      </path>
      <path fill="#111518" style="fill: var(--color1, #111518)"
        d="M37.912 28.2h1.917v0.717h-1.917v-0.717zM37.98 29.838h2.167v0.74h-3.083v-3.982h3.009v0.74h-2.093v2.503zM41.905 30.578v-3.982h0.762l2.349 2.867h-0.37v-2.867h0.91v3.982h-0.757l-2.355-2.867h0.37v2.867h-0.91zM49.446 30.646c-0.315 0-0.605-0.049-0.87-0.148-0.262-0.102-0.491-0.247-0.688-0.432-0.193-0.186-0.345-0.404-0.455-0.654-0.106-0.25-0.159-0.525-0.159-0.825s0.053-0.575 0.159-0.825c0.11-0.25 0.264-0.468 0.461-0.654s0.429-0.328 0.694-0.427c0.266-0.102 0.557-0.154 0.876-0.154 0.353 0 0.669 0.059 0.95 0.176 0.284 0.118 0.523 0.288 0.717 0.512l-0.592 0.546c-0.144-0.152-0.301-0.264-0.472-0.336-0.171-0.076-0.356-0.114-0.557-0.114-0.193 0-0.37 0.030-0.529 0.091s-0.298 0.148-0.415 0.262c-0.114 0.114-0.203 0.248-0.267 0.404-0.061 0.156-0.091 0.328-0.091 0.518 0 0.186 0.030 0.356 0.091 0.512 0.065 0.156 0.154 0.292 0.267 0.41 0.118 0.114 0.254 0.201 0.41 0.262 0.159 0.061 0.334 0.091 0.523 0.091 0.182 0 0.358-0.028 0.529-0.085 0.175-0.061 0.343-0.161 0.506-0.302l0.523 0.666c-0.216 0.163-0.468 0.288-0.757 0.375-0.284 0.087-0.569 0.131-0.853 0.131zM50.214 30.020v-1.496h0.842v1.616l-0.842-0.119zM52.936 30.578v-3.982h0.922v3.231h1.997v0.751h-2.918zM57.394 30.578v-3.982h0.922v3.982h-0.922zM61.593 30.646c-0.319 0-0.624-0.042-0.916-0.125-0.292-0.087-0.527-0.199-0.705-0.336l0.313-0.694c0.171 0.121 0.372 0.222 0.603 0.302 0.235 0.076 0.472 0.114 0.711 0.114 0.182 0 0.328-0.017 0.438-0.051 0.114-0.038 0.197-0.089 0.25-0.154s0.080-0.138 0.080-0.222c0-0.106-0.042-0.19-0.125-0.25-0.083-0.064-0.193-0.116-0.33-0.154-0.137-0.042-0.288-0.080-0.455-0.114-0.163-0.038-0.328-0.083-0.495-0.137-0.163-0.053-0.313-0.121-0.449-0.205s-0.248-0.193-0.336-0.33c-0.083-0.137-0.125-0.311-0.125-0.523 0-0.228 0.061-0.434 0.182-0.62 0.125-0.19 0.311-0.339 0.557-0.449 0.25-0.114 0.563-0.171 0.939-0.171 0.25 0 0.497 0.030 0.74 0.091 0.243 0.057 0.457 0.144 0.643 0.262l-0.284 0.7c-0.186-0.106-0.372-0.184-0.557-0.233-0.186-0.053-0.368-0.080-0.546-0.080s-0.324 0.021-0.438 0.063-0.195 0.097-0.245 0.165c-0.049 0.064-0.074 0.14-0.074 0.228 0 0.102 0.042 0.186 0.125 0.25 0.084 0.061 0.193 0.11 0.33 0.148s0.286 0.076 0.449 0.114c0.167 0.038 0.332 0.082 0.495 0.131 0.167 0.049 0.319 0.116 0.455 0.199s0.247 0.193 0.33 0.33c0.087 0.137 0.131 0.309 0.131 0.518 0 0.224-0.063 0.429-0.188 0.614s-0.313 0.336-0.563 0.449c-0.246 0.114-0.559 0.171-0.939 0.171zM67.667 26.596h0.922v3.982h-0.922v-3.982zM65.858 30.578h-0.922v-3.982h0.922v3.982zM67.735 28.945h-1.946v-0.779h1.946v0.779z">
      </path>
      <path fill="#111518" style="fill: var(--color1, #111518)"
        d="M67.237 9.846h6.009v2.736h-6.009v-2.736zM67.496 14.949h6.767v2.829h-10.391v-12.942h10.15v2.829h-6.527v7.285zM77.034 17.778v-12.942h3.014l7.137 8.616h-1.424v-8.616h3.587v12.942h-3.014l-7.137-8.616h1.424v8.616h-3.587z">
      </path>
      <path fill="#ff6b09" style="fill: var(--color2, #ff6b09)"
        d="M58.695 11.062c-0.189-0.423-0.45-0.84-0.831-1.322-0.962-1.209-1.255-3.905-1.258-3.931-0.013-0.129-0.104-0.236-0.225-0.275-0.124-0.039-0.257-0.003-0.345 0.094-1.147 1.283-0.665 3.265-0.404 4.057 0.072 0.217 0.15 0.472 0.205 0.731 0.424 2.091-0.394 3.038-0.587 3.229-0.186 0.052-0.313 0.026-0.43-0.1-0.404-0.443-0.538-1.894-0.349-3.785 0.039-0.385 0.029-0.731-0.026-1.054-0.399-2.324-1.86-3.815-2.233-4.338-1.023-1.513-1.128-4.031-1.131-4.053-0.003-0.12-0.072-0.226-0.179-0.278-0.104-0.052-0.231-0.045-0.329 0.023-1.708 1.16-1.561 3.956-1.323 5.518 0.055 0.362 0.163 0.731 0.349 1.196 0.662 1.665-0.13 3.814-0.137 3.834s-0.013 0.036-0.016 0.055c-0.101 0.53-0.271 0.847-0.46 0.847-0.020 0-0.039-0.003-0.062-0.010-0.231-0.049-0.352-0.294-0.355-0.507-0.013-2.757-2.78-3.685-2.809-3.695-0.124-0.039-0.261-0.003-0.345 0.097-0.088 0.1-0.104 0.239-0.046 0.356 0.033 0.068 0.137 0.365 0.065 1.416-0.062 0.944-0.235 1.878-0.512 2.773-0.658 2.146-0.554 4.179-0.548 4.276 0.506 5.505 8.423 6.469 13.122 3.368 0.515-0.339 0.935-0.727 1.245-1.154 1.734-2.392 0.714-5.64-0.046-7.366zM46.652 16.321c0.010 0.178-0.127 0.33-0.306 0.339h-0.020c-0.173 0-0.316-0.133-0.326-0.304-0.029-0.472-0.023-0.966 0.013-1.503 0.013-0.178 0.169-0.31 0.349-0.301 0.179 0.013 0.316 0.168 0.303 0.346-0.036 0.511-0.042 0.976-0.013 1.422zM46.812 13.457c-0.020 0.165-0.16 0.284-0.323 0.284-0.013 0-0.026 0-0.042-0.003-0.176-0.023-0.303-0.181-0.284-0.359l0.156-1.248c0.023-0.175 0.183-0.301 0.365-0.281 0.179 0.023 0.306 0.184 0.284 0.362l-0.156 1.245z">
      </path>
      <path fill="#ff6b09" style="fill: var(--color2, #ff6b09)"
        d="M56.49 4.422c-0.178-0.027-0.3-0.192-0.272-0.368 0.020-0.131 0.138-0.804 0.458-1.142 0.123-0.13 0.329-0.137 0.461-0.015s0.138 0.327 0.015 0.457c-0.135 0.143-0.25 0.553-0.289 0.798-0.028 0.174-0.191 0.297-0.372 0.27z">
      </path>
      <path fill="#ff6b09" style="fill: var(--color2, #ff6b09)"
        d="M44.608 6.032c-0.062-0.24-0.217-0.637-0.366-0.766-0.135-0.118-0.149-0.322-0.030-0.456s0.324-0.148 0.46-0.030c0.351 0.305 0.535 0.963 0.568 1.092 0.045 0.173-0.060 0.349-0.235 0.393-0.178 0.044-0.353-0.063-0.397-0.232z">
      </path>
    </symbol>
    <symbol id="logo-wht" viewBox="0 0 85 32">
      <path fill="#fff" style="fill: var(--color1, #fff)"
        d="M11.933 4.825v12.913h-3.548v-5.036h-4.838v5.036h-3.548v-12.913h3.548v4.851h4.838v-4.851h3.548z"></path>
      <path fill="#fff" style="fill: var(--color1, #fff)"
        d="M24.918 12.757c0 0.025-0.018 0.314-0.054 0.867h-7.060c0.143 0.516 0.418 0.916 0.824 1.199 0.418 0.271 0.938 0.406 1.559 0.406 0.466 0 0.866-0.068 1.2-0.203 0.346-0.135 0.693-0.357 1.039-0.664l1.792 1.919c-0.944 1.082-2.323 1.623-4.139 1.623-1.135 0-2.132-0.221-2.992-0.664s-1.529-1.058-2.007-1.845c-0.466-0.787-0.699-1.679-0.699-2.675 0-0.984 0.227-1.863 0.681-2.638 0.466-0.787 1.105-1.402 1.917-1.845s1.726-0.664 2.741-0.664c0.968 0 1.846 0.209 2.634 0.627 0.788 0.406 1.41 1.002 1.863 1.789 0.466 0.775 0.699 1.697 0.699 2.767zM19.739 10.064c-0.526 0-0.968 0.154-1.326 0.461-0.346 0.307-0.567 0.726-0.663 1.254h3.978c-0.096-0.529-0.323-0.947-0.681-1.254-0.346-0.307-0.782-0.461-1.308-0.461z">
      </path>
      <path fill="#fff" style="fill: var(--color1, #fff)" d="M27.204 4.050h3.404v13.688h-3.404v-13.688z"></path>
      <path fill="#fff" style="fill: var(--color1, #fff)" d="M33.538 4.050h3.404v13.688h-3.404v-13.688z"></path>
      <path fill="#ff6b09" style="fill: var(--color2, #ff6b09)"
        d="M3.003 27.011h0.864v3.733h-0.864v-3.733zM1.307 30.744h-0.864v-3.733h0.864v3.733zM3.067 29.214h-1.824v-0.731h1.824v0.731zM6.505 28.515h1.797v0.672h-1.797v-0.672zM6.569 30.051h2.032v0.693h-2.891v-3.733h2.821v0.693h-1.963v2.347zM10.248 30.744v-3.733h0.864v3.029h1.872v0.704h-2.736zM14.427 30.744v-3.733h0.864v3.029h1.872v0.704h-2.736zM18.606 30.744v-3.733h0.864v3.733h-0.864zM22.542 30.808c-0.299 0-0.585-0.039-0.859-0.117-0.274-0.082-0.494-0.187-0.661-0.315l0.293-0.651c0.16 0.114 0.348 0.208 0.565 0.283 0.22 0.071 0.443 0.107 0.667 0.107 0.171 0 0.308-0.016 0.411-0.048 0.107-0.036 0.185-0.084 0.235-0.144s0.075-0.13 0.075-0.208c0-0.1-0.039-0.178-0.117-0.235-0.078-0.060-0.181-0.108-0.309-0.144-0.128-0.039-0.27-0.075-0.427-0.107-0.153-0.036-0.308-0.078-0.464-0.128-0.153-0.050-0.293-0.114-0.421-0.192s-0.233-0.181-0.315-0.309c-0.078-0.128-0.117-0.292-0.117-0.491 0-0.213 0.057-0.407 0.171-0.581 0.117-0.178 0.292-0.318 0.523-0.421 0.235-0.107 0.528-0.16 0.88-0.16 0.235 0 0.466 0.028 0.693 0.085 0.228 0.053 0.428 0.135 0.603 0.245l-0.267 0.656c-0.174-0.1-0.348-0.172-0.523-0.219-0.174-0.050-0.345-0.075-0.512-0.075s-0.304 0.020-0.411 0.059c-0.107 0.039-0.183 0.091-0.229 0.155-0.046 0.060-0.069 0.132-0.069 0.213 0 0.096 0.039 0.174 0.117 0.235 0.078 0.057 0.181 0.103 0.309 0.139s0.268 0.071 0.421 0.107c0.156 0.036 0.311 0.076 0.464 0.123 0.156 0.046 0.299 0.108 0.427 0.187s0.231 0.181 0.309 0.309c0.082 0.128 0.123 0.29 0.123 0.485 0 0.21-0.059 0.402-0.176 0.576s-0.293 0.315-0.528 0.421c-0.231 0.107-0.524 0.16-0.88 0.16zM28.237 27.011h0.864v3.733h-0.864v-3.733zM26.541 30.744h-0.864v-3.733h0.864v3.733zM28.301 29.214h-1.824v-0.731h1.824v0.731z">
      </path>
      <path fill="#fff" style="fill: var(--color1, #fff)"
        d="M34.209 28.515h1.797v0.672h-1.797v-0.672zM34.273 30.051h2.032v0.693h-2.891v-3.733h2.821v0.693h-1.963v2.347zM37.952 30.744v-3.733h0.715l2.203 2.688h-0.347v-2.688h0.853v3.733h-0.709l-2.208-2.688h0.347v2.688h-0.853zM45.022 30.808c-0.295 0-0.567-0.046-0.816-0.139-0.245-0.096-0.46-0.231-0.645-0.405-0.181-0.174-0.324-0.379-0.427-0.613-0.1-0.235-0.149-0.492-0.149-0.773s0.050-0.539 0.149-0.773c0.103-0.235 0.247-0.439 0.432-0.613s0.402-0.308 0.651-0.4c0.249-0.096 0.523-0.144 0.821-0.144 0.331 0 0.628 0.055 0.891 0.165 0.267 0.11 0.491 0.27 0.672 0.48l-0.555 0.512c-0.135-0.142-0.283-0.247-0.443-0.315-0.16-0.071-0.334-0.107-0.523-0.107-0.181 0-0.347 0.028-0.496 0.085s-0.279 0.139-0.389 0.245c-0.107 0.107-0.19 0.233-0.251 0.379-0.057 0.146-0.085 0.308-0.085 0.485 0 0.174 0.028 0.334 0.085 0.48 0.060 0.146 0.144 0.274 0.251 0.384 0.11 0.107 0.238 0.188 0.384 0.245 0.149 0.057 0.313 0.085 0.491 0.085 0.171 0 0.336-0.027 0.496-0.080 0.164-0.057 0.322-0.151 0.475-0.283l0.491 0.624c-0.203 0.153-0.439 0.27-0.709 0.352-0.267 0.082-0.533 0.123-0.8 0.123zM45.742 30.222v-1.403h0.789v1.515l-0.789-0.112zM48.294 30.744v-3.733h0.864v3.029h1.872v0.704h-2.736zM52.473 30.744v-3.733h0.864v3.733h-0.864zM56.41 30.808c-0.299 0-0.585-0.039-0.859-0.117-0.274-0.082-0.494-0.187-0.661-0.315l0.293-0.651c0.16 0.114 0.348 0.208 0.565 0.283 0.22 0.071 0.443 0.107 0.667 0.107 0.171 0 0.308-0.016 0.411-0.048 0.107-0.036 0.185-0.084 0.235-0.144s0.075-0.13 0.075-0.208c0-0.1-0.039-0.178-0.117-0.235-0.078-0.060-0.181-0.108-0.309-0.144-0.128-0.039-0.27-0.075-0.427-0.107-0.153-0.036-0.308-0.078-0.464-0.128-0.153-0.050-0.293-0.114-0.421-0.192s-0.233-0.181-0.315-0.309c-0.078-0.128-0.117-0.292-0.117-0.491 0-0.213 0.057-0.407 0.171-0.581 0.117-0.178 0.292-0.318 0.523-0.421 0.235-0.107 0.528-0.16 0.88-0.16 0.235 0 0.466 0.028 0.693 0.085 0.228 0.053 0.428 0.135 0.603 0.245l-0.267 0.656c-0.174-0.1-0.348-0.172-0.523-0.219-0.174-0.050-0.345-0.075-0.512-0.075s-0.304 0.020-0.411 0.059c-0.107 0.039-0.183 0.091-0.229 0.155-0.046 0.060-0.069 0.132-0.069 0.213 0 0.096 0.039 0.174 0.117 0.235 0.078 0.057 0.181 0.103 0.309 0.139s0.268 0.071 0.421 0.107c0.156 0.036 0.311 0.076 0.464 0.123 0.156 0.046 0.299 0.108 0.427 0.187s0.231 0.181 0.309 0.309c0.082 0.128 0.123 0.29 0.123 0.485 0 0.21-0.059 0.402-0.176 0.576s-0.293 0.315-0.528 0.421c-0.231 0.107-0.524 0.16-0.88 0.16zM62.104 27.011h0.864v3.733h-0.864v-3.733zM60.408 30.744h-0.864v-3.733h0.864v3.733zM62.168 29.214h-1.824v-0.731h1.824v0.731z">
      </path>
      <path fill="#fff" style="fill: var(--color1, #fff)"
        d="M70.715 14.915v2.822h-10.070v-12.913h9.837v2.822h-6.325v2.177h5.572v2.73h-5.572v2.361h6.558z"></path>
      <path fill="#fff" style="fill: var(--color1, #fff)"
        d="M85.333 4.824v12.913h-2.921l-5.537-6.881v6.881h-3.476v-12.913h2.921l5.537 6.881v-6.881h3.476z"></path>
      <path fill="#ff6b09" style="fill: var(--color2, #ff6b09)"
        d="M55.628 11.037c-0.183-0.423-0.436-0.839-0.805-1.319-0.932-1.206-1.216-3.896-1.219-3.922-0.013-0.129-0.101-0.235-0.218-0.274-0.12-0.039-0.25-0.003-0.335 0.094-1.112 1.28-0.644 3.257-0.392 4.047 0.069 0.216 0.145 0.471 0.199 0.729 0.411 2.087-0.382 3.031-0.569 3.222-0.18 0.052-0.303 0.026-0.417-0.1-0.392-0.442-0.521-1.89-0.338-3.776 0.038-0.384 0.028-0.729-0.025-1.051-0.386-2.319-1.803-3.806-2.164-4.328-0.992-1.509-1.093-4.022-1.096-4.044-0.003-0.119-0.070-0.226-0.174-0.277-0.101-0.052-0.224-0.045-0.319 0.023-1.655 1.158-1.513 3.947-1.282 5.505 0.054 0.361 0.158 0.729 0.338 1.193 0.641 1.661-0.126 3.805-0.133 3.825s-0.013 0.035-0.016 0.055c-0.098 0.529-0.262 0.845-0.445 0.845-0.019 0-0.038-0.003-0.060-0.010-0.224-0.048-0.341-0.293-0.344-0.506-0.013-2.751-2.694-3.676-2.723-3.686-0.12-0.039-0.253-0.003-0.335 0.097-0.085 0.1-0.101 0.239-0.044 0.355 0.032 0.068 0.133 0.364 0.063 1.413-0.060 0.942-0.227 1.874-0.496 2.767-0.638 2.141-0.537 4.17-0.531 4.267 0.491 5.492 8.163 6.455 12.716 3.36 0.499-0.339 0.906-0.726 1.206-1.151 1.68-2.386 0.692-5.628-0.044-7.35zM43.957 16.284c0.009 0.177-0.123 0.329-0.297 0.339h-0.019c-0.167 0-0.306-0.132-0.316-0.303-0.028-0.471-0.022-0.964 0.013-1.5 0.013-0.177 0.164-0.31 0.338-0.3 0.174 0.013 0.306 0.168 0.294 0.345-0.035 0.51-0.041 0.974-0.013 1.419zM44.112 13.426c-0.019 0.164-0.155 0.284-0.313 0.284-0.013 0-0.025 0-0.041-0.003-0.171-0.023-0.294-0.181-0.275-0.358l0.152-1.245c0.022-0.174 0.177-0.3 0.354-0.281 0.174 0.023 0.297 0.184 0.275 0.361l-0.152 1.242z">
      </path>
      <path fill="#ff6b09" style="fill: var(--color2, #ff6b09)"
        d="M53.492 4.412c-0.172-0.027-0.29-0.192-0.264-0.368 0.020-0.131 0.134-0.802 0.444-1.139 0.119-0.13 0.319-0.137 0.447-0.015s0.134 0.326 0.014 0.456c-0.131 0.143-0.243 0.552-0.28 0.796-0.027 0.174-0.186 0.296-0.361 0.269z">
      </path>
      <path fill="#ff6b09" style="fill: var(--color2, #ff6b09)"
        d="M41.976 6.018c-0.060-0.24-0.211-0.635-0.355-0.764-0.131-0.117-0.144-0.321-0.029-0.455s0.314-0.148 0.446-0.030c0.34 0.305 0.518 0.961 0.55 1.089 0.043 0.172-0.059 0.348-0.227 0.392-0.172 0.044-0.342-0.062-0.385-0.232z">
      </path>
    </symbol>

    <symbol id="fire" viewBox="0 0 24 32">
      <path
        d="M22.474 16.593c-0.271-0.635-0.645-1.261-1.192-1.983-1.379-1.813-1.8-5.857-1.805-5.896-0.019-0.194-0.15-0.354-0.323-0.412-0.178-0.058-0.369-0.005-0.496 0.141-1.646 1.925-0.954 4.897-0.58 6.085 0.103 0.325 0.215 0.708 0.294 1.096 0.608 3.137-0.566 4.558-0.841 4.844-0.267 0.078-0.449 0.039-0.617-0.15-0.58-0.664-0.772-2.841-0.5-5.678 0.056-0.577 0.042-1.096-0.037-1.581-0.572-3.486-2.669-5.722-3.202-6.507-1.468-2.269-1.618-6.046-1.622-6.080-0.005-0.179-0.103-0.339-0.257-0.417-0.15-0.078-0.332-0.068-0.472 0.034-2.45 1.741-2.239 5.935-1.898 8.276 0.079 0.543 0.234 1.096 0.5 1.794 0.949 2.497-0.187 5.721-0.196 5.75s-0.019 0.053-0.023 0.082c-0.145 0.795-0.388 1.27-0.659 1.27-0.028 0-0.056-0.005-0.089-0.015-0.332-0.073-0.505-0.441-0.51-0.761-0.019-4.136-3.988-5.527-4.030-5.542-0.178-0.058-0.374-0.005-0.496 0.145-0.126 0.15-0.15 0.359-0.065 0.533 0.047 0.102 0.196 0.548 0.094 2.124-0.089 1.416-0.337 2.817-0.734 4.16-0.944 3.219-0.795 6.269-0.785 6.415 0.726 8.257 12.082 9.704 18.822 5.052 0.739-0.509 1.342-1.091 1.786-1.731 2.487-3.588 1.024-8.46-0.065-11.050zM5.199 24.481c0.014 0.267-0.182 0.495-0.439 0.509h-0.028c-0.248 0-0.454-0.199-0.468-0.456-0.042-0.708-0.033-1.45 0.019-2.255 0.019-0.267 0.243-0.465 0.5-0.451 0.257 0.019 0.454 0.252 0.435 0.519-0.051 0.766-0.061 1.464-0.019 2.133zM5.428 20.185c-0.028 0.247-0.229 0.427-0.463 0.427-0.019 0-0.037 0-0.061-0.005-0.252-0.034-0.435-0.272-0.407-0.538l0.224-1.872c0.033-0.262 0.262-0.451 0.524-0.422 0.257 0.034 0.439 0.276 0.407 0.543l-0.224 1.867z">
      </path>
      <path
        d="M19.312 6.633c-0.255-0.041-0.43-0.288-0.391-0.553 0.029-0.197 0.198-1.205 0.656-1.713 0.176-0.196 0.472-0.206 0.661-0.022s0.198 0.49 0.021 0.685c-0.194 0.215-0.359 0.829-0.415 1.197-0.040 0.262-0.275 0.445-0.534 0.405z">
      </path>
      <path
        d="M2.267 9.048c-0.090-0.361-0.312-0.955-0.525-1.149-0.194-0.177-0.214-0.483-0.043-0.684s0.465-0.222 0.66-0.045c0.504 0.458 0.767 1.445 0.815 1.638 0.064 0.259-0.087 0.523-0.336 0.59-0.255 0.067-0.506-0.094-0.569-0.349z">
      </path>
    </symbol>
    <symbol id="phone" viewBox="0 0 32 32">
      <path
        d="M4.657.003a1.969 1.969 0 0 0-1.392.678L.67 3.65c.004-.009-.01-.008-.084.101a.656.656 0 0 0-.09.184C-.56 7.437.148 11.289 1.872 14.953S6.347 22.123 9.505 25c3.158 2.877 6.721 5.128 10.119 6.244s6.692 1.102 9.133-.742a.536.536 0 0 0 .075-.068c.064-.067.066-.075.056-.065l.01-.013L31.48 27.4c.742-.849.682-2.184-.134-2.956l-6.126-5.799a1.965 1.965 0 0 0-2.84.138l-2.772 3.173c-2.25-.678-4.173-1.828-6.023-3.58s-3.132-3.637-3.993-5.905l2.771-3.173c.742-.849.683-2.184-.133-2.956L6.104.542A1.962 1.962 0 0 0 4.656.003h-.001zm.058 1.301c.19-.009.383.06.541.209l6.126 5.8a.788.788 0 0 1 .05 1.104l-3.063 3.504a.667.667 0 0 0-.124.665c.93 2.641 2.429 4.807 4.493 6.761s4.275 3.304 6.889 4.018a.612.612 0 0 0 .626-.193l3.064-3.505a.716.716 0 0 1 1.06-.051l6.127 5.8a.786.786 0 0 1 .049 1.103l-2.561 2.93c-2.003 1.497-4.826 1.581-7.986.542-3.173-1.043-6.617-3.202-9.666-5.98s-5.702-6.169-7.332-9.633C1.394 10.949.809 7.483 1.696 4.428l2.502-2.862a.736.736 0 0 1 .52-.261z" />
    </symbol>
    <symbol id="support" viewBox="0 0 32 32">
      <path
        d="M1.979 12.558v2.831c0 .152.069.295.188.39a10.97 10.97 0 0 0 6.788 2.362c.735 0 1.471-.077 2.19-.224A11.85 11.85 0 0 0 16 18.949c1.695 0 3.327-.349 4.855-1.032 3.069.624 6.338-.046 8.977-2.138a.497.497 0 0 0 .188-.39v-2.831c0-.416-.205-.794-.571-1.027L25.61 9.355c.84-1.073 1.466-2.602 1.574-3.913.319-2.256-1.507-4.646-4.136-4.646a4.162 4.162 0 0 0-2.927 1.227c-.027.027-.057.049-.083.076-.024.025-.043.054-.066.08l-.044.053C19.177.852 17.733 0 16.032 0c-.165 0-.328.011-.488.028-.01-.001-.018-.006-.028-.006-.091 0-.285.024-.388.054-.015.004-.026.015-.041.021a4.453 4.453 0 0 0-2.991 2.156A4.134 4.134 0 0 0 8.94.796c-3.88 0-5.601 4.612-2.539 8.581l-3.875 2.167a1.193 1.193 0 0 0-.549 1.014zm18.867 4.27c-.083.041-.166.085-.25.123l-.002.001A10.862 10.862 0 0 1 16 17.958c-1.602 0-3.148-.338-4.596-1.007a10.876 10.876 0 0 1-2.03-1.221v-2.87c0-.098.047-.184.101-.221l4.509-2.524c.561.48 1.278.832 2.02.832.715 0 1.488-.357 2.038-.843l4.455 2.52a.277.277 0 0 1 .129.237v2.87c-.567.429-1.164.795-1.781 1.098zm8.099-4.446a.203.203 0 0 1 .091.176v2.587a9.864 9.864 0 0 1-6.688 1.98c.367-.23.766-.516 1.075-.76a.497.497 0 0 0 .188-.39v-3.114c0-.435-.217-.835-.606-1.087l-2.366-1.339.575-.321c.698.573 1.297.744 1.835.744.658 0 1.35-.325 1.864-.759l4.031 2.284zM23.05 1.788c1.371 0 2.574.902 3 2.142a3.665 3.665 0 0 1-2.221-1.142.489.489 0 0 0-.783.084 3.657 3.657 0 0 1-2.529 1.76v-.003a4.95 4.95 0 0 0-.032-.653l-.007-.067a5.536 5.536 0 0 0-.121-.609c.559-.902 1.598-1.513 2.694-1.513zm-2.641 3.856a4.603 4.603 0 0 0 3.142-1.762 4.634 4.634 0 0 0 2.682 1.056c-.007 1.792-1.461 4.927-3.183 4.927-1.328 0-2.461-1.912-2.885-3.238.108-.341.186-.669.244-.983zm.1 3.729-.88.491-.888-.502c.329-.413.631-.893.89-1.413.249.526.546 1.01.878 1.425zm-1.327-2.908c-.475 1.427-1.693 3.49-3.176 3.49-1.73 0-3.203-2.864-3.483-4.696.075-.019 2.412.126 4.02-2.001.816.688 1.918 1.143 2.989 1.188.013.647-.143 1.406-.35 2.018zM16.034.992c2.76 0 3.285 2.392 3.328 2.442a4.085 4.085 0 0 1-2.545-1.276.491.491 0 0 0-.784.087 4.048 4.048 0 0 1-3.555 2.022c.135-1.822 1.585-3.274 3.555-3.274zm-3.662 6.946a7.91 7.91 0 0 0 .906 1.438l-.869.487-.9-.51c.341-.438.631-.929.863-1.415zm-3.43-6.15c1.117 0 2.14.571 2.71 1.514-.029.1-.106.498-.116.548a3.646 3.646 0 0 1-1.808-1.062.49.49 0 0 0-.783.086 3.68 3.68 0 0 1-3.154 1.815c.157-1.627 1.507-2.9 3.151-2.9zm-3.108 3.89A4.663 4.663 0 0 0 9.45 3.882a4.578 4.578 0 0 0 2.041.961c.029.575.178 1.273.348 1.789-.272.84-.793 1.841-1.44 2.505l-.014.01c-.405.43-.981.719-1.434.719-1.583 0-2.82-2.508-3.117-4.188zm-2.87 6.88c0-.075.033-.139.067-.162l4.086-2.284c.245.206.302.229.351.265.481.322.922.482 1.523.482.64 0 1.223-.273 1.737-.694.029-.023.06-.045.087-.068l.583.33-2.429 1.361c-.363.236-.58.636-.58 1.071v3.114c0 .152.069.296.188.39.314.249.722.539 1.075.761a9.903 9.903 0 0 1-6.689-1.98v-2.587z" />
      <path
        d="M31.034 20.781a2.036 2.036 0 0 0-1.993-.11l-6.076 2.956a2.102 2.102 0 0 0-2.092-2.071l-3.484.001c-1.718-1.504-3.913-2.425-5.909-2.473-1.968-.047-3.735-.06-4.56-.064v-1.002H-.002v11.517H6.92v-1.379c1.898 1.097 6.889 3.845 9.258 3.845.054 0 .106-.001.157-.004 4.165-.235 13.989-7.198 14.637-7.661a2.08 2.08 0 0 0 1.026-1.796c0-.719-.361-1.376-.966-1.758zM5.937 28.542H.985v-9.533h4.952v9.533zm24.53-5.058a.296.296 0 0 0-.044.028c-.101.073-10.207 7.271-14.142 7.494a2.315 2.315 0 0 1-.12.003c-2.077 0-7.143-2.753-9.24-4.001v-6.997c.821.004 2.578.017 4.536.064 1.824.044 3.848.921 5.416 2.346l.14.128 3.86-.001c.612 0 1.111.502 1.111 1.119s-.498 1.119-1.111 1.119h-7.091v.992h7.091c.68 0 1.278-.333 1.662-.839l6.934-3.373c.34-.167.72-.146 1.041.057s.504.537.504.918c0 .391-.21.753-.549.945zM16.492 12.159h-.985v.92h.985v-.92zM16.492 13.992h-.985v.92h.985v-.92zM16.492 15.826h-.985v.92h.985v-.92z" />
    </symbol>
    <symbol id="teach" viewBox="0 0 27 32">
      <path
        d="M.059 31.693h27.355c.136-3.12-.088-8.295-2.006-10.759l-.069-.088-4.191-2.104c.091-.307.136-.588.154-.795a1.449 1.449 0 0 0-.102-.692c-.691-1.655-2.155-2.525-2.959-2.896a5.158 5.158 0 0 0 .48-1.567c.456-.128.822-.489.942-.971l.489-1.987a1.343 1.343 0 0 0-.154-1.023 1.346 1.346 0 0 0-.3-.341c1.379-3.133-.931-6.087-1.057-6.243C16.139-.478 12.979.028 12.812.058c-4.561.955-6.321 4.451-5.328 8.55-.294.326-.418.78-.309 1.226l.492 1.99c.119.478.483.838.935.968.139.993.56 1.89 1.177 2.614v1.576c-6.545 3.352-2.398 1.213-7.643 3.867-.01.049-2.461 2.654-2.097 10.375l.022.472zm26.404-.99h-4.502v-1.891l2.978-6.816c1.492 2.476 1.547 7.203 1.524 8.708zm-6.144-12.841c-.174 1.996-1.268 1.393-1.944 2.93-.531-.584-.691-1.285-.548-2.035.258-1.377-.583-1.786-.375-3.233l.031-.033v-.005c.018-.02.184-.217.232-.28 1.781.777 2.639 2.221 2.604 2.656zm-9.556-1.568a5.068 5.068 0 0 0 2.899.912 5.06 5.06 0 0 0 2.795-.836c.114 1.138.559 1.365.401 2.203a3.52 3.52 0 0 0-.055.459l-3.066 3.456-3.919-4.419.946-.494v-1.281zm-1.232-4.229V6.783c.477-.883 1.128-1.522 1.936-1.906 2.165 1.225 4.657 3.053 6.329 4.893-.002 2.343.007 2.35-.009 2.542l-.001.012c-.13 2.128-1.88 3.892-4.124 3.892-2.181 0-3.992-1.713-4.123-3.913a2.69 2.69 0 0 1-.008-.238zm-.611 6.482 4.816 5.43 3.234-3.644c.074.213.178.414.296.608l-3.53 4.414-5.264-6.583.447-.224zm9.862-7.279v-1.53l.368-.421c.02.775.104-.14-.368 1.951zM12.993 1.029c.196.012 2.824-.4 4.901 1.843.082.103 1.773 2.281 1.093 4.665-.233-1.061-.638-2.42-1.278-3.068l-.7.697c.632.641 1.048 2.591 1.206 3.602-2.901-3.035-6.643-4.957-6.694-4.989-.188.117-1.771.418-2.921 2.653l-.055.107v1.642l-.145.002c-.731-3.528.669-6.33 4.593-7.153zM8.296 9.201l.249 1.008v1.06l-.414-1.674c-.061-.25.124-.344.165-.394zm-.725 10.023 6.166 7.712 4.172-5.218c.454.406.672.464 1.634.959l-.325-1.101c-.082-.279.244-.728.441-.934.44-.238.806-.579 1.08-.998l3.404 1.709-3.167 7.251v2.099H6.499v-2.099l-3.169-7.25 4.242-2.129zm-5.037 2.773 2.978 6.815v1.891H1.01c-.023-1.504.033-6.229 1.524-8.706z" />
    </symbol>
    <symbol id="menu" viewBox="0 0 32 32">
      <path d="M6.4 11.733V9.6h19.2v2.133H6.4zm0 5.334h19.2v-2.133H6.4v2.133zm0 5.333h19.2v-2.133H6.4V22.4z" />
    </symbol>
    <symbol id="menuclose" viewBox="0 0 32 32">
      <path
        d="M23.733 10.304 22.229 8.8l-5.963 5.963L10.303 8.8l-1.504 1.504 5.963 5.963-5.963 5.963 1.504 1.504 5.963-5.963 5.963 5.963 1.504-1.504-5.963-5.963 5.963-5.963z" />
    </symbol>
    <symbol id="facebook" viewBox="0 0 31 32">
      <path fill="#436eab" style="fill: var(--color1, #436eab)"
        d="M27.65 0.549h-24.332c-0.88 0-1.724 0.347-2.346 0.963s-0.972 1.453-0.972 2.326v24.12c0 0.872 0.35 1.709 0.972 2.326s1.466 0.963 2.346 0.963h9.487v-10.437h-4.355v-4.912h4.355v-3.744c0-4.259 2.558-6.611 6.475-6.611 1.876 0 3.838 0.332 3.838 0.332v4.18h-2.161c-2.13 0-2.794 1.31-2.794 2.654v3.19h4.754l-0.76 4.912h-3.994v10.437h9.487c0.88 0 1.724-0.347 2.346-0.963s0.972-1.453 0.972-2.326v-24.12c0-0.872-0.35-1.709-0.972-2.326s-1.466-0.963-2.346-0.963z">
      </path>
    </symbol>
    <symbol id="icon-close" viewBox="0 0 32 32">
      <path
        d="M26.667 7.303l-1.97-1.97-7.808 7.808-7.808-7.808-1.97 1.97 7.808 7.808-7.808 7.808 1.97 1.97 7.808-7.808 7.808 7.808 1.97-1.97-7.808-7.808 7.808-7.808z">
      </path>
    </symbol>
    <symbol id="icon-arrow-up" viewBox="0 0 32 32">
      <path
        d="M27.414 12.586l-10-10c-0.781-0.781-2.047-0.781-2.828 0l-10 10c-0.781 0.781-0.781 2.047 0 2.828s2.047 0.781 2.828 0l6.586-6.586v19.172c0 1.105 0.895 2 2 2s2-0.895 2-2v-19.172l6.586 6.586c0.39 0.39 0.902 0.586 1.414 0.586s1.024-0.195 1.414-0.586c0.781-0.781 0.781-2.047 0-2.828z">
      </path>
    </symbol>
  </defs>
</svg>