<svg aria-hidden="true" style="position:absolute;width:0;height:0;overflow:hidden" xmlns="http://www.w3.org/2000/svg">
  <defs>
    <symbol id="autors" viewBox="0 0 27 32">
      <path
        d="M.059 31.693h27.355c.136-3.12-.088-8.295-2.006-10.759l-.069-.088-4.191-2.104c.091-.307.136-.588.154-.795a1.449 1.449 0 0 0-.102-.692c-.691-1.655-2.155-2.525-2.959-2.896a5.158 5.158 0 0 0 .48-1.567c.456-.128.822-.489.942-.971l.489-1.987a1.343 1.343 0 0 0-.154-1.023 1.346 1.346 0 0 0-.3-.341c1.379-3.133-.931-6.087-1.057-6.243C16.139-.478 12.979.028 12.812.058c-4.561.955-6.321 4.451-5.328 8.55-.294.326-.418.78-.309 1.226l.492 1.99c.119.478.483.838.935.968.139.993.56 1.89 1.177 2.614v1.576c-6.545 3.352-2.398 1.213-7.643 3.867-.01.049-2.461 2.654-2.097 10.375l.022.472zm26.404-.99h-4.502v-1.891l2.978-6.816c1.492 2.476 1.547 7.203 1.524 8.708zm-6.144-12.841c-.174 1.996-1.268 1.393-1.944 2.93-.531-.584-.691-1.285-.548-2.035.258-1.377-.583-1.786-.375-3.233l.031-.033v-.005c.018-.02.184-.217.232-.28 1.781.777 2.639 2.221 2.604 2.656zm-9.556-1.568a5.068 5.068 0 0 0 2.899.912 5.06 5.06 0 0 0 2.795-.836c.114 1.138.559 1.365.401 2.203a3.52 3.52 0 0 0-.055.459l-3.066 3.456-3.919-4.419.946-.494v-1.281zm-1.232-4.229V6.783c.477-.883 1.128-1.522 1.936-1.906 2.165 1.225 4.657 3.053 6.329 4.893-.002 2.343.007 2.35-.009 2.542l-.001.012c-.13 2.128-1.88 3.892-4.124 3.892-2.181 0-3.992-1.713-4.123-3.913a2.69 2.69 0 0 1-.008-.238zm-.611 6.482 4.816 5.43 3.234-3.644c.074.213.178.414.296.608l-3.53 4.414-5.264-6.583.447-.224zm9.862-7.279v-1.53l.368-.421c.02.775.104-.14-.368 1.951zM12.993 1.029c.196.012 2.824-.4 4.901 1.843.082.103 1.773 2.281 1.093 4.665-.233-1.061-.638-2.42-1.278-3.068l-.7.697c.632.641 1.048 2.591 1.206 3.602-2.901-3.035-6.643-4.957-6.694-4.989-.188.117-1.771.418-2.921 2.653l-.055.107v1.642l-.145.002c-.731-3.528.669-6.33 4.593-7.153zM8.296 9.201l.249 1.008v1.06l-.414-1.674c-.061-.25.124-.344.165-.394zm-.725 10.023 6.166 7.712 4.172-5.218c.454.406.672.464 1.634.959l-.325-1.101c-.082-.279.244-.728.441-.934.44-.238.806-.578 1.08-.998l3.404 1.709-3.167 7.251v2.099H6.499v-2.099l-3.169-7.25 4.242-2.129zm-5.037 2.773 2.978 6.815v1.891H1.01c-.023-1.504.033-6.229 1.524-8.706z" />
    </symbol>
    <symbol id="book" viewBox="0 0 43 32">
      <path
        d="M19.102 4.52H5.443v1.028h13.659V4.52zM19.101 8.357H7.488v1.028h11.613V8.357zM19.102 12.195H5.443v1.028h13.659v-1.028zM19.101 16.032H7.488v1.028h11.613v-1.028zM19.102 19.869H5.443v1.028h13.659v-1.028zM19.101 23.707H7.488v1.028h11.613v-1.028zM37.851 4.52H24.192v1.028h13.659V4.52zM35.805 8.357H24.192v1.028h11.613V8.357zM37.851 12.195H24.192v1.028h13.659v-1.028zM35.805 16.032H24.192v1.028h11.613v-1.028zM37.851 19.869H24.192v1.028h13.659v-1.028zM35.805 23.707H24.192v1.028h11.613v-1.028z" />
      <path
        d="M42.783 3.348h-1.875V.514a.513.513 0 0 0-.511-.515H25.111a3.95 3.95 0 0 0-3.463 2.026 3.951 3.951 0 0 0-3.464-2.026H2.898a.513.513 0 0 0-.511.515v2.834H.512a.513.513 0 0 0-.511.515v27.622c0 .284.229.515.511.515h42.271c.282 0 .511-.23.511-.515V3.863a.513.513 0 0 0-.511-.515zM25.111 1.029h14.774V28.59H24.02c-.703 0-1.406.299-1.861.685V3.993a2.945 2.945 0 0 1 2.952-2.964zm-21.702 0h14.774a2.936 2.936 0 0 1 2.946 2.851c.001.022.003.091.006.113v25.28a2.979 2.979 0 0 0-1.855-.683H3.408V1.029zM1.023 4.378h1.364v24.727c0 .284.229.515.511.515h16.383c.78 0 1.533.515 1.774 1.351H1.023V4.378zm41.248 26.593H22.239a1.85 1.85 0 0 1 1.78-1.351h16.377c.282 0 .511-.23.511-.515V4.378h1.364v26.593z" />
    </symbol>
    <symbol id="check" viewBox="0 0 40 32">
      <path
        d="M35.296 1.514a30.274 30.274 0 0 0-4.369 2.379c-2.797 1.797-5.355 3.936-7.754 6.218-2.398 2.287-4.63 4.735-6.741 7.28-.528.636-2.892 3.47-2.892 3.47L3.71 6.481-.001 16.523 13.292 32c1.291-2.551 2.533-5.07 3.752-7.258.303-.556.62-1.08.923-1.612 0 0 1.56-2.677 1.97-3.352 1.64-2.697 3.414-5.325 5.366-7.821 1.955-2.491 4.08-4.87 6.489-6.961a29.016 29.016 0 0 1 3.842-2.872c1.364-.848 2.814-1.591 4.365-2.125-1.613.31-3.187.848-4.704 1.514z" />
    </symbol>
    <symbol id="doc" viewBox="0 0 30 32">
      <path
        d="m29.977 4.975-.001-.002a.32.32 0 0 0-.06-.09L25.068.084a.329.329 0 0 0-.041-.033l-.009-.006c-.012-.007-.024-.014-.036-.019l-.011-.005a.287.287 0 0 0-.1-.02H3.509a.285.285 0 0 0-.286.284v29.271c0 .019.002.037.006.056l.007.023.009.03.014.026.013.023c.01.014.021.028.033.04l.003.003 2.183 2.161a.288.288 0 0 0 .405 0l1.982-1.961 1.981 1.961c.056.056.129.083.203.083s.146-.027.202-.083l1.981-1.96 1.982 1.96a.288.288 0 0 0 .405 0l1.981-1.96 1.981 1.96a.288.288 0 0 0 .405 0l1.982-1.961 1.981 1.961c.056.056.129.083.202.083s.147-.027.203-.083l1.981-1.96 1.982 1.96a.288.288 0 0 0 .405 0l2.183-2.161.011-.014.024-.029c.007-.009.011-.02.017-.03.003-.007.007-.012.009-.019.006-.013.009-.026.012-.039l.005-.013a.278.278 0 0 0 .006-.058V5.085a.287.287 0 0 0-.023-.108zM25.151.969l3.869 3.83h-3.869V.969zm4.275 28.468-1.896 1.878-1.982-1.961a.29.29 0 0 0-.405 0l-1.981 1.961-1.981-1.961a.29.29 0 0 0-.405 0l-1.982 1.961-1.98-1.96v-.001a.289.289 0 0 0-.405 0l-1.98 1.961-1.982-1.961a.29.29 0 0 0-.405 0l-1.981 1.961-1.981-1.961a.29.29 0 0 0-.405 0l-1.982 1.961-1.897-1.878V.567h20.783v4.516c0 .157.128.284.287.284h4.561v24.071z" />
      <path
        d="M5.931 3.251h9.384c.158 0 .287-.127.287-.284s-.128-.284-.287-.284H5.931c-.159 0-.287.127-.287.284s.128.284.287.284zM5.931 5.005H20.98c.158 0 .287-.127.287-.284s-.128-.284-.287-.284H5.931c-.159 0-.287.127-.287.284s.128.284.287.284zM5.645 6.58v9.186c0 .157.128.284.287.284h21.357a.285.285 0 0 0 .286-.284V6.58a.285.285 0 0 0-.286-.284H5.932a.285.285 0 0 0-.287.284zm6.333.284h15.024v2.442H11.978V6.864zm0 3.009h15.024v2.441H11.978V9.873zm0 3.008h15.024v2.602H11.978v-2.602zm-5.76-6.017h5.187v2.442H6.218V6.864zm0 3.009h5.187v2.441H6.218V9.873zm0 3.008h5.187v2.602H6.218v-2.602zM27.289 17.327H5.932a.285.285 0 0 0-.287.284v9.186c0 .157.128.283.287.283s.286-.127.286-.283v-2.885h5.187v2.885c0 .157.128.283.286.283s.287-.127.287-.283v-2.885h15.024v2.885c0 .157.128.283.287.283s.286-.127.286-.283v-9.186a.284.284 0 0 0-.286-.284zm-15.884 6.017H6.218v-2.44h5.187v2.44zm0-3.008H6.218v-2.441h5.187v2.441zm15.597 3.008H11.978v-2.44h15.024v2.44zm0-3.008H11.978v-2.441h15.024v2.441zM1.863 0a.286.286 0 0 0-.287.284v29.271c0 .156.128.283.287.283s.287-.127.287-.283V.284A.285.285 0 0 0 1.863 0zM.287 0A.286.286 0 0 0 0 .284v29.271c0 .156.128.283.287.283s.286-.127.286-.283V.284A.285.285 0 0 0 .287 0z" />
    </symbol>
    <symbol id="mobile-learning" viewBox="0 0 31 32">
      <path
        d="M29.467 0h-15.709c-1.023 0-1.855 0.827-1.855 1.844v6.466l-11.671 4.871c-0.132 0.055-0.222 0.179-0.232 0.321s0.061 0.278 0.184 0.351l1.488 0.886v9.439c-0.761 0.173-1.332 0.85-1.332 1.66v0.91c0 0.209 0.17 0.378 0.38 0.378h2.665c0.21 0 0.38-0.169 0.38-0.378v-0.91c0-0.809-0.571-1.486-1.333-1.659v-8.988l1.177 0.7c-0.036 0.27-0.005-0.47-0.017 4.395 0 1.599 4.119 2.456 8.311 2.505v7.366c0 0.381 0.117 0.734 0.317 1.028 0.333 0.49 0.898 0.813 1.536 0.813h15.709c1.022 0 1.853-0.827 1.853-1.842 0 0.050-0.002-1.56 0-28.313 0-1.003-0.834-1.844-1.852-1.844zM3.006 25.839v0.532h-1.905v-0.532c0-0.524 0.426-0.95 0.95-0.95 0.527 0 0.955 0.426 0.955 0.95zM29.467 31.242h-15.709c-0.377 0-0.71-0.19-0.907-0.478-0.118-0.173-0.187-0.382-0.187-0.607v-2.554h17.893v2.555c0 0.592-0.496 1.084-1.090 1.084zM30.557 26.848h-17.893v-4.054c2.046-0.023 8.316-0.471 8.316-2.507-0.002-3.056 0.005-4.295-0.010-4.4l3.413-2.033c0.123-0.073 0.194-0.209 0.184-0.351s-0.1-0.266-0.232-0.321l-11.67-4.871v-3.157h17.893v21.695zM12.284 17.778c-2.108 0-6.167 0.271-7.931 1.416 0.011-3.502-0.122-3.274 0.312-3.571 1.095-0.802 4.228-1.362 7.619-1.362 1.479 0 7.936 0.404 7.936 1.764v3.17c-1.78-1.156-5.818-1.416-7.936-1.416zM12.664 1.844c0-0.599 0.49-1.087 1.093-1.087h15.709c0.603 0 1.091 0.494 1.091 1.086v2.554h-17.893v-2.553zM12.284 8.971l11.064 4.618-2.741 1.631c-1.458-1.437-6.279-1.716-8.323-1.716-2.046 0-6.868 0.28-8.322 1.716l-2.742-1.632 11.065-4.618zM4.353 20.287c0-0.612 2.724-1.753 7.931-1.753 5.21 0 7.936 1.142 7.936 1.753s-2.726 1.754-7.936 1.754c-5.207 0-7.931-1.142-7.931-1.754z">
      </path>
      <path
        d="M21.611 28.174c-0.693 0-1.257 0.56-1.257 1.25s0.564 1.25 1.257 1.25c0.693 0 1.257-0.561 1.257-1.25s-0.564-1.25-1.257-1.25zM21.611 29.918c-0.274 0-0.497-0.222-0.497-0.495s0.223-0.494 0.497-0.494c0.274 0 0.497 0.221 0.497 0.494s-0.223 0.495-0.497 0.495z">
      </path>
      <path d="M23.062 2.2h-2.899v0.756h2.899v-0.756z"></path>
    </symbol>
    <symbol id="english" viewBox="0 0 37 32">
      <path
        d="M2.318 29.826h12.404A3.786 3.786 0 0 0 18.15 32h.783c1.486 0 2.8-.853 3.429-2.174h12.41c1.278 0 2.318-1.054 2.318-2.349V4.965c0-1.295-1.04-2.349-2.318-2.349H33.52V1.567c0-.864-.693-1.566-1.545-1.566H5.108c-.852 0-1.545.702-1.545 1.566v1.049H2.319C1.041 2.616.001 3.67.001 4.965v22.512c0 1.295 1.04 2.349 2.318 2.349zm29.656-4.832H19.318V6.798c2.925.388 5.193 2.924 5.193 5.992v.706l-.183-.041a.772.772 0 0 0-.921.597l-1.23 5.672a.783.783 0 0 0 .589.932l2.658.594a1.979 1.979 0 0 0 2.352-1.533l.712-3.28a2.007 2.007 0 0 0-1.505-2.388l-.925-.207v-1.051c0-3.934-2.959-7.179-6.739-7.575v-3.65h12.657l-.001 23.428zm-7.223-9.84 1.898.424a.434.434 0 0 1 .33.522l-.712 3.28a.457.457 0 0 1-.515.34l-1.9-.424.899-4.142zM5.108 1.566h12.665v3.649c-3.784.391-6.746 3.64-6.746 7.576v1.051l-.927.207a1.968 1.968 0 0 0-1.24.877 2.007 2.007 0 0 0-.263 1.509l.71 3.277a1.993 1.993 0 0 0 1.936 1.583c.14 0 .279-.015.422-.046l2.647-.593a.783.783 0 0 0 .588-.932l-1.23-5.672a.773.773 0 0 0-.922-.597l-.177.04v-.705c0-3.071 2.272-5.609 5.201-5.993v18.197H5.107V1.566zm7.219 13.588.899 4.141-1.89.423a.439.439 0 0 1-.519-.337l-.712-3.284a.433.433 0 0 1 .328-.52l1.893-.423zM1.545 4.964c0-.432.346-.783.773-.783h1.244v20.813c0 .864.694 1.566 1.545 1.566h26.867c.852 0 1.545-.702 1.545-1.566V4.181h1.252c.426 0 .773.351.773.783v22.512a.778.778 0 0 1-.773.783H21.835a.774.774 0 0 0-.739.553 2.257 2.257 0 0 1-2.165 1.621h-.783c-.998 0-1.867-.649-2.168-1.63a.775.775 0 0 0-.736-.544H2.316a.779.779 0 0 1-.773-.783V4.964z" />
    </symbol>
    <symbol id="finance" viewBox="0 0 28 32">
      <path
        d="M.542 13.742c0 .357-.542.357-.542 0C0 6.154 6.154 0 13.742 0c7.591 0 13.742 6.154 13.742 13.742 0 .357-.539.357-.539 0 0-5.129-8.428-5.132-8.428 0 0 .357-.555.357-.555 0 0-5.116-8.441-5.116-8.441 0 0 .357-.555.357-.555 0 0-5.106-8.425-5.142-8.425 0zm8.473-1.992c.146-2.952.61-5.599 1.285-7.62.539-1.606 1.22-2.826 1.992-3.51C6.498 1.253 1.807 5.645.759 11.342c1.995-2.878 6.602-2.647 8.256.409zm8.906-.133c-.149-2.839-.6-5.379-1.249-7.316-1.674-5.012-4.185-5.012-5.859 0-.649 1.937-1.097 4.477-1.249 7.316 1.8-3.059 6.556-3.059 8.357 0zm8.804-.276A13.205 13.205 0 0 0 15.192.619c.775.684 1.453 1.904 1.992 3.51.675 2.021 1.139 4.668 1.285 7.62 1.664-3.072 6.284-3.254 8.256-.409zM11.938 20.03v-2.791c-.503.334-.899.85-.899 1.48 0 .613.402 1.019.899 1.311zm.542.866c-.963-.441-1.979-.957-1.979-2.177 0-1.259.957-1.888 1.979-2.359v4.536zM15.546 24.24v2.822c.509-.337.908-.856.908-1.486 0-.62-.409-1.038-.908-1.337zm-.539-.869c.967.448 1.989.98 1.989 2.206 0 1.262-.963 1.891-1.989 2.358v-4.564z" />
      <path
        d="M15.546 14.063c2.219.513 4.5 2.174 4.5 4.655 0 2.125-3.591 2.047-3.591 0 0-.633-.399-1.152-.908-1.486v3.971c2.054.672 4.506 1.875 4.506 4.373 0 2.485-2.281 4.143-4.506 4.652-.01 2.365-3.601 2.362-3.607-.003-1.265-.292-2.365-.882-3.16-1.664-.834-.824-1.327-1.859-1.327-2.985 0-2.093 3.588-2.093 3.588 0 0 .626.396 1.142.899 1.476v-3.968c-2.037-.659-4.503-1.898-4.503-4.373 0-2.485 2.281-4.143 4.503-4.652.01-2.365 3.601-2.362 3.607.003zm-3.066.007v.431c-2.112.419-4.506 1.771-4.506 4.211 0 2.346 2.628 3.397 4.506 3.977v5.243c-1.015-.464-1.979-1.09-1.979-2.355 0-1.382-2.511-1.382-2.511 0 0 .976.435 1.878 1.168 2.599.931.921 2.06 1.359 3.322 1.609v.435c0 1.664 2.527 1.664 2.527 0v-.431c2.118-.422 4.503-1.775 4.503-4.211 0-2.368-2.621-3.387-4.503-3.981v-5.239c1.019.464 1.989 1.09 1.989 2.362 0 1.346 2.508 1.402 2.508 0 0-2.436-2.381-3.792-4.496-4.214v-.435c0-1.664-2.527-1.664-2.527 0z" />
    </symbol>
    <symbol id="logo" viewBox="0 0 128 32">
      <path fill="#111518" style="fill: var(--color1, #111518)"
        d="M18.123 9.163v19.387h-5.388v-7.561h-7.347v7.561h-5.388v-19.387h5.388v7.284h7.347v-7.284h5.388z"></path>
      <path fill="#111518" style="fill: var(--color1, #111518)"
        d="M37.841 21.073c0 0.037-0.027 0.471-0.082 1.302h-10.721c0.218 0.776 0.635 1.376 1.252 1.8 0.635 0.406 1.424 0.609 2.367 0.609 0.708 0 1.315-0.102 1.823-0.305 0.526-0.203 1.052-0.536 1.578-0.997l2.721 2.88c-1.433 1.625-3.528 2.437-6.286 2.437-1.723 0-3.238-0.332-4.544-0.997s-2.322-1.588-3.048-2.77c-0.708-1.182-1.061-2.52-1.061-4.016 0-1.477 0.345-2.797 1.034-3.96 0.707-1.182 1.678-2.105 2.912-2.77s2.621-0.997 4.163-0.997c1.469 0 2.803 0.314 4 0.942 1.197 0.609 2.14 1.505 2.83 2.687 0.707 1.163 1.061 2.548 1.061 4.154zM29.977 17.029c-0.798 0-1.469 0.231-2.014 0.692-0.526 0.462-0.862 1.089-1.007 1.883h6.041c-0.145-0.794-0.49-1.422-1.034-1.883-0.526-0.462-1.188-0.692-1.986-0.692z">
      </path>
      <path fill="#111518" style="fill: var(--color1, #111518)" d="M41.313 8h5.17v20.551h-5.17v-20.551z"></path>
      <path fill="#111518" style="fill: var(--color1, #111518)" d="M50.932 8h5.17v20.551h-5.17v-20.551z"></path>
      <path fill="#ff6b09" style="fill: var(--color2, #ff6b09)"
        d="M83.274 16.593c-0.271-0.635-0.645-1.261-1.192-1.983-1.379-1.813-1.8-5.857-1.805-5.896-0.019-0.194-0.15-0.354-0.323-0.412-0.178-0.058-0.369-0.005-0.496 0.141-1.646 1.925-0.954 4.897-0.58 6.085 0.103 0.325 0.215 0.708 0.294 1.096 0.608 3.137-0.566 4.558-0.841 4.844-0.267 0.078-0.449 0.039-0.617-0.15-0.58-0.664-0.772-2.841-0.5-5.678 0.056-0.577 0.042-1.096-0.037-1.581-0.572-3.486-2.669-5.722-3.202-6.507-1.468-2.269-1.618-6.046-1.622-6.080-0.005-0.179-0.103-0.339-0.257-0.417-0.15-0.078-0.332-0.068-0.472 0.034-2.45 1.741-2.239 5.935-1.898 8.276 0.080 0.543 0.234 1.096 0.5 1.794 0.949 2.497-0.187 5.721-0.196 5.75s-0.019 0.053-0.023 0.082c-0.145 0.795-0.388 1.27-0.659 1.27-0.028 0-0.056-0.005-0.089-0.015-0.332-0.073-0.505-0.441-0.51-0.761-0.019-4.136-3.988-5.527-4.030-5.542-0.178-0.058-0.374-0.005-0.496 0.145-0.126 0.15-0.15 0.359-0.065 0.533 0.047 0.102 0.196 0.548 0.094 2.124-0.089 1.416-0.337 2.817-0.734 4.16-0.944 3.219-0.795 6.269-0.785 6.415 0.726 8.257 12.083 9.704 18.822 5.052 0.739-0.509 1.342-1.091 1.786-1.731 2.487-3.588 1.024-8.46-0.065-11.050zM65.999 24.481c0.014 0.267-0.182 0.495-0.439 0.509h-0.028c-0.248 0-0.453-0.199-0.468-0.456-0.042-0.708-0.033-1.45 0.019-2.255 0.019-0.267 0.243-0.465 0.5-0.451 0.257 0.019 0.453 0.252 0.435 0.519-0.052 0.766-0.061 1.464-0.019 2.133zM66.228 20.185c-0.028 0.247-0.229 0.427-0.463 0.427-0.019 0-0.037 0-0.061-0.005-0.252-0.034-0.435-0.272-0.407-0.538l0.224-1.872c0.033-0.262 0.262-0.451 0.524-0.422 0.257 0.034 0.44 0.276 0.407 0.543l-0.224 1.867z">
      </path>
      <path fill="#ff6b09" style="fill: var(--color2, #ff6b09)"
        d="M80.112 6.633c-0.255-0.041-0.43-0.288-0.391-0.553 0.029-0.197 0.198-1.205 0.656-1.713 0.176-0.196 0.472-0.206 0.661-0.022s0.198 0.49 0.021 0.685c-0.194 0.215-0.359 0.829-0.415 1.197-0.040 0.262-0.275 0.445-0.534 0.405z">
      </path>
      <path fill="#ff6b09" style="fill: var(--color2, #ff6b09)"
        d="M63.068 9.048c-0.090-0.361-0.312-0.955-0.525-1.149-0.194-0.177-0.214-0.483-0.043-0.684s0.465-0.222 0.66-0.045c0.504 0.458 0.767 1.445 0.815 1.638 0.064 0.259-0.087 0.523-0.336 0.59-0.255 0.067-0.506-0.094-0.569-0.349z">
      </path>
      <path fill="#111518" style="fill: var(--color1, #111518)"
        d="M106.17 23.003v4.197h-15.037v-19.2h14.689v4.197h-9.445v3.237h8.321v4.059h-8.321v3.511h9.793z"></path>
      <path fill="#111518" style="fill: var(--color1, #111518)"
        d="M128 8v19.2h-4.361l-8.268-10.231v10.231h-5.191v-19.2h4.361l8.268 10.231v-10.231h5.191z"></path>
    </symbol>

    <symbol id="fire" viewBox="0 0 24 32">
      <path
        d="M22.474 16.593c-0.271-0.635-0.645-1.261-1.192-1.983-1.379-1.813-1.8-5.857-1.805-5.896-0.019-0.194-0.15-0.354-0.323-0.412-0.178-0.058-0.369-0.005-0.496 0.141-1.646 1.925-0.954 4.897-0.58 6.085 0.103 0.325 0.215 0.708 0.294 1.096 0.608 3.137-0.566 4.558-0.841 4.844-0.267 0.078-0.449 0.039-0.617-0.15-0.58-0.664-0.772-2.841-0.5-5.678 0.056-0.577 0.042-1.096-0.037-1.581-0.572-3.486-2.669-5.722-3.202-6.507-1.468-2.269-1.618-6.046-1.622-6.080-0.005-0.179-0.103-0.339-0.257-0.417-0.15-0.078-0.332-0.068-0.472 0.034-2.45 1.741-2.239 5.935-1.898 8.276 0.079 0.543 0.234 1.096 0.5 1.794 0.949 2.497-0.187 5.721-0.196 5.75s-0.019 0.053-0.023 0.082c-0.145 0.795-0.388 1.27-0.659 1.27-0.028 0-0.056-0.005-0.089-0.015-0.332-0.073-0.505-0.441-0.51-0.761-0.019-4.136-3.988-5.527-4.030-5.542-0.178-0.058-0.374-0.005-0.496 0.145-0.126 0.15-0.15 0.359-0.065 0.533 0.047 0.102 0.196 0.548 0.094 2.124-0.089 1.416-0.337 2.817-0.734 4.16-0.944 3.219-0.795 6.269-0.785 6.415 0.726 8.257 12.082 9.704 18.822 5.052 0.739-0.509 1.342-1.091 1.786-1.731 2.487-3.588 1.024-8.46-0.065-11.050zM5.199 24.481c0.014 0.267-0.182 0.495-0.439 0.509h-0.028c-0.248 0-0.454-0.199-0.468-0.456-0.042-0.708-0.033-1.45 0.019-2.255 0.019-0.267 0.243-0.465 0.5-0.451 0.257 0.019 0.454 0.252 0.435 0.519-0.051 0.766-0.061 1.464-0.019 2.133zM5.428 20.185c-0.028 0.247-0.229 0.427-0.463 0.427-0.019 0-0.037 0-0.061-0.005-0.252-0.034-0.435-0.272-0.407-0.538l0.224-1.872c0.033-0.262 0.262-0.451 0.524-0.422 0.257 0.034 0.439 0.276 0.407 0.543l-0.224 1.867z">
      </path>
      <path
        d="M19.312 6.633c-0.255-0.041-0.43-0.288-0.391-0.553 0.029-0.197 0.198-1.205 0.656-1.713 0.176-0.196 0.472-0.206 0.661-0.022s0.198 0.49 0.021 0.685c-0.194 0.215-0.359 0.829-0.415 1.197-0.040 0.262-0.275 0.445-0.534 0.405z">
      </path>
      <path
        d="M2.267 9.048c-0.090-0.361-0.312-0.955-0.525-1.149-0.194-0.177-0.214-0.483-0.043-0.684s0.465-0.222 0.66-0.045c0.504 0.458 0.767 1.445 0.815 1.638 0.064 0.259-0.087 0.523-0.336 0.59-0.255 0.067-0.506-0.094-0.569-0.349z">
      </path>
    </symbol>
    <symbol id="phone" viewBox="0 0 32 32">
      <path
        d="M4.657.003a1.969 1.969 0 0 0-1.392.678L.67 3.65c.004-.009-.01-.008-.084.101a.656.656 0 0 0-.09.184C-.56 7.437.148 11.289 1.872 14.953S6.347 22.123 9.505 25c3.158 2.877 6.721 5.128 10.119 6.244s6.692 1.102 9.133-.742a.536.536 0 0 0 .075-.068c.064-.067.066-.075.056-.065l.01-.013L31.48 27.4c.742-.849.682-2.184-.134-2.956l-6.126-5.799a1.965 1.965 0 0 0-2.84.138l-2.772 3.173c-2.25-.678-4.173-1.828-6.023-3.58s-3.132-3.637-3.993-5.905l2.771-3.173c.742-.849.683-2.184-.133-2.956L6.104.542A1.962 1.962 0 0 0 4.656.003h-.001zm.058 1.301c.19-.009.383.06.541.209l6.126 5.8a.788.788 0 0 1 .05 1.104l-3.063 3.504a.667.667 0 0 0-.124.665c.93 2.641 2.429 4.807 4.493 6.761s4.275 3.304 6.889 4.018a.612.612 0 0 0 .626-.193l3.064-3.505a.716.716 0 0 1 1.06-.051l6.127 5.8a.786.786 0 0 1 .049 1.103l-2.561 2.93c-2.003 1.497-4.826 1.581-7.986.542-3.173-1.043-6.617-3.202-9.666-5.98s-5.702-6.169-7.332-9.633C1.394 10.949.809 7.483 1.696 4.428l2.502-2.862a.736.736 0 0 1 .52-.261z" />
    </symbol>
    <symbol id="support" viewBox="0 0 32 32">
      <path
        d="M1.979 12.558v2.831c0 .152.069.295.188.39a10.97 10.97 0 0 0 6.788 2.362c.735 0 1.471-.077 2.19-.224A11.85 11.85 0 0 0 16 18.949c1.695 0 3.327-.349 4.855-1.032 3.069.624 6.338-.046 8.977-2.138a.497.497 0 0 0 .188-.39v-2.831c0-.416-.205-.794-.571-1.027L25.61 9.355c.84-1.073 1.466-2.602 1.574-3.913.319-2.256-1.507-4.646-4.136-4.646a4.162 4.162 0 0 0-2.927 1.227c-.027.027-.057.049-.083.076-.024.025-.043.054-.066.08l-.044.053C19.177.852 17.733 0 16.032 0c-.165 0-.328.011-.488.028-.01-.001-.018-.006-.028-.006-.091 0-.285.024-.388.054-.015.004-.026.015-.041.021a4.453 4.453 0 0 0-2.991 2.156A4.134 4.134 0 0 0 8.94.796c-3.88 0-5.601 4.612-2.539 8.581l-3.875 2.167a1.193 1.193 0 0 0-.549 1.014zm18.867 4.27c-.083.041-.166.085-.25.123l-.002.001A10.862 10.862 0 0 1 16 17.958c-1.602 0-3.148-.338-4.596-1.007a10.876 10.876 0 0 1-2.03-1.221v-2.87c0-.098.047-.184.101-.221l4.509-2.524c.561.48 1.278.832 2.02.832.715 0 1.488-.357 2.038-.843l4.455 2.52a.277.277 0 0 1 .129.237v2.87c-.567.429-1.164.795-1.781 1.098zm8.099-4.446a.203.203 0 0 1 .091.176v2.587a9.864 9.864 0 0 1-6.688 1.98c.367-.23.766-.516 1.075-.76a.497.497 0 0 0 .188-.39v-3.114c0-.435-.217-.835-.606-1.087l-2.366-1.339.575-.321c.698.573 1.297.744 1.835.744.658 0 1.35-.325 1.864-.759l4.031 2.284zM23.05 1.788c1.371 0 2.574.902 3 2.142a3.665 3.665 0 0 1-2.221-1.142.489.489 0 0 0-.783.084 3.657 3.657 0 0 1-2.529 1.76v-.003a4.95 4.95 0 0 0-.032-.653l-.007-.067a5.536 5.536 0 0 0-.121-.609c.559-.902 1.598-1.513 2.694-1.513zm-2.641 3.856a4.603 4.603 0 0 0 3.142-1.762 4.634 4.634 0 0 0 2.682 1.056c-.007 1.792-1.461 4.927-3.183 4.927-1.328 0-2.461-1.912-2.885-3.238.108-.341.186-.669.244-.983zm.1 3.729-.88.491-.888-.502c.329-.413.631-.893.89-1.413.249.526.546 1.01.878 1.425zm-1.327-2.908c-.475 1.427-1.693 3.49-3.176 3.49-1.73 0-3.203-2.864-3.483-4.696.075-.019 2.412.126 4.02-2.001.816.688 1.918 1.143 2.989 1.188.013.647-.143 1.406-.35 2.018zM16.034.992c2.76 0 3.285 2.392 3.328 2.442a4.085 4.085 0 0 1-2.545-1.276.491.491 0 0 0-.784.087 4.048 4.048 0 0 1-3.555 2.022c.135-1.822 1.585-3.274 3.555-3.274zm-3.662 6.946a7.91 7.91 0 0 0 .906 1.438l-.869.487-.9-.51c.341-.438.631-.929.863-1.415zm-3.43-6.15c1.117 0 2.14.571 2.71 1.514-.029.1-.106.498-.116.548a3.646 3.646 0 0 1-1.808-1.062.49.49 0 0 0-.783.086 3.68 3.68 0 0 1-3.154 1.815c.157-1.627 1.507-2.9 3.151-2.9zm-3.108 3.89A4.663 4.663 0 0 0 9.45 3.882a4.578 4.578 0 0 0 2.041.961c.029.575.178 1.273.348 1.789-.272.84-.793 1.841-1.44 2.505l-.014.01c-.405.43-.981.719-1.434.719-1.583 0-2.82-2.508-3.117-4.188zm-2.87 6.88c0-.075.033-.139.067-.162l4.086-2.284c.245.206.302.229.351.265.481.322.922.482 1.523.482.64 0 1.223-.273 1.737-.694.029-.023.06-.045.087-.068l.583.33-2.429 1.361c-.363.236-.58.636-.58 1.071v3.114c0 .152.069.296.188.39.314.249.722.539 1.075.761a9.903 9.903 0 0 1-6.689-1.98v-2.587z" />
      <path
        d="M31.034 20.781a2.036 2.036 0 0 0-1.993-.11l-6.076 2.956a2.102 2.102 0 0 0-2.092-2.071l-3.484.001c-1.718-1.504-3.913-2.425-5.909-2.473-1.968-.047-3.735-.06-4.56-.064v-1.002H-.002v11.517H6.92v-1.379c1.898 1.097 6.889 3.845 9.258 3.845.054 0 .106-.001.157-.004 4.165-.235 13.989-7.198 14.637-7.661a2.08 2.08 0 0 0 1.026-1.796c0-.719-.361-1.376-.966-1.758zM5.937 28.542H.985v-9.533h4.952v9.533zm24.53-5.058a.296.296 0 0 0-.044.028c-.101.073-10.207 7.271-14.142 7.494a2.315 2.315 0 0 1-.12.003c-2.077 0-7.143-2.753-9.24-4.001v-6.997c.821.004 2.578.017 4.536.064 1.824.044 3.848.921 5.416 2.346l.14.128 3.86-.001c.612 0 1.111.502 1.111 1.119s-.498 1.119-1.111 1.119h-7.091v.992h7.091c.68 0 1.278-.333 1.662-.839l6.934-3.373c.34-.167.72-.146 1.041.057s.504.537.504.918c0 .391-.21.753-.549.945zM16.492 12.159h-.985v.92h.985v-.92zM16.492 13.992h-.985v.92h.985v-.92zM16.492 15.826h-.985v.92h.985v-.92z" />
    </symbol>
    <symbol id="teach" viewBox="0 0 27 32">
      <path
        d="M.059 31.693h27.355c.136-3.12-.088-8.295-2.006-10.759l-.069-.088-4.191-2.104c.091-.307.136-.588.154-.795a1.449 1.449 0 0 0-.102-.692c-.691-1.655-2.155-2.525-2.959-2.896a5.158 5.158 0 0 0 .48-1.567c.456-.128.822-.489.942-.971l.489-1.987a1.343 1.343 0 0 0-.154-1.023 1.346 1.346 0 0 0-.3-.341c1.379-3.133-.931-6.087-1.057-6.243C16.139-.478 12.979.028 12.812.058c-4.561.955-6.321 4.451-5.328 8.55-.294.326-.418.78-.309 1.226l.492 1.99c.119.478.483.838.935.968.139.993.56 1.89 1.177 2.614v1.576c-6.545 3.352-2.398 1.213-7.643 3.867-.01.049-2.461 2.654-2.097 10.375l.022.472zm26.404-.99h-4.502v-1.891l2.978-6.816c1.492 2.476 1.547 7.203 1.524 8.708zm-6.144-12.841c-.174 1.996-1.268 1.393-1.944 2.93-.531-.584-.691-1.285-.548-2.035.258-1.377-.583-1.786-.375-3.233l.031-.033v-.005c.018-.02.184-.217.232-.28 1.781.777 2.639 2.221 2.604 2.656zm-9.556-1.568a5.068 5.068 0 0 0 2.899.912 5.06 5.06 0 0 0 2.795-.836c.114 1.138.559 1.365.401 2.203a3.52 3.52 0 0 0-.055.459l-3.066 3.456-3.919-4.419.946-.494v-1.281zm-1.232-4.229V6.783c.477-.883 1.128-1.522 1.936-1.906 2.165 1.225 4.657 3.053 6.329 4.893-.002 2.343.007 2.35-.009 2.542l-.001.012c-.13 2.128-1.88 3.892-4.124 3.892-2.181 0-3.992-1.713-4.123-3.913a2.69 2.69 0 0 1-.008-.238zm-.611 6.482 4.816 5.43 3.234-3.644c.074.213.178.414.296.608l-3.53 4.414-5.264-6.583.447-.224zm9.862-7.279v-1.53l.368-.421c.02.775.104-.14-.368 1.951zM12.993 1.029c.196.012 2.824-.4 4.901 1.843.082.103 1.773 2.281 1.093 4.665-.233-1.061-.638-2.42-1.278-3.068l-.7.697c.632.641 1.048 2.591 1.206 3.602-2.901-3.035-6.643-4.957-6.694-4.989-.188.117-1.771.418-2.921 2.653l-.055.107v1.642l-.145.002c-.731-3.528.669-6.33 4.593-7.153zM8.296 9.201l.249 1.008v1.06l-.414-1.674c-.061-.25.124-.344.165-.394zm-.725 10.023 6.166 7.712 4.172-5.218c.454.406.672.464 1.634.959l-.325-1.101c-.082-.279.244-.728.441-.934.44-.238.806-.579 1.08-.998l3.404 1.709-3.167 7.251v2.099H6.499v-2.099l-3.169-7.25 4.242-2.129zm-5.037 2.773 2.978 6.815v1.891H1.01c-.023-1.504.033-6.229 1.524-8.706z" />
    </symbol>
    <symbol id="menu" viewBox="0 0 32 32">
      <path d="M6.4 11.733V9.6h19.2v2.133H6.4zm0 5.334h19.2v-2.133H6.4v2.133zm0 5.333h19.2v-2.133H6.4V22.4z" />
    </symbol>
    <symbol id="menuclose" viewBox="0 0 32 32">
      <path
        d="M23.733 10.304 22.229 8.8l-5.963 5.963L10.303 8.8l-1.504 1.504 5.963 5.963-5.963 5.963 1.504 1.504 5.963-5.963 5.963 5.963 1.504-1.504-5.963-5.963 5.963-5.963z" />
    </symbol>
    <symbol id="facebook" viewBox="0 0 31 32">
      <path fill="#436eab" style="fill: var(--color1, #436eab)"
        d="M27.65 0.549h-24.332c-0.88 0-1.724 0.347-2.346 0.963s-0.972 1.453-0.972 2.326v24.12c0 0.872 0.35 1.709 0.972 2.326s1.466 0.963 2.346 0.963h9.487v-10.437h-4.355v-4.912h4.355v-3.744c0-4.259 2.558-6.611 6.475-6.611 1.876 0 3.838 0.332 3.838 0.332v4.18h-2.161c-2.13 0-2.794 1.31-2.794 2.654v3.19h4.754l-0.76 4.912h-3.994v10.437h9.487c0.88 0 1.724-0.347 2.346-0.963s0.972-1.453 0.972-2.326v-24.12c0-0.872-0.35-1.709-0.972-2.326s-1.466-0.963-2.346-0.963z">
      </path>
    </symbol>
  </defs>
</svg>