<svg width="40" height="47" viewBox="0 0 40 47" fill="none" xmlns="http://www.w3.org/2000/svg">
<path d="M0.0867639 46.5489C5.2482 46.5489 35.1084 46.5489 40.2638 46.5489C40.4628 41.9671 40.1346 34.3652 37.3176 30.747L37.2157 30.6171L31.0599 27.5263C31.1936 27.0755 31.2594 26.6625 31.2858 26.3589C31.3162 25.9945 31.266 25.6522 31.1359 25.3422C30.1203 22.912 27.9714 21.6335 26.7894 21.0885C27.1496 20.3627 27.3818 19.5836 27.494 18.7875C28.1631 18.5991 28.7013 18.0688 28.8778 17.3614L29.5963 14.4423C29.7236 13.9274 29.6437 13.3933 29.37 12.9391C29.2523 12.7433 29.0999 12.5785 28.9291 12.4375C30.9549 7.83593 27.562 3.49707 27.3771 3.26868C23.7025 -0.70433 19.0604 0.0385719 18.815 0.082601C12.1158 1.48539 9.53054 6.61954 10.9901 12.641C10.5577 13.12 10.3762 13.7873 10.5364 14.4416L11.2585 17.3639C11.4336 18.0661 11.9675 18.5945 12.6319 18.7852C12.8368 20.2431 13.454 21.5617 14.3603 22.6243V24.9384C4.74689 29.8615 10.8382 26.7207 3.13411 30.6181C3.11888 30.6908 -0.480811 34.5166 0.0542339 45.856L0.0867639 46.5489ZM38.8678 45.0943H32.2554V42.3166L36.6288 32.3049C38.8197 35.9413 38.901 42.8845 38.8678 45.0943ZM29.8431 26.2353C29.588 29.1666 27.9805 28.2806 26.9881 30.5389C26.2077 29.6807 25.9729 28.6515 26.1826 27.5499C26.5616 25.5272 25.327 24.9264 25.6322 22.8011L25.6784 22.7524V22.7456C25.7046 22.7163 25.9481 22.4264 26.0186 22.3347C28.6347 23.4752 29.8942 25.5962 29.8431 26.2353ZM15.8086 23.9313C17.0231 24.7737 18.4892 25.2715 20.066 25.2715C21.5511 25.2715 22.9615 24.8394 24.1708 24.0437C24.3384 25.7146 24.9914 26.0491 24.7597 27.2786C24.7162 27.5069 24.6928 27.7318 24.6788 27.953L20.1756 33.0283L14.4191 26.5384L15.8086 25.8127V23.9313H15.8086ZM13.9982 17.72V14.9061C13.9982 13.8699 13.9982 9.75886 13.9982 9.96187C14.699 8.6657 15.6545 7.72571 16.8419 7.16215C20.022 8.96149 23.6825 11.6468 26.1374 14.3493C26.135 17.791 26.1471 17.8004 26.1242 18.0832L26.1226 18.1011C25.9311 21.2264 23.3613 23.817 20.066 23.817C16.8624 23.817 14.2026 21.3017 14.0102 18.0702C14.0003 17.9544 13.9982 17.8383 13.9982 17.72ZM13.1015 27.2403L20.1756 35.2151L24.925 29.8623C25.0336 30.1748 25.1858 30.4701 25.3599 30.7553L20.1756 37.2385L12.4448 27.5699L13.1015 27.2403ZM27.5857 16.5496V14.3028C27.6494 14.2298 28.1893 13.6107 28.1257 13.6837C28.1555 14.8213 28.2783 13.4786 27.5857 16.5496ZM19.083 1.51194C19.3703 1.52983 23.2307 0.924747 26.2816 4.21862C26.4017 4.36937 28.8854 7.56925 27.8876 11.0698C27.5461 9.51212 26.9508 7.51603 26.0101 6.56343L24.9818 7.58758C25.9107 8.52836 26.5208 11.3932 26.7531 12.8785C22.4925 8.42017 16.9965 5.5984 16.9211 5.55065C16.6454 5.72208 14.3196 6.16426 12.6305 9.44731L12.5498 9.60427V12.0155C12.4773 12.0163 12.2644 12.0185 12.3369 12.0178C11.2637 6.83624 13.319 2.72008 19.083 1.51194ZM12.1843 13.5141L12.5498 14.9949V16.5514L11.9423 14.0926C11.8532 13.7261 12.1247 13.5871 12.1843 13.5141ZM11.1194 28.2353L20.1756 39.5617L26.3029 31.8982C26.9695 32.4947 27.2899 32.5793 28.7031 33.306L28.2265 31.6891C28.1055 31.2786 28.5843 30.6203 28.8735 30.3177C29.5191 29.9675 30.0573 29.4681 30.4598 28.8514L35.459 31.3617L30.807 42.0119V45.0943H9.54351V42.0116L4.88939 31.3628L11.1194 28.2353ZM3.72109 32.3081L8.09515 42.317V45.0943H1.48278C1.44955 42.8852 1.53159 35.9455 3.72109 32.3081Z" fill="#FF6B09"/>
</svg>
