<svg width="46" height="34" viewBox="0 0 46 34" fill="none" xmlns="http://www.w3.org/2000/svg">
<path d="M20.2954 4.80249H5.7832V5.89498H20.2954V4.80249Z" fill="white"/>
<path d="M20.2951 8.87964H7.95605V9.97213H20.2951V8.87964Z" fill="white"/>
<path d="M20.2954 12.957H5.7832V14.0495H20.2954V12.957Z" fill="white"/>
<path d="M20.2951 17.0339H7.95605V18.1264H20.2951V17.0339Z" fill="white"/>
<path d="M20.2954 21.1111H5.7832V22.2036H20.2954V21.1111Z" fill="white"/>
<path d="M20.2951 25.1882H7.95605V26.2807H20.2951V25.1882Z" fill="white"/>
<path d="M40.2163 4.80249H25.7041V5.89498H40.2163V4.80249Z" fill="white"/>
<path d="M38.0431 8.87964H25.7041V9.97213H38.0431V8.87964Z" fill="white"/>
<path d="M40.2163 12.957H25.7041V14.0495H40.2163V12.957Z" fill="white"/>
<path d="M38.0431 17.0339H25.7041V18.1264H38.0431V17.0339Z" fill="white"/>
<path d="M40.2163 21.1111H25.7041V22.2036H40.2163V21.1111Z" fill="white"/>
<path d="M38.0431 25.1882H25.7041V26.2807H38.0431V25.1882Z" fill="white"/>
<path d="M45.4567 3.55772H43.4646V0.546739C43.4646 0.244894 43.2212 0 42.9213 0H26.6801C25.0951 0 23.7214 0.862245 23.0005 2.15296C22.2795 0.862111 20.9049 0 19.3199 0H3.07874C2.77879 0 2.53543 0.244894 2.53543 0.546739V3.55772H0.543307C0.243356 3.55772 0 3.80262 0 4.10446V33.4533C0 33.7551 0.243356 34 0.543307 34C5.99813 34 39.9823 34 45.4567 34C45.7566 34 46 33.7551 46 33.4533V4.10446C46 3.80262 45.7566 3.55772 45.4567 3.55772ZM26.6801 1.09348H42.3779C42.3779 5.98955 42.3779 18.8869 42.3779 30.3771H25.5209C24.7737 30.3771 24.0266 30.6943 23.5433 31.1054V4.24293C23.5433 2.4975 24.9319 1.09348 26.6801 1.09348ZM3.62205 1.09348H19.3199C21.0188 1.09348 22.3937 2.42402 22.45 4.12261C22.4507 4.14611 22.4528 4.21979 22.4567 4.24293V4.2472V4.24826V31.1033C21.9747 30.6937 21.2356 30.3771 20.4861 30.3771H3.62205C3.62205 18.8908 3.62205 5.98799 3.62205 1.09348ZM1.08661 4.6512H2.53543V30.9239C2.53543 31.2257 2.77879 31.4706 3.07874 31.4706H20.4861C21.3144 31.4706 22.1147 32.0174 22.3709 32.9065H1.08661V4.6512ZM44.9134 32.9065H23.6294C23.8873 32.0131 24.6797 31.4706 25.5209 31.4706H42.9213C43.2212 31.4706 43.4646 31.2257 43.4646 30.9239V4.6512H44.9134V32.9065Z" fill="white"/>
</svg>
