<svg width="45" height="48" viewBox="0 0 45 48" fill="none" xmlns="http://www.w3.org/2000/svg">
<path d="M44.9653 7.46284C44.9653 7.4618 44.9643 7.46076 44.9643 7.4592C44.9543 7.43575 44.9422 7.41282 44.928 7.39146C44.9264 7.3899 44.9253 7.38833 44.9243 7.38677C44.9096 7.36489 44.8927 7.343 44.8732 7.32372L37.6013 0.125016C37.5823 0.106259 37.5618 0.0906307 37.5397 0.0760415C37.5355 0.0729153 37.5302 0.070303 37.526 0.0671768C37.5081 0.0562349 37.4902 0.0463352 37.4713 0.0379986C37.4655 0.0353934 37.4602 0.0327879 37.455 0.0312248C37.4076 0.0124673 37.3565 0.00256819 37.3055 0.00100506C37.3023 0.00100506 37.2997 0.000488281 37.2976 0.000488281H5.26248C5.02511 0.000488281 4.83301 0.19119 4.83301 0.42618V44.3333C4.83301 44.3614 4.83564 44.3885 4.84143 44.4167C4.84406 44.4287 4.84828 44.4396 4.85196 44.4511C4.8567 44.4662 4.86038 44.4813 4.86617 44.4959C4.87196 44.5089 4.87933 44.5214 4.88669 44.5344C4.89301 44.5454 4.89827 44.5579 4.90564 44.5688C4.92037 44.5902 4.93722 44.6105 4.95512 44.6287C4.95669 44.6303 4.95722 44.6324 4.95932 44.6334L8.23452 47.8753C8.40241 48.0416 8.67399 48.0416 8.8424 47.8753L11.815 44.9341L14.7865 47.8753C14.8702 47.9587 14.9807 47.9999 15.0907 47.9999C15.2002 47.9999 15.3102 47.9587 15.3944 47.8753L18.3654 44.9346L21.3379 47.8753C21.5058 48.0416 21.7779 48.0416 21.9458 47.8753L24.9168 44.9346L27.8878 47.8753C28.0557 48.0416 28.3278 48.0416 28.4952 47.8753L31.4688 44.9341L34.4398 47.8753C34.5234 47.9587 34.634 47.9999 34.7434 47.9999C34.8534 47.9999 34.9634 47.9587 35.0476 47.8753L38.0186 44.9346L40.9917 47.8753C41.1591 48.0416 41.4317 48.0416 41.5991 47.8753L44.8743 44.6334C44.8806 44.6272 44.8853 44.6199 44.8911 44.6131C44.9032 44.599 44.9164 44.585 44.9269 44.5693C44.9369 44.5553 44.9438 44.5391 44.9517 44.524C44.9569 44.5141 44.9627 44.5058 44.9659 44.4959C44.9748 44.4766 44.979 44.4568 44.9843 44.437C44.9864 44.4302 44.9895 44.424 44.9911 44.4172C44.9969 44.388 45.0001 44.3599 45.0001 44.3302V7.62541C44.9985 7.56966 44.9874 7.51442 44.9653 7.46284ZM37.7265 1.45367L43.5306 7.19919H37.7265V1.45367ZM44.1385 44.1561L41.2938 46.9724L38.3207 44.0311C38.1534 43.8654 37.8813 43.8654 37.7134 44.0311L34.7424 46.9724L31.7714 44.0311C31.6035 43.8654 31.3314 43.8654 31.1635 44.0311L28.1904 46.9724L25.2199 44.0327C25.2199 44.0321 25.2194 44.0316 25.2194 44.0311C25.1358 43.9483 25.0258 43.9066 24.9152 43.9066C24.8052 43.9066 24.6952 43.9483 24.6116 44.0311C24.611 44.0316 24.611 44.0316 24.611 44.0316L21.6406 46.9724L18.668 44.0311C18.5001 43.8654 18.2285 43.8654 18.0601 44.0311L15.0891 46.9724L12.1176 44.0311C11.9497 43.8654 11.6781 43.8654 11.5097 44.0311L8.53715 46.9724L5.69194 44.1561V0.85083H36.8671V7.62437C36.8671 7.85936 37.0597 8.05006 37.2971 8.05006H44.138L44.1385 44.1561Z" fill="#FF6B09"/>
<path d="M8.89678 4.87653H22.9733C23.2107 4.87653 23.4033 4.68583 23.4033 4.45084C23.4033 4.21585 23.2107 4.02515 22.9733 4.02515H8.89678C8.65889 4.02515 8.4668 4.21585 8.4668 4.45084C8.4668 4.68583 8.65889 4.87653 8.89678 4.87653Z" fill="#FF6B09"/>
<path d="M8.89678 7.50812H31.4705C31.7079 7.50812 31.9005 7.31742 31.9005 7.08243C31.9005 6.84744 31.7079 6.65674 31.4705 6.65674H8.89678C8.65889 6.65674 8.4668 6.84744 8.4668 7.08243C8.4668 7.31742 8.65889 7.50812 8.89678 7.50812Z" fill="#FF6B09"/>
<path d="M8.4668 9.87052V23.65C8.4668 23.885 8.65889 24.0757 8.89678 24.0757H40.933C41.1703 24.0757 41.3624 23.885 41.3624 23.65V9.87052C41.3624 9.63553 41.1703 9.44482 40.933 9.44482H8.89678C8.65889 9.44482 8.4668 9.63553 8.4668 9.87052ZM17.9671 10.2962H40.5024V13.9586H17.9671V10.2962ZM17.9671 14.81H40.5024V18.4708H17.9671V14.81ZM17.9671 19.3217H40.5024V23.2243H17.9671V19.3217ZM9.32677 10.2962H17.1077V13.9586H9.32677V10.2962ZM9.32677 14.81H17.1077V18.4708H9.32677V14.81ZM9.32677 19.3217H17.1077V23.2243H9.32677V19.3217Z" fill="#FF6B09"/>
<path d="M40.933 25.9905H8.89678C8.65889 25.9905 8.4668 26.1812 8.4668 26.4162V40.1951C8.4668 40.4301 8.65889 40.6203 8.89678 40.6203C9.13414 40.6203 9.32625 40.4301 9.32625 40.1951V35.8673H17.1071V40.1951C17.1071 40.4301 17.2998 40.6203 17.5366 40.6203C17.7745 40.6203 17.9666 40.4301 17.9666 40.1951V35.8673H40.5019V40.1951C40.5019 40.4301 40.6945 40.6203 40.9319 40.6203C41.1693 40.6203 41.3614 40.4301 41.3614 40.1951V26.4162C41.3624 26.1812 41.1703 25.9905 40.933 25.9905ZM17.1077 35.016H9.32677V31.3556H17.1077V35.016ZM17.1077 30.5037H9.32677V26.8424H17.1077V30.5037ZM40.5024 35.016H17.9671V31.3556H40.5024V35.016ZM40.5024 30.5037H17.9671V26.8424H40.5024V30.5037Z" fill="#FF6B09"/>
<path d="M2.79425 0C2.55689 0 2.36426 0.190702 2.36426 0.425692V44.3328C2.36426 44.5673 2.55689 44.758 2.79425 44.758C3.03161 44.758 3.22423 44.5673 3.22423 44.3328V0.425692C3.22423 0.190702 3.03161 0 2.79425 0Z" fill="#FF6B09"/>
<path d="M0.429992 0C0.192628 0 0 0.190702 0 0.425692V44.3328C0 44.5673 0.192628 44.758 0.429992 44.758C0.667355 44.758 0.859453 44.5673 0.859453 44.3328V0.425692C0.859453 0.190702 0.667355 0 0.429992 0Z" fill="#FF6B09"/>
</svg>
