<svg width="51" height="44" viewBox="0 0 51 44" fill="none" xmlns="http://www.w3.org/2000/svg">
<path d="M3.1875 41.0102H20.2425C21.1068 42.8266 22.9154 44 24.9563 44H26.0333C28.0763 44 29.8838 42.8271 30.7482 41.0102H47.8125C49.5702 41.0102 51 39.5614 51 37.7802V6.82592C51 5.04479 49.5702 3.59591 47.8125 3.59591H46.0911V2.15334C46.0911 0.965742 45.1376 0 43.9661 0H7.0235C5.85205 0 4.8985 0.965742 4.8985 2.15334V3.59591H3.1875C1.42981 3.59591 0 5.04479 0 6.82592V37.7802C0 39.5614 1.42981 41.0102 3.1875 41.0102ZM43.9641 34.3673H26.5625V9.34761C30.5847 9.88069 33.7032 13.368 33.7032 17.5869V18.5579L33.4511 18.5016C33.1772 18.4422 32.8898 18.4921 32.6511 18.6457C32.4135 18.7997 32.2454 19.0426 32.1852 19.3217L30.494 27.1213C30.3684 27.7012 30.7305 28.2747 31.3033 28.4025L34.9587 29.2189C35.1476 29.2594 35.3395 29.2804 35.5315 29.2804C36.8171 29.2804 37.9117 28.3893 38.1919 27.1113L39.1703 22.6006C39.493 21.1197 38.5665 19.6466 37.1003 19.3165L35.8282 19.0324V17.5869C35.8282 12.1783 31.7601 7.71507 26.5625 7.17174V2.15334H43.9661L43.9641 34.3673ZM34.0322 20.8363L36.6417 21.4188C36.9675 21.4924 37.1667 21.8068 37.0951 22.137L36.1167 26.6466C36.0461 26.9725 35.6902 27.1749 35.409 27.1145L32.7964 26.5309L34.0322 20.8363ZM7.0235 2.15334H24.4375V7.17015C19.2347 7.70848 15.1614 12.1746 15.1614 17.5869V19.0317L13.8872 19.317C13.1775 19.4768 12.5715 19.9053 12.1824 20.5235C11.7913 21.1433 11.6626 21.8815 11.8203 22.5985L12.7967 27.1039C13.0613 28.3652 14.1808 29.2804 15.4592 29.2804C15.6511 29.2804 15.8431 29.2594 16.0392 29.2173L19.6791 28.4025C20.2508 28.2742 20.6129 27.7012 20.4874 27.1213L18.7961 19.3217C18.7359 19.0426 18.5678 18.7992 18.3302 18.6457C18.0915 18.4921 17.8031 18.4417 17.5292 18.5016L17.2864 18.556V17.5869C17.2864 13.3644 20.4102 9.87444 24.4375 9.34597V34.3673H7.0235V4.67258V2.15334ZM16.9492 20.8374L18.186 26.5314L15.5878 27.1129C15.2683 27.1859 14.9424 26.972 14.874 26.6497L13.8955 22.1338C13.8602 21.9771 13.8882 21.8168 13.9723 21.6832C14.0574 21.5481 14.1912 21.4546 14.3458 21.4193L16.9492 20.8374ZM2.125 6.82592C2.125 6.23239 2.60125 5.74925 3.1875 5.74925H4.8985V34.3673C4.8985 35.5549 5.85205 36.5206 7.0235 36.5206H43.9661C45.1376 36.5206 46.0911 35.5549 46.0911 34.3673V5.74925H47.8125C48.3987 5.74925 48.875 6.23239 48.875 6.82592V37.7802C48.875 38.3738 48.3987 38.8569 47.8125 38.8569H30.026C29.5591 38.8569 29.1472 39.1655 29.0102 39.6176C28.6066 40.9508 27.4102 41.8466 26.0333 41.8466H24.9563C23.5846 41.8466 22.3893 40.9545 21.9753 39.605C21.8342 39.1592 21.4254 38.8569 20.9636 38.8569H3.1875C2.60125 38.8569 2.125 38.3738 2.125 37.7802V6.82592Z" fill="#FF6B09"/>
</svg>
