<svg width="30" height="31" viewBox="0 0 30 31" fill="none" xmlns="http://www.w3.org/2000/svg">
<path d="M26.7857 0.531494H3.21429C2.3618 0.531494 1.54424 0.867192 0.941442 1.46474C0.338647 2.06228 0 2.87273 0 3.71778L0 27.0839C0 27.929 0.338647 28.7394 0.941442 29.337C1.54424 29.9345 2.3618 30.2702 3.21429 30.2702H12.4051V20.1597H8.18638V15.4008H12.4051V11.7738C12.4051 7.6482 14.8828 5.36934 18.6777 5.36934C20.4951 5.36934 22.3955 5.69063 22.3955 5.69063V9.73987H20.3016C18.2384 9.73987 17.5949 11.0091 17.5949 12.3108V15.4008H22.2007L21.4641 20.1597H17.5949V30.2702H26.7857C27.6382 30.2702 28.4558 29.9345 29.0586 29.337C29.6614 28.7394 30 27.929 30 27.0839V3.71778C30 2.87273 29.6614 2.06228 29.0586 1.46474C28.4558 0.867192 27.6382 0.531494 26.7857 0.531494Z" fill="#436EAB"/>
</svg>
