<svg width="42" height="48" viewBox="0 0 42 48" fill="none" xmlns="http://www.w3.org/2000/svg">
<path d="M0.812652 20.6131C0.812652 21.1484 0 21.1484 0 20.6131C0 9.23114 9.23114 0 20.6131 0C32 0 41.2263 9.23114 41.2263 20.6131C41.2263 21.1484 40.4185 21.1484 40.4185 20.6131C40.4185 12.9197 27.7762 12.9148 27.7762 20.6131C27.7762 21.1484 26.944 21.1484 26.944 20.6131C26.944 12.9392 14.2822 12.9392 14.2822 20.6131C14.2822 21.1484 13.4501 21.1484 13.4501 20.6131C13.4501 12.9538 0.812652 12.9002 0.812652 20.6131ZM13.5231 17.6253C13.7421 13.1971 14.438 9.22628 15.4501 6.19465C16.2579 3.78589 17.2798 1.9562 18.438 0.92944C9.74696 1.87835 2.71046 8.46715 1.13869 17.0122C4.13139 12.6959 11.0414 13.0414 13.5231 17.6253ZM26.8808 17.4258C26.6569 13.1679 25.9805 9.35766 25.0073 6.45255C22.4963 -1.06569 18.7299 -1.06569 16.219 6.45255C15.2457 9.35766 14.5742 13.1679 14.3455 17.4258C17.0462 12.837 24.18 12.837 26.8808 17.4258ZM40.0876 17.0122C38.5207 8.46715 31.4842 1.87835 22.7883 0.92944C23.9513 1.9562 24.9684 3.78589 25.7762 6.19465C26.7883 9.22628 27.4842 13.1971 27.7032 17.6253C30.1995 13.017 37.1289 12.7445 40.0876 17.0122Z" fill="#FF6B09"/>
<path d="M17.9077 30.0449V25.8591C17.1534 26.3604 16.5597 27.1343 16.5597 28.0785C16.5597 28.9984 17.1631 29.6068 17.9077 30.0449ZM18.7203 31.3444C17.2751 30.6825 15.752 29.9086 15.752 28.0785C15.752 26.19 17.1875 25.2458 18.7203 24.54V31.3444Z" fill="#FF6B09"/>
<path d="M23.3185 36.36V40.5936C24.0825 40.0875 24.6811 39.309 24.6811 38.3649C24.6811 37.4355 24.0679 36.8077 23.3185 36.36ZM22.5107 35.0559C23.9609 35.7274 25.4937 36.5255 25.4937 38.3649C25.4937 40.2579 24.0485 41.2019 22.5107 41.9026V35.0559Z" fill="#FF6B09"/>
<path d="M23.3188 21.095C26.6472 21.8638 30.0682 24.3554 30.0682 28.0781C30.0682 31.2655 24.6813 31.1487 24.6813 28.0781C24.6813 27.1292 24.0828 26.3506 23.3188 25.8493V31.8057C26.3991 32.813 30.0779 34.6184 30.0779 38.3655C30.0779 42.0931 26.657 44.5797 23.3188 45.3437C23.3042 48.8913 17.9173 48.8864 17.9076 45.3389C16.0098 44.9009 14.3601 44.0152 13.1679 42.8425C11.9173 41.6064 11.1777 40.0541 11.1777 38.3655C11.1777 35.2267 16.5596 35.2267 16.5596 38.3655C16.5596 39.3047 17.1533 40.0784 17.9076 40.5796V34.6282C14.8516 33.6403 11.1533 31.7814 11.1533 28.0684C11.1533 24.3408 14.5742 21.8541 17.9076 21.0901C17.9222 17.5426 23.309 17.5474 23.3188 21.095ZM18.7202 21.1047V21.7519C15.5523 22.3797 11.9611 24.4089 11.9611 28.0684C11.9611 31.5867 15.9027 33.1634 18.7202 34.0345V41.8984C17.1971 41.2025 15.7519 40.2633 15.7519 38.3655C15.7519 36.2924 11.9854 36.2924 11.9854 38.3655C11.9854 39.8302 12.6375 41.1831 13.7373 42.2634C15.1339 43.6454 16.8273 44.3024 18.7202 44.6771V45.3291C18.7202 47.8256 22.511 47.8256 22.511 45.3291V44.6819C25.6886 44.0493 29.2652 42.0201 29.2652 38.3655C29.2652 34.8131 25.3334 33.2851 22.511 32.3945V25.1632V24.5354C24.039 25.2313 25.494 26.1705 25.494 28.0781C25.494 30.0976 29.2555 30.1804 29.2555 28.0781C29.2555 24.4235 25.6837 22.3894 22.511 21.7568V21.1047C22.511 18.6083 18.7202 18.6083 18.7202 21.1047Z" fill="#FF6B09"/>
</svg>
