<svg width="15" height="20" viewBox="0 0 15 20" fill="none" xmlns="http://www.w3.org/2000/svg">
<g clip-path="url(#clip0_5102_432)">
<path d="M14.0462 10.3704C13.8768 9.97341 13.643 9.5825 13.3011 9.13098C12.4391 7.99765 12.1762 5.47038 12.1732 5.44614C12.1616 5.32492 12.0797 5.22492 11.9716 5.18856C11.8606 5.1522 11.7408 5.18553 11.6619 5.27644C10.6334 6.47947 11.0658 8.33704 11.2996 9.07947C11.3639 9.2825 11.434 9.52189 11.4836 9.76432C11.8635 11.7249 11.1301 12.6128 10.9577 12.7916C10.7911 12.8401 10.6772 12.8158 10.572 12.6977C10.2096 12.2825 10.0898 10.9219 10.2593 9.14917C10.2944 8.78856 10.2856 8.46432 10.2359 8.16129C9.87853 5.98241 8.56802 4.58477 8.23439 4.09462C7.31688 2.67644 7.22338 0.315833 7.22046 0.294621C7.21754 0.1825 7.15618 0.0825 7.05975 0.0340151C6.96625 -0.0144697 6.85229 -0.0084091 6.76463 0.0552273C5.23351 1.14311 5.365 3.76432 5.57831 5.22795C5.62798 5.56735 5.72441 5.9128 5.89096 6.34917C6.48412 7.90977 5.77408 9.92492 5.76824 9.94311C5.76239 9.96129 5.75655 9.97644 5.75363 9.99462C5.66304 10.4916 5.5111 10.7886 5.34163 10.7886C5.32409 10.7886 5.30656 10.7855 5.28611 10.7795C5.07865 10.734 4.97053 10.5037 4.96761 10.3037C4.95592 7.71886 2.47516 6.84917 2.44886 6.84008C2.33783 6.80371 2.21511 6.83705 2.13914 6.93098C2.06024 7.02492 2.04563 7.15523 2.09823 7.26432C2.12745 7.32795 2.22095 7.60674 2.15667 8.59159C2.10115 9.47644 1.94628 10.3522 1.69792 11.1916C1.10768 13.2037 1.20118 15.1098 1.20702 15.2007C1.66089 20.3615 8.75856 21.2658 12.9709 18.3583C13.4326 18.0401 13.8095 17.6764 14.0871 17.2764C15.6416 15.034 14.7271 11.9886 14.0462 10.3704ZM3.24952 15.3007C3.25828 15.4673 3.13556 15.6098 2.97485 15.6189H2.95732C2.80245 15.6189 2.67389 15.4946 2.66512 15.334C2.63882 14.8916 2.64467 14.428 2.67681 13.9249C2.6885 13.7583 2.82875 13.634 2.98946 13.6431C3.15017 13.6552 3.27289 13.8007 3.26121 13.9673C3.22903 14.4461 3.22322 14.8825 3.24952 15.3007ZM3.39266 12.6158C3.37513 12.7704 3.24949 12.8825 3.10339 12.8825C3.0917 12.8825 3.08001 12.8825 3.0654 12.8795C2.90762 12.8583 2.79366 12.7098 2.81119 12.5431L2.95145 11.3734C2.9719 11.2098 3.11508 11.0916 3.27871 11.1098C3.43942 11.131 3.55337 11.2825 3.53292 11.4492L3.39266 12.6158Z" fill="#FF6B09"/>
<path d="M12.0698 4.1459C11.9104 4.12029 11.8012 3.96584 11.8257 3.80057C11.844 3.67745 11.9495 3.04714 12.236 2.7302C12.3463 2.60799 12.531 2.60163 12.6491 2.71644C12.7668 2.83081 12.7728 3.0226 12.6624 3.14481C12.5411 3.27902 12.4378 3.66311 12.4033 3.89293C12.3786 4.05645 12.2315 4.1712 12.0698 4.1459Z" fill="#FF6B09"/>
<path d="M1.41717 5.65529C1.36124 5.42992 1.22227 5.05826 1.08888 4.93692C0.967476 4.82653 0.955349 4.63507 1.06177 4.50932C1.16792 4.38326 1.35239 4.37038 1.47409 4.4812C1.78896 4.7675 1.95347 5.38407 1.9833 5.50465C2.02325 5.66668 1.9291 5.8315 1.77301 5.87323C1.61347 5.91483 1.45694 5.81462 1.41717 5.65529Z" fill="#FF6B09"/>
</g>
<defs>
<clipPath id="clip0_5102_432">
<rect width="14.0255" height="20" fill="white" transform="translate(0.952148)"/>
</clipPath>
</defs>
</svg>
