<svg width="128" height="45" viewBox="0 0 128 45" fill="none" xmlns="http://www.w3.org/2000/svg">
<path d="M19.136 6.8V25H13.988V17.902H6.968V25H1.82V6.8H6.968V13.638H13.988V6.8H19.136ZM37.9773 17.98C37.9773 18.0147 37.9513 18.422 37.8993 19.202H27.6553C27.8633 19.93 28.2619 20.4933 28.8513 20.892C29.4579 21.2733 30.2119 21.464 31.1133 21.464C31.7893 21.464 32.3699 21.3687 32.8553 21.178C33.3579 20.9873 33.8606 20.6753 34.3633 20.242L36.9633 22.946C35.5939 24.4713 33.5919 25.234 30.9573 25.234C29.3106 25.234 27.8633 24.922 26.6153 24.298C25.3673 23.674 24.3966 22.8073 23.7033 21.698C23.0273 20.5887 22.6893 19.332 22.6893 17.928C22.6893 16.5413 23.0186 15.302 23.6773 14.21C24.3533 13.1007 25.2806 12.234 26.4593 11.61C27.6379 10.986 28.9639 10.674 30.4373 10.674C31.8413 10.674 33.1153 10.9687 34.2593 11.558C35.4033 12.13 36.3046 12.9707 36.9633 14.08C37.6393 15.172 37.9773 16.472 37.9773 17.98ZM30.4633 14.184C29.7006 14.184 29.0593 14.4007 28.5393 14.834C28.0366 15.2673 27.7159 15.8567 27.5773 16.602H33.3493C33.2106 15.8567 32.8813 15.2673 32.3613 14.834C31.8586 14.4007 31.2259 14.184 30.4633 14.184ZM41.2949 5.708H46.2349V25H41.2949V5.708ZM50.4853 5.708H55.4253V25H50.4853V5.708Z" fill="#111518"/>
<path d="M6.504 37.4H7.8V43H6.504V37.4ZM3.96 43H2.664V37.4H3.96V43ZM6.6 40.704H3.864V39.608H6.6V40.704ZM11.7569 39.656H14.4529V40.664H11.7569V39.656ZM11.8529 41.96H14.9009V43H10.5649V37.4H14.7969V38.44H11.8529V41.96ZM17.3721 43V37.4H18.6681V41.944H21.4761V43H17.3721ZM23.6402 43V37.4H24.9362V41.944H27.7442V43H23.6402ZM29.9084 43V37.4H31.2044V43H29.9084ZM35.8134 43.096C35.3654 43.096 34.936 43.0373 34.5254 42.92C34.1147 42.7973 33.784 42.64 33.5334 42.448L33.9734 41.472C34.2134 41.6427 34.496 41.784 34.8214 41.896C35.152 42.0027 35.4854 42.056 35.8214 42.056C36.0774 42.056 36.2827 42.032 36.4374 41.984C36.5974 41.9307 36.7147 41.8587 36.7894 41.768C36.864 41.6773 36.9014 41.5733 36.9014 41.456C36.9014 41.3067 36.8427 41.1893 36.7254 41.104C36.608 41.0133 36.4534 40.9413 36.2614 40.888C36.0694 40.8293 35.856 40.776 35.6214 40.728C35.392 40.6747 35.16 40.6107 34.9254 40.536C34.696 40.4613 34.4854 40.3653 34.2934 40.248C34.1014 40.1307 33.944 39.976 33.8214 39.784C33.704 39.592 33.6454 39.3467 33.6454 39.048C33.6454 38.728 33.7307 38.4373 33.9014 38.176C34.0774 37.9093 34.3387 37.6987 34.6854 37.544C35.0374 37.384 35.4774 37.304 36.0054 37.304C36.3574 37.304 36.704 37.3467 37.0454 37.432C37.3867 37.512 37.688 37.6347 37.9494 37.8L37.5494 38.784C37.288 38.6347 37.0267 38.5253 36.7654 38.456C36.504 38.3813 36.248 38.344 35.9974 38.344C35.7467 38.344 35.5414 38.3733 35.3814 38.432C35.2214 38.4907 35.1067 38.568 35.0374 38.664C34.968 38.7547 34.9334 38.8613 34.9334 38.984C34.9334 39.128 34.992 39.2453 35.1094 39.336C35.2267 39.4213 35.3814 39.4907 35.5734 39.544C35.7654 39.5973 35.976 39.6507 36.2054 39.704C36.44 39.7573 36.672 39.8187 36.9014 39.888C37.136 39.9573 37.3494 40.0507 37.5414 40.168C37.7334 40.2853 37.888 40.44 38.0054 40.632C38.128 40.824 38.1894 41.0667 38.1894 41.36C38.1894 41.6747 38.1014 41.9627 37.9254 42.224C37.7494 42.4853 37.4854 42.696 37.1334 42.856C36.7867 43.016 36.3467 43.096 35.8134 43.096ZM44.3549 37.4H45.6509V43H44.3549V37.4ZM41.8109 43H40.5149V37.4H41.8109V43ZM44.4509 40.704H41.7149V39.608H44.4509V40.704Z" fill="#FF6B09"/>
<path d="M53.3135 39.656H56.0095V40.664H53.3135V39.656ZM53.4095 41.96H56.4575V43H52.1215V37.4H56.3535V38.44H53.4095V41.96ZM58.9287 43V37.4H60.0007L63.3047 41.432H62.7847V37.4H64.0647V43H63.0007L59.6887 38.968H60.2087V43H58.9287ZM69.5336 43.096C69.091 43.096 68.683 43.0267 68.3096 42.888C67.9416 42.744 67.619 42.5413 67.3416 42.28C67.0696 42.0187 66.8563 41.712 66.7016 41.36C66.5523 41.008 66.4776 40.6213 66.4776 40.2C66.4776 39.7787 66.5523 39.392 66.7016 39.04C66.8563 38.688 67.0723 38.3813 67.3496 38.12C67.627 37.8587 67.9523 37.6587 68.3256 37.52C68.699 37.376 69.1096 37.304 69.5576 37.304C70.0536 37.304 70.499 37.3867 70.8936 37.552C71.2936 37.7173 71.6296 37.9573 71.9016 38.272L71.0696 39.04C70.867 38.8267 70.6456 38.6693 70.4056 38.568C70.1656 38.4613 69.9043 38.408 69.6216 38.408C69.3496 38.408 69.1016 38.4507 68.8776 38.536C68.6536 38.6213 68.459 38.744 68.2936 38.904C68.1336 39.064 68.0083 39.2533 67.9176 39.472C67.8323 39.6907 67.7896 39.9333 67.7896 40.2C67.7896 40.4613 67.8323 40.7013 67.9176 40.92C68.0083 41.1387 68.1336 41.3307 68.2936 41.496C68.459 41.656 68.651 41.7787 68.8696 41.864C69.0936 41.9493 69.339 41.992 69.6056 41.992C69.8616 41.992 70.1096 41.952 70.3496 41.872C70.595 41.7867 70.8323 41.6453 71.0616 41.448L71.7976 42.384C71.4936 42.6133 71.139 42.7893 70.7336 42.912C70.3336 43.0347 69.9336 43.096 69.5336 43.096ZM70.6136 42.216V40.112H71.7976V42.384L70.6136 42.216ZM74.4415 43V37.4H75.7375V41.944H78.5455V43H74.4415ZM80.7096 43V37.4H82.0056V43H80.7096ZM86.6146 43.096C86.1666 43.096 85.7373 43.0373 85.3266 42.92C84.916 42.7973 84.5853 42.64 84.3346 42.448L84.7746 41.472C85.0146 41.6427 85.2973 41.784 85.6226 41.896C85.9533 42.0027 86.2866 42.056 86.6226 42.056C86.8786 42.056 87.084 42.032 87.2386 41.984C87.3986 41.9307 87.516 41.8587 87.5906 41.768C87.6653 41.6773 87.7026 41.5733 87.7026 41.456C87.7026 41.3067 87.644 41.1893 87.5266 41.104C87.4093 41.0133 87.2546 40.9413 87.0626 40.888C86.8706 40.8293 86.6573 40.776 86.4226 40.728C86.1933 40.6747 85.9613 40.6107 85.7266 40.536C85.4973 40.4613 85.2866 40.3653 85.0946 40.248C84.9026 40.1307 84.7453 39.976 84.6226 39.784C84.5053 39.592 84.4466 39.3467 84.4466 39.048C84.4466 38.728 84.532 38.4373 84.7026 38.176C84.8786 37.9093 85.14 37.6987 85.4866 37.544C85.8386 37.384 86.2786 37.304 86.8066 37.304C87.1586 37.304 87.5053 37.3467 87.8466 37.432C88.188 37.512 88.4893 37.6347 88.7506 37.8L88.3506 38.784C88.0893 38.6347 87.828 38.5253 87.5666 38.456C87.3053 38.3813 87.0493 38.344 86.7986 38.344C86.548 38.344 86.3426 38.3733 86.1826 38.432C86.0226 38.4907 85.908 38.568 85.8386 38.664C85.7693 38.7547 85.7346 38.8613 85.7346 38.984C85.7346 39.128 85.7933 39.2453 85.9106 39.336C86.028 39.4213 86.1826 39.4907 86.3746 39.544C86.5666 39.5973 86.7773 39.6507 87.0066 39.704C87.2413 39.7573 87.4733 39.8187 87.7026 39.888C87.9373 39.9573 88.1506 40.0507 88.3426 40.168C88.5346 40.2853 88.6893 40.44 88.8066 40.632C88.9293 40.824 88.9906 41.0667 88.9906 41.36C88.9906 41.6747 88.9026 41.9627 88.7266 42.224C88.5506 42.4853 88.2866 42.696 87.9346 42.856C87.588 43.016 87.148 43.096 86.6146 43.096ZM95.1562 37.4H96.4522V43H95.1562V37.4ZM92.6122 43H91.3162V37.4H92.6122V43ZM95.2522 40.704H92.5162V39.608H95.2522V40.704Z" fill="#111518"/>
<path d="M94.552 13.846H103.002V17.694H94.552V13.846ZM94.916 21.022H104.432V25H89.82V6.8H104.094V10.778H94.916V21.022ZM108.329 25V6.8H112.567L122.603 18.916H120.601V6.8H125.645V25H121.407L111.371 12.884H113.373V25H108.329Z" fill="#111518"/>
<path d="M82.5397 15.5556C82.2739 14.9601 81.9072 14.3738 81.371 13.6965C80.0189 11.9965 79.6064 8.20557 79.6018 8.1692C79.5835 7.98739 79.4551 7.83739 79.2855 7.78284C79.1114 7.7283 78.9235 7.7783 78.7997 7.91466C77.1864 9.7192 77.8647 12.5056 78.2314 13.6192C78.3322 13.9238 78.4422 14.2828 78.5201 14.6465C79.1159 17.5874 77.9655 18.9192 77.6951 19.1874C77.4338 19.2601 77.2551 19.2238 77.0901 19.0465C76.5217 18.4238 76.3338 16.3828 76.5997 13.7238C76.6547 13.1828 76.6409 12.6965 76.563 12.2419C76.0024 8.97361 73.9467 6.87716 73.4234 6.14193C71.9842 4.01466 71.8376 0.47375 71.833 0.441932C71.8284 0.27375 71.7322 0.12375 71.5809 0.0510227C71.4342 -0.0217046 71.2555 -0.0126137 71.118 0.0828409C68.7163 1.71466 68.9226 5.64648 69.2572 7.84193C69.3351 8.35102 69.4863 8.86921 69.7476 9.52375C70.678 11.8647 69.5642 14.8874 69.5551 14.9147C69.5459 14.9419 69.5367 14.9647 69.5322 14.9919C69.3901 15.7374 69.1517 16.1828 68.8859 16.1828C68.8584 16.1828 68.8309 16.1783 68.7988 16.1692C68.4734 16.101 68.3038 15.7556 68.2992 15.4556C68.2809 11.5783 64.3897 10.2738 64.3484 10.2601C64.1742 10.2056 63.9817 10.2556 63.8626 10.3965C63.7388 10.5374 63.7159 10.7328 63.7984 10.8965C63.8442 10.9919 63.9909 11.4101 63.8901 12.8874C63.803 14.2147 63.5601 15.5283 63.1705 16.7874C62.2447 19.8056 62.3913 22.6647 62.4005 22.801C63.1124 30.5423 74.2456 31.8987 80.853 27.5374C81.5772 27.0601 82.1684 26.5147 82.6038 25.9147C85.0422 22.551 83.6076 17.9828 82.5397 15.5556ZM65.6043 22.951C65.618 23.201 65.4255 23.4147 65.1735 23.4283H65.146C64.903 23.4283 64.7014 23.2419 64.6876 23.001C64.6464 22.3374 64.6555 21.6419 64.706 20.8874C64.7243 20.6374 64.9443 20.451 65.1964 20.4646C65.4485 20.4828 65.641 20.701 65.6226 20.951C65.5722 21.6692 65.563 22.3238 65.6043 22.951ZM65.8288 18.9238C65.8013 19.1556 65.6042 19.3238 65.3751 19.3238C65.3567 19.3238 65.3384 19.3238 65.3155 19.3192C65.068 19.2874 64.8892 19.0647 64.9167 18.8147L65.1367 17.0601C65.1688 16.8147 65.3934 16.6374 65.6501 16.6647C65.9022 16.6965 66.0809 16.9237 66.0488 17.1737L65.8288 18.9238Z" fill="#FF6B09"/>
<path d="M79.4391 6.21861C79.1891 6.1802 79.0177 5.94851 79.0562 5.70061C79.0848 5.51592 79.2504 4.57047 79.6998 4.09506C79.8728 3.91174 80.1624 3.9022 80.3477 4.07442C80.5323 4.24597 80.5417 4.53365 80.3685 4.71697C80.1783 4.91829 80.0163 5.49442 79.9621 5.83915C79.9234 6.08442 79.6928 6.25656 79.4391 6.21861Z" fill="#FF6B09"/>
<path d="M62.7298 8.48269C62.6421 8.14464 62.4241 7.58714 62.2149 7.40514C62.0244 7.23955 62.0054 6.95237 62.1723 6.76373C62.3388 6.57464 62.6282 6.55532 62.8191 6.72155C63.313 7.151 63.571 8.07587 63.6178 8.25673C63.6805 8.49978 63.5328 8.747 63.288 8.8096C63.0377 8.872 62.7922 8.72169 62.7298 8.48269Z" fill="#FF6B09"/>
</svg>
