<svg width="80" height="20" viewBox="0 0 80 20" fill="none" xmlns="http://www.w3.org/2000/svg">
<path d="M11.3266 5.72703V17.8442H7.95921V13.1185H3.36736V17.8442H0V5.72703H3.36736V10.2796H7.95921V5.72703H11.3266Z" fill="#111518"/>
<path d="M23.6508 13.1704C23.6508 13.1935 23.6338 13.4647 23.5998 13.984H16.8991C17.0352 14.4687 17.2959 14.8438 17.6814 15.1092C18.0783 15.3631 18.5715 15.49 19.161 15.49C19.6032 15.49 19.983 15.4265 20.3005 15.2996C20.6293 15.1727 20.9581 14.9649 21.2869 14.6764L22.9876 16.4767C22.0919 17.4922 20.7823 18 19.059 18C17.9819 18 17.0352 17.7923 16.2188 17.3768C15.4025 16.9614 14.7676 16.3844 14.3141 15.6458C13.8719 14.9072 13.6508 14.0706 13.6508 13.1358C13.6508 12.2126 13.8662 11.3875 14.2971 10.6605C14.7392 9.92188 15.3458 9.34487 16.1168 8.92943C16.8878 8.51398 17.7551 8.30626 18.7188 8.30626C19.6372 8.30626 20.4706 8.50244 21.2189 8.89481C21.9672 9.27563 22.5567 9.83533 22.9876 10.5739C23.4297 11.3009 23.6508 12.1664 23.6508 13.1704ZM18.7359 10.6431C18.237 10.6431 17.8175 10.7874 17.4773 11.0759C17.1485 11.3644 16.9388 11.7568 16.8481 12.253H20.6236C20.5329 11.7568 20.3175 11.3644 19.9774 11.0759C19.6486 10.7874 19.2347 10.6431 18.7359 10.6431Z" fill="#111518"/>
<path d="M25.8209 5H29.0522V17.8442H25.8209V5Z" fill="#111518"/>
<path d="M31.8325 5H35.0638V17.8442H31.8325V5Z" fill="#111518"/>
<g clip-path="url(#clip0_5102_430)">
<path d="M52.0462 10.3704C51.8768 9.97341 51.643 9.5825 51.3011 9.13098C50.4391 7.99765 50.1762 5.47038 50.1732 5.44614C50.1616 5.32492 50.0797 5.22492 49.9716 5.18856C49.8606 5.1522 49.7408 5.18553 49.6619 5.27644C48.6334 6.47947 49.0658 8.33704 49.2996 9.07947C49.3639 9.2825 49.434 9.52189 49.4836 9.76432C49.8635 11.7249 49.1301 12.6128 48.9577 12.7916C48.7911 12.8401 48.6772 12.8158 48.572 12.6977C48.2096 12.2825 48.0898 10.9219 48.2593 9.14917C48.2944 8.78856 48.2856 8.46432 48.2359 8.16129C47.8785 5.98241 46.568 4.58477 46.2344 4.09462C45.3169 2.67644 45.2234 0.315833 45.2205 0.294621C45.2175 0.1825 45.1562 0.0825 45.0598 0.0340151C44.9662 -0.0144697 44.8523 -0.0084091 44.7646 0.0552273C43.2335 1.14311 43.365 3.76432 43.5783 5.22795C43.628 5.56735 43.7244 5.9128 43.891 6.34917C44.4841 7.90977 43.7741 9.92492 43.7682 9.94311C43.7624 9.96129 43.7565 9.97644 43.7536 9.99462C43.663 10.4916 43.5111 10.7886 43.3416 10.7886C43.3241 10.7886 43.3066 10.7855 43.2861 10.7795C43.0786 10.734 42.9705 10.5037 42.9676 10.3037C42.9559 7.71886 40.4752 6.84917 40.4489 6.84008C40.3378 6.80371 40.2151 6.83705 40.1391 6.93098C40.0602 7.02492 40.0456 7.15523 40.0982 7.26432C40.1274 7.32795 40.221 7.60674 40.1567 8.59159C40.1011 9.47644 39.9463 10.3522 39.6979 11.1916C39.1077 13.2037 39.2012 15.1098 39.207 15.2007C39.6609 20.3615 46.7586 21.2658 50.9709 18.3583C51.4326 18.0401 51.8095 17.6764 52.0871 17.2764C53.6416 15.034 52.7271 11.9886 52.0462 10.3704ZM41.2495 15.3007C41.2583 15.4673 41.1356 15.6098 40.9749 15.6189H40.9573C40.8025 15.6189 40.6739 15.4946 40.6651 15.334C40.6388 14.8916 40.6447 14.428 40.6768 13.9249C40.6885 13.7583 40.8288 13.634 40.9895 13.6431C41.1502 13.6552 41.2729 13.8007 41.2612 13.9673C41.229 14.4461 41.2232 14.8825 41.2495 15.3007ZM41.3927 12.6158C41.3751 12.7704 41.2495 12.8825 41.1034 12.8825C41.0917 12.8825 41.08 12.8825 41.0654 12.8795C40.9076 12.8583 40.7937 12.7098 40.8112 12.5431L40.9514 11.3734C40.9719 11.2098 41.1151 11.0916 41.2787 11.1098C41.4394 11.131 41.5534 11.2825 41.5329 11.4492L41.3927 12.6158Z" fill="#FF6B09"/>
<path d="M50.0698 4.1459C49.9104 4.12029 49.8012 3.96584 49.8257 3.80057C49.844 3.67745 49.9495 3.04714 50.236 2.7302C50.3463 2.60799 50.531 2.60163 50.6491 2.71644C50.7668 2.83081 50.7728 3.0226 50.6624 3.14481C50.5411 3.27902 50.4378 3.66311 50.4033 3.89293C50.3786 4.05645 50.2315 4.1712 50.0698 4.1459Z" fill="#FF6B09"/>
<path d="M39.4172 5.65529C39.3612 5.42992 39.2223 5.05826 39.0889 4.93692C38.9675 4.82653 38.9553 4.63507 39.0618 4.50932C39.1679 4.38326 39.3524 4.37038 39.4741 4.4812C39.789 4.7675 39.9535 5.38407 39.9833 5.50465C40.0232 5.66668 39.9291 5.8315 39.773 5.87323C39.6135 5.91483 39.4569 5.81462 39.4172 5.65529Z" fill="#FF6B09"/>
</g>
<path d="M66.3562 14.3771V17H56.958V5H66.1388V7.62286H60.2357V9.64572H65.4365V12.1829H60.2357V14.3771H66.3562Z" fill="#111518"/>
<path d="M79.9999 5V17H77.2741L72.1068 10.6057V17H68.8625V5H71.5884L76.7557 11.3943V5H79.9999Z" fill="#111518"/>
<defs>
<clipPath id="clip0_5102_430">
<rect width="14.0255" height="20" fill="white" transform="translate(38.9521)"/>
</clipPath>
</defs>
</svg>
