<svg width="30" height="30" viewBox="0 0 30 30" fill="none" xmlns="http://www.w3.org/2000/svg">
<path d="M4.36574 0.00237049C3.88278 0.026213 3.40855 0.239997 3.06078 0.637989L0.628422 3.42141C0.631823 3.41314 0.618897 3.41434 0.549981 3.51585C0.513243 3.56822 0.484695 3.6263 0.465395 3.68796C-0.524668 6.9709 0.139025 10.5822 1.75573 14.017C3.3725 17.4517 5.95135 20.7386 8.91208 23.4358C11.8728 26.1331 15.2134 28.2432 18.3985 29.29C21.5836 30.3366 24.6719 30.3228 26.9606 28.5943C26.9855 28.5751 27.0089 28.554 27.0306 28.531C27.0906 28.4686 27.0926 28.4607 27.0829 28.4701L27.0921 28.4581L29.5129 25.6867C30.2085 24.8907 30.1524 23.6394 29.3875 22.9153L23.6447 17.4783C22.8799 16.7542 21.678 16.8119 20.9823 17.608L18.3839 20.5826C16.2747 19.9468 14.4714 18.869 12.7371 17.2268C11.0026 15.5844 9.80091 13.8168 8.9936 11.6904L11.5913 8.71578C12.2869 7.91971 12.2315 6.66848 11.4667 5.94436L5.72381 0.507343C5.34145 0.145279 4.84947 -0.0215689 4.36646 0.00222641L4.36574 0.00237049ZM4.42033 1.22235C4.59823 1.21409 4.77923 1.27843 4.9271 1.41848L10.67 6.8555C10.9658 7.13557 10.9859 7.58268 10.7169 7.89058L7.84539 11.1759C7.77321 11.2589 7.72417 11.3608 7.70357 11.4707C7.68298 11.5806 7.6916 11.6943 7.7285 11.7995C8.6 14.2752 10.0059 16.3062 11.9403 18.1379C13.8748 19.9695 15.9484 21.2351 18.3985 21.9043C18.5028 21.9328 18.6127 21.931 18.7161 21.8992C18.8195 21.8673 18.9126 21.8065 18.9852 21.7234L21.8574 18.4373C22.1264 18.1295 22.5552 18.1091 22.851 18.3892L28.5946 23.8263C28.8905 24.1064 28.9098 24.5527 28.6408 24.8605L26.2399 27.6078C24.3618 29.0112 21.7159 29.0899 18.7529 28.1162C15.7784 27.1387 12.5491 25.1139 9.69102 22.5101C6.8329 19.9063 4.34567 16.7265 2.81688 13.4788C1.30386 10.2643 0.75496 7.01464 1.58721 4.15035L3.93272 1.467C4.06722 1.31308 4.24236 1.23064 4.42026 1.22203L4.42033 1.22235Z" fill="#FF6B09"/>
</svg>
