<svg width="48" height="48" viewBox="0 0 48 48" fill="none" xmlns="http://www.w3.org/2000/svg">
<path d="M2.96875 18.837V23.084C2.96875 23.3121 3.07265 23.5271 3.25077 23.6688C6.13248 25.9532 9.74834 27.212 13.4327 27.212C14.5354 27.212 15.6391 27.0959 16.7182 26.8764C19.0182 27.9004 21.4664 28.4243 24.0005 28.4243C26.5427 28.4243 28.9915 27.9001 31.2834 26.8764C35.8864 27.8127 40.7911 26.8071 44.7496 23.6688C44.9277 23.5271 45.0315 23.3121 45.0315 23.084V18.837C45.0315 18.2137 44.7243 17.6457 44.1755 17.2963L38.4164 14.0329C39.6762 12.4227 40.6149 10.1302 40.7781 8.16368C41.2561 4.77893 38.5173 1.19418 34.5748 1.19418C32.917 1.19418 31.3411 1.88152 30.1847 3.03435C30.1447 3.07429 30.0991 3.10798 30.0602 3.14904C30.0245 3.18653 29.9957 3.23026 29.9611 3.26872C29.938 3.29423 29.9179 3.32242 29.8952 3.3483C28.7685 1.27875 26.6027 0 24.051 0C23.8031 0 23.5596 0.0171075 23.3185 0.0418018C23.3038 0.0409092 23.2914 0.0333968 23.2764 0.0333968C23.1395 0.0333968 22.8495 0.0696943 22.6945 0.114769C22.6716 0.121463 22.6551 0.137752 22.6334 0.14638C20.7279 0.534497 19.1138 1.69751 18.1464 3.38029C16.983 2.01377 15.2726 1.19485 13.4125 1.19485C7.59248 1.19485 5.01037 8.11266 9.60449 14.066L3.79236 17.316C3.27669 17.6449 2.96875 18.2137 2.96875 18.837ZM31.269 25.2419C31.1441 25.3033 31.0205 25.3689 30.8947 25.4266L30.8946 25.4267C30.8937 25.4271 30.8928 25.4277 30.8918 25.428C28.7291 26.429 26.4106 26.9367 24.0005 26.9367C21.5976 26.9367 19.2791 26.429 17.1063 25.4266C16.049 24.9421 15.0265 24.3262 14.0608 23.5954V19.2902C14.0608 19.1435 14.1315 19.0135 14.213 18.9589L20.9771 15.1723C21.8186 15.8919 22.8938 16.4196 24.0077 16.4196C25.0808 16.4196 26.2397 15.8842 27.0642 15.1547L33.7462 18.9343C33.8695 19.0142 33.9402 19.1435 33.9402 19.2902V23.5947C33.0895 24.2385 32.1935 24.7869 31.269 25.2419ZM43.4176 18.5725C43.5048 18.6277 43.5546 18.7243 43.5546 18.837V22.718C40.6231 24.9339 37.0956 25.9397 33.5219 25.6873C34.0717 25.3417 34.6705 24.9129 35.1344 24.5469C35.3126 24.406 35.4171 24.1903 35.4171 23.9615V19.2902C35.4171 18.6379 35.0918 18.0372 34.5084 17.6603L30.959 15.6511L31.8221 15.1695C32.8691 16.0294 33.7681 16.2852 34.5748 16.2852C35.5613 16.2852 36.6001 15.7977 37.3715 15.147L43.4176 18.5725ZM34.5748 2.68178C36.6306 2.68178 38.4363 4.03491 39.0741 5.89524C37.8337 5.74699 36.6207 5.13031 35.7431 4.1824C35.5844 4.01103 35.3587 3.92237 35.1243 3.94997C34.8935 3.97466 34.688 4.10758 34.569 4.30811C33.7267 5.72959 32.3457 6.67824 30.775 6.94772C30.7751 6.94623 30.7748 6.94489 30.7748 6.9434C30.7818 6.61977 30.7631 6.29183 30.7263 5.96389C30.7226 5.93027 30.7195 5.89724 30.7153 5.864C30.6677 5.49142 30.5563 5.02588 30.5342 4.9509C31.3728 3.5977 32.9305 2.68178 34.5748 2.68178ZM30.6132 8.46537C32.479 8.25949 34.1665 7.31516 35.3255 5.82257C36.4679 6.76623 37.9171 7.33806 39.3492 7.40716C39.3381 10.095 37.1584 14.7976 34.5748 14.7976C32.5833 14.7976 30.8832 11.9291 30.2479 9.94033C30.4093 9.42882 30.5269 8.93679 30.6132 8.46537ZM30.7632 14.0593L29.4439 14.7951L28.1116 14.0414C28.6055 13.4216 29.0584 12.702 29.4464 11.9213C29.8192 12.7109 30.2661 13.4364 30.7632 14.0593ZM28.7724 9.69704C28.0602 11.8369 26.2335 14.932 24.0077 14.932C21.4132 14.932 19.2036 10.6358 18.7826 7.88833C18.8949 7.86029 22.4008 8.07785 24.8133 4.88701C26.0379 5.91881 27.69 6.6017 29.2969 6.66946C29.3159 7.6393 29.0823 8.77881 28.7724 9.69704ZM24.051 1.48761C28.1905 1.48761 28.9785 5.07631 29.0434 5.15076C27.5424 4.99724 26.1728 4.25656 25.2265 3.2374C25.0678 3.06603 24.837 2.98027 24.607 3.00571C24.3755 3.03115 24.17 3.16481 24.051 3.36675C23.231 4.76406 21.945 5.7496 20.456 6.16843C19.8812 6.33021 19.2603 6.404 18.719 6.39871C18.9217 3.66598 21.0961 1.48761 24.051 1.48761ZM18.558 11.907C18.941 12.6791 19.3962 13.4166 19.9172 14.0645L18.6135 14.7944L17.263 14.0298C17.7752 13.3723 18.2099 12.6366 18.558 11.907ZM13.4125 2.68245C15.0873 2.68245 16.6218 3.53849 17.4769 4.95313C17.434 5.10308 17.3185 5.69999 17.3032 5.77466C16.2755 5.52698 15.3315 4.9756 14.5916 4.18099C14.4323 4.01029 14.2072 3.92527 13.9721 3.94997C13.7414 3.9754 13.5358 4.10907 13.4176 4.31026C12.4298 5.98925 10.6168 7.03206 8.68608 7.03258C8.92119 4.59231 10.9467 2.68245 13.4125 2.68245ZM8.75098 8.5164C10.8731 8.49557 12.8766 7.48809 14.1755 5.82257C15.0628 6.55834 16.1167 7.04277 17.2366 7.26406C17.28 8.12635 17.5031 9.17414 17.7582 9.94688C17.3505 11.2064 16.5681 12.7079 15.5978 13.705C15.5916 13.7112 15.5834 13.714 15.5775 13.7204C14.9702 14.3647 14.1063 14.7983 13.4269 14.7983C11.0531 14.7983 9.19636 11.0362 8.75098 8.5164ZM4.44567 18.837C4.44567 18.7243 4.49545 18.6285 4.54596 18.5943L10.6754 15.1682C11.0431 15.4766 11.1277 15.5118 11.2017 15.5663L11.2015 15.5668C11.9228 16.0497 12.584 16.2903 13.4861 16.2903C14.4467 16.2903 15.3213 15.8803 16.0909 15.249C16.1343 15.2148 16.1809 15.1818 16.2221 15.147L17.0969 15.6424L13.4536 17.6835C12.9092 18.0372 12.5839 18.6379 12.5839 19.2902V23.9615C12.5839 24.1896 12.6878 24.4053 12.8666 24.5462C13.3383 24.9194 13.9498 25.3547 14.4791 25.6881C10.8539 25.9372 7.32671 24.8956 4.44567 22.718V18.837Z" fill="#FF6B09"/>
<path d="M46.5512 31.1713C45.6425 30.5961 44.5241 30.5365 43.562 31.0064L34.4487 35.4407C34.417 33.7227 33.0249 32.3335 31.3111 32.3335L26.0856 32.3349C23.5089 30.0788 20.2161 28.6973 17.2219 28.6247C14.2692 28.5542 11.6187 28.5344 10.3825 28.5288V27.0259H0V44.3012H10.3825V42.2324C13.2297 43.8777 20.7162 47.9999 24.269 47.9999C24.3497 47.9999 24.4284 47.9977 24.5041 47.9933C30.7522 47.6403 45.4882 37.1958 46.4603 36.5022C47.4109 35.9465 48 34.9179 48 33.8088C48 32.7301 47.4584 31.7444 46.5512 31.1713ZM8.90555 42.8135H1.47692V28.5135H8.90555V42.8135ZM45.7002 35.2266C45.6779 35.239 45.6555 35.2528 45.6346 35.268C45.4824 35.377 30.3246 46.1745 24.4219 46.5086C24.3635 46.5115 24.3043 46.513 24.2423 46.513C21.1261 46.513 13.5285 42.3842 10.3825 40.5116V30.0165C11.614 30.0221 14.2493 30.0419 17.1865 30.1123C19.9218 30.1783 22.9586 31.4938 25.3111 33.6308L25.5217 33.8225L31.3111 33.8211C32.2298 33.8211 32.9776 34.5736 32.9776 35.499C32.9776 36.4244 32.2305 37.1777 31.3118 37.1777H20.6755V38.6653H31.3118C32.3311 38.6653 33.2295 38.1662 33.8041 37.4061L44.2046 32.3459C44.7152 32.0953 45.2848 32.1272 45.7666 32.4315C46.2476 32.7352 46.5231 33.2371 46.5231 33.8088C46.5231 34.3957 46.2079 34.9382 45.7002 35.2266Z" fill="#FF6B09"/>
<path d="M24.7386 18.2378H23.2617V19.6172H24.7386V18.2378Z" fill="#FF6B09"/>
<path d="M24.7386 20.9885H23.2617V22.3679H24.7386V20.9885Z" fill="#FF6B09"/>
<path d="M24.7386 23.7393H23.2617V25.1186H24.7386V23.7393Z" fill="#FF6B09"/>
</svg>
