<svg width="20" height="20" viewBox="0 0 20 20" fill="none" xmlns="http://www.w3.org/2000/svg">
<path d="M2.91049 0.00158033C2.58852 0.0174753 2.27237 0.159998 2.04052 0.425326L0.418948 2.28094C0.421215 2.27543 0.412598 2.27623 0.366654 2.3439C0.342162 2.37881 0.32313 2.41753 0.310263 2.45864C-0.349779 4.64727 0.0926833 7.05482 1.17048 9.34464C2.24833 11.6345 3.96757 13.8258 5.94139 15.6239C7.91521 17.422 10.1423 18.8288 12.2657 19.5266C14.3891 20.2244 16.448 20.2152 17.9738 19.0629C17.9903 19.0501 18.0059 19.036 18.0204 19.0207C18.0604 18.9791 18.0617 18.9738 18.0553 18.9801L18.0614 18.9721L19.6753 17.1245C20.139 16.5938 20.1016 15.7596 19.5917 15.2769L15.7631 11.6522C15.2533 11.1694 14.452 11.2079 13.9882 11.7386L12.2559 13.7217C10.8498 13.2979 9.64759 12.5793 8.49143 11.4845C7.33505 10.3896 6.53394 9.21118 5.99573 7.79362L7.72751 5.81052C8.19127 5.27981 8.15437 4.44566 7.64446 3.9629L3.81587 0.338228C3.56096 0.0968527 3.23298 -0.0143792 2.91097 0.00148427L2.91049 0.00158033ZM2.94689 0.8149C3.06549 0.809392 3.18616 0.852284 3.28473 0.945655L7.11332 4.57033C7.31056 4.75705 7.32396 5.05512 7.1446 5.26039L5.23026 7.45058C5.18214 7.50592 5.14945 7.57389 5.13572 7.64716C5.12198 7.72042 5.12773 7.79622 5.15234 7.86633C5.73333 9.51681 6.67057 10.8708 7.96023 12.0919C9.24988 13.313 10.6323 14.1567 12.2656 14.6029C12.3352 14.6219 12.4084 14.6207 12.4774 14.5994C12.5464 14.5782 12.6084 14.5376 12.6568 14.4823L14.5716 12.2915C14.7509 12.0863 15.0368 12.0728 15.234 12.2595L19.0631 15.8842C19.2603 16.0709 19.2732 16.3684 19.0938 16.5737L17.4933 18.4052C16.2412 19.3408 14.4773 19.3933 12.502 18.7441C10.5189 18.0924 8.36609 16.7426 6.46068 15.0068C4.55527 13.2709 2.89711 11.151 1.87792 8.98585C0.869241 6.84286 0.503307 4.67643 1.05814 2.7669L2.62181 0.978001C2.71148 0.875384 2.82824 0.820428 2.94684 0.814684L2.94689 0.8149Z" fill="#FF6B09"/>
</svg>
